<?xml version="1.0" encoding="utf-8"?>
<!-- Generator: Adobe Illustrator 26.1.0, SVG Export Plug-In . SVG Version: 6.00 Build 0)  -->
<svg version="1.1" id="レイヤー_1" xmlns="http://www.w3.org/2000/svg" xmlns:xlink="http://www.w3.org/1999/xlink" x="0px"
	 y="0px" viewBox="0 0 420 140" style="enable-background:new 0 0 420 140;" xml:space="preserve">
<style type="text/css">
	.st0{fill:#666666;}
	.st1{fill:#444444;}
</style>
<g>
	<g>
		<path class="st0" d="M92.43,7.1c4.96,0,9,4.04,9,9v107.8c0,4.96-4.04,9-9,9H57.3c-4.96,0-9-4.04-9-9V16.1c0-4.96,4.04-9,9-9H92.43
			 M92.43,6.1H57.3c-5.52,0-10,4.48-10,10v107.8c0,5.52,4.48,10,10,10h35.13c5.52,0,10-4.48,10-10V16.1
			C102.43,10.58,97.95,6.1,92.43,6.1L92.43,6.1z"/>
	</g>
	<g>
		<path class="st1" d="M73.25,32.24c-0.17,1.8-0.25,2.5-0.3,4.06c1.35-0.2,1.95-0.38,4.01-0.95l0.08,3.21
			c-1.87,0.45-2.12,0.5-4.26,0.93c0,0.95-0.03,2.16-0.03,3.11c1.76-0.53,4.26-1.18,6.79-1.18c6.21,0,6.96,4.48,6.96,6.09
			c0,3.73-3.08,5.84-6.46,5.84c-2.34,0-4.29-1.03-5.94-3.06c0.99-0.43,2.09-1.1,2.8-1.88c0.99,1.48,2.17,1.88,3.13,1.88
			c2.01,0,2.89-1.78,2.89-2.86c0-1.25-0.66-3.28-4.04-3.28c-1.13,0-3.44,0.35-6.1,1.23c0.03,1.88,0.06,4.56,0.06,5.96
			c0,0.93-0.33,2.58-2.53,2.58c-2.64,0-6.9-2.46-6.9-4.89c0-1.18,1.13-3.18,6.08-5.36c0-0.95-0.03-2.61-0.03-3.83
			c-1.32,0.05-1.92,0.08-2.56,0.08c-0.6,0-1.24-0.03-2.36-0.08l0.11-3.13c1.46,0.08,1.95,0.1,2.86,0.1c0.58,0,1.21-0.05,2.06-0.1
			c0-0.68,0.03-3.81,0.03-4.46H73.25z M69.57,46.7c-1.46,0.75-2.97,1.6-2.97,2.36c0,0.78,1.87,1.8,2.36,1.8c0.22,0,0.6,0,0.6-0.75
			V46.7z M84.8,40.69c-1.92-1.43-3.16-2.15-6.16-3.41l1.7-2.41c2.72,0.88,4.81,2.03,6.57,3.26L84.8,40.69z"/>
		<path class="st1" d="M68.6,65.97v8.59c1.26,0.73,2.03,1,2.69,1.2c2.61,0.78,3.24,0.8,13.39,0.8c1.04,0,1.4-0.02,3-0.07
			c-0.47,0.83-0.77,1.73-0.91,2.58c-8.33,0-10.06,0-11.41-0.08c-1.07-0.05-2.09-0.23-2.78-0.38c-2.34-0.43-3.46-1.05-4.67-1.83
			c-0.71,0.48-3.74,2.53-4.34,2.91l-1.68-2.83c1.29-0.58,2.5-1.2,3.55-1.78v-6.44h-2.97v-2.68H68.6z M64.95,57.07
			c1.54,0.63,3.02,1.5,4.45,2.56l-1.73,2.48c-1.48-1.1-2.83-1.93-4.37-2.71L64.95,57.07z M74.1,69.4l2.97-0.75l-0.05,2.78
			c-1.62,0.5-2.17,0.65-6.93,1.98l-1.07-2.98l1.9-0.33V58.2l1.13,0.23c1.29-0.4,2.75-0.98,4.07-1.53l1.59,2.51
			c-1.76,0.6-2.17,0.73-3.6,1.05V69.4z M86.39,57.93v12.53c0,1.93-1.07,2.38-4.1,2.71c-0.17-1.08-0.47-1.95-0.94-2.83h1.59
			c0.19,0,0.38-0.12,0.38-0.35v-9.35h-2.42v14.91h-2.97V57.93H86.39z"/>
		<path class="st1" d="M81.75,89.45c-1.73,1.15-2.42,1.7-3.77,2.86c-0.63,0.53-1.48,1.25-3.11,2.71c0.77-0.28,1.24-0.35,1.57-0.35
			c2.14,0,2.25,1.53,2.5,3.88c0.22,2.28,0.36,2.5,2.94,2.5c1.02,0,2.5-0.08,4.26-0.4l0.14,3.26c-1.43,0.12-2.36,0.18-3.08,0.18
			c-6.85,0-7.09-1.5-7.31-3.88c-0.08-1.3-0.17-2.81-1.32-2.81c-0.5,0-1.65,0.15-3.66,1.78c-0.91,0.73-3.52,3.11-5.42,5.19L63,102
			c2.64-2.25,3.85-3.36,6.13-5.46c1.02-0.93,5.5-5.16,6.43-6.01c-3.13,0.73-5.97,1-8.88,1.13l-0.08-3.11
			c4.37,0.1,8.8-0.23,12.98-1.58L81.75,89.45z M78.48,86.07c-3.41,0.08-6.54-0.25-9.49-0.95l0.8-2.81c3.22,0.78,6.02,1,9.05,0.98
			L78.48,86.07z"/>
	</g>
	<g>
		<polygon class="st1" points="127.38,70 112.44,55.59 112.44,84.41 		"/>
	</g>
	<g>
		<path class="st0" d="M182.52,7.1c4.96,0,9,4.04,9,9v107.8c0,4.96-4.04,9-9,9h-35.13c-4.96,0-9-4.04-9-9V16.1c0-4.96,4.04-9,9-9
			H182.52 M182.52,6.1h-35.13c-5.52,0-10,4.48-10,10v107.8c0,5.52,4.48,10,10,10h35.13c5.52,0,10-4.48,10-10V16.1
			C192.52,10.58,188.04,6.1,182.52,6.1L182.52,6.1z"/>
	</g>
	<g>
		<path class="st1" d="M159.58,45.6c-0.47,0.68-1.07,1.63-1.07,2.38c0,1.25,1.68,1.5,2.91,1.68c0.83,0.1,2.23,0.28,4.84,0.28
			c4.01,0,6.32-0.3,7.95-0.53l0.36,3.31c-3.68,0.33-5.14,0.43-7.45,0.43c-0.77,0-5.33-0.03-8.47-1.03
			c-1.81-0.58-3.71-1.78-3.71-3.66c0-0.88,0.44-2.23,1.73-4.11L159.58,45.6z M171.98,38.28c-2.45,0.25-5,0.48-7.67,0.48
			c-3.66,0-5.55-0.43-7.23-0.98l0.85-2.86c1.73,0.43,3.35,0.73,5.97,0.73c2.12,0,4.78-0.15,7.78-0.65L171.98,38.28z M172.77,32.84
			c1.13,0.75,2.34,1.75,3.22,2.63l-1.65,1.23c-0.88-0.98-2.04-2-3.08-2.66L172.77,32.84z M175.19,30.96
			c1.02,0.7,2.17,1.68,3.16,2.63l-1.59,1.28c-0.88-0.9-2.06-1.85-3.08-2.66L175.19,30.96z"/>
		<path class="st1" d="M160.26,65.94c0.71-1.35,1.37-2.63,1.98-4.06h-5.47v2.83h-3.25v-5.36h9.6V56.9h3.71v2.46h9.65v5.44h-3.52
			v-2.91h-10.56l3.13,1.15c-0.22,0.43-1.32,2.43-1.54,2.91h13.23v2.68h-4.78c-0.44,1.53-1.16,3.01-3.05,5.46
			c1.9,0.8,4.78,2.28,6.21,3.06l-1.98,2.68c-1.87-1.3-4.32-2.56-6.63-3.61c-1.87,1.13-4.67,2.81-12.18,3.41
			c-0.3-0.9-0.8-1.96-1.38-2.91c2.25-0.05,3.99-0.12,6.43-0.6c0.94-0.18,2.09-0.43,3.74-1.3c-1.4-0.53-2.89-1.08-4.04-1.5l-0.61,0.8
			l-2.91-1.45c1.02-1.38,1.95-2.86,2.61-4.03h-5.97v-2.68H160.26z M162.52,68.62c-0.38,0.65-0.88,1.45-1.4,2.38
			c1.59,0.5,3.52,1.18,5.22,1.83c0.99-1.05,1.79-2.28,2.45-4.21H162.52z"/>
		<path class="st1" d="M175.44,82.41v5.71h-8.91v1.05h10.48v2.08h-10.48v0.9h7.04v8.77h-14.85v-8.77h4.7v-0.9h-10.94v-2.08h10.94
			v-1.05h-9.02v-5.71H175.44z M156.83,92.83v9.02h20.29v2.05h-20.29v0.7h-3.35V92.83H156.83z M157.46,84.54v1.5h2.83v-1.5H157.46z
			 M161.69,93.86v0.83h8.58v-0.83H161.69z M161.69,95.99v0.95h8.58v-0.95H161.69z M161.69,98.29v0.95h8.58v-0.95H161.69z
			 M163.15,84.54v1.5h3.38v-1.5H163.15z M169.34,84.54v1.5h2.89v-1.5H169.34z"/>
	</g>
	<g>
		<polygon class="st1" points="217.47,70 202.53,55.59 202.53,84.41 		"/>
	</g>
	<g>
		<path class="st0" d="M272.61,7.1c4.96,0,9,4.04,9,9v107.8c0,4.96-4.04,9-9,9h-35.13c-4.96,0-9-4.04-9-9V16.1c0-4.96,4.04-9,9-9
			H272.61 M272.61,6.1h-35.13c-5.52,0-10,4.48-10,10v107.8c0,5.52,4.48,10,10,10h35.13c5.52,0,10-4.48,10-10V16.1
			C282.61,10.58,278.13,6.1,272.61,6.1L272.61,6.1z"/>
	</g>
	<g>
		<path class="st1" d="M256.84,31.84v3.73h7.86v2.63h-7.86v2.71h10.56v2.76h-24.77v-2.76h10.78V38.2h-4.98
			c-0.61,0.75-1.35,1.63-2.37,2.63c-0.99-0.93-1.76-1.5-2.69-2c1.81-1.73,2.97-3.13,4.89-6.54l3.19,1.2
			c-0.36,0.58-0.77,1.33-1.18,2.08h3.13v-3.73H256.84z M264.05,45.02v9.42h-3.52v-1.03h-10.86v1.03h-3.44v-9.42H264.05z
			 M249.67,47.6v3.13h10.86V47.6H249.67z"/>
		<path class="st1" d="M255.77,57.65v8.89h-5.99c-0.03,0.73-0.05,1.48-0.11,2.18h6.16c0,3.43-0.25,6.82-0.74,8.27
			c-0.69,2.03-2.17,2.3-4.87,2.56c-0.11-1.05-0.41-1.9-0.85-2.91h2.17c0.47,0,0.52-0.08,0.63-0.5c0.05-0.28,0.33-1.8,0.44-4.91
			h-3.27c-0.71,2.66-1.04,3.48-2.14,5.09c-0.8,1.23-1.26,1.73-2.94,3.13c-0.6-1.03-1.26-1.78-2.17-2.43
			c3.11-2.58,4.43-4.61,4.54-10.47h-2.69v-8.89H255.77z M246.92,60.06v4.11h5.72v-4.11H246.92z M261.16,59.48v14.11h-3.02V59.48
			H261.16z M266.33,57.23v19.27c0,2.35-1.62,2.63-5,2.86c-0.11-0.85-0.41-1.7-0.93-2.76h2.42c0.3,0,0.44-0.17,0.44-0.45V57.23
			H266.33z"/>
		<path class="st1" d="M255.61,91.83v2.76h-3.77v5.21c1.59-0.23,3.3-0.5,4.92-0.78v2.88c-3.85,0.58-9.65,1.53-12.98,2.1l-0.74-3.18
			c1.79-0.17,3.57-0.4,5.31-0.63v-5.61h-4.07v-2.76H255.61z M263.91,86.09h3.11v2.88h-7.07c0.06,1.98,0.38,5.31,1.24,7.87
			c0.5,1.53,1.84,4.28,2.72,4.28c0.47,0,0.66-1.28,0.85-2.38c0.99,0.65,2.01,1.18,3.11,1.53c-0.6,2.58-1.68,4.51-3.27,4.51
			c-0.28,0-1.62-0.08-3.11-1.38c-4.26-3.58-4.76-11.25-4.95-14.43H243.2v-2.88h13.25l0.06-4.11h3.38c-0.05,2.08-0.08,3.33-0.03,4.13
			l3.16-0.02c-0.94-0.78-1.95-1.5-2.94-2.25l1.92-1.88c1.24,0.78,2.5,1.75,3.52,2.61L263.91,86.09z"/>
	</g>
	<g>
		<polygon class="st1" points="307.56,70 292.62,55.59 292.62,84.41 		"/>
	</g>
	<g>
		<path class="st0" d="M362.7,7.1c4.96,0,9,4.04,9,9v107.8c0,4.96-4.04,9-9,9h-35.13c-4.96,0-9-4.04-9-9V16.1c0-4.96,4.04-9,9-9
			H362.7 M362.7,6.1h-35.13c-5.52,0-10,4.48-10,10v107.8c0,5.52,4.48,10,10,10h35.13c5.52,0,10-4.48,10-10V16.1
			C372.7,10.58,368.22,6.1,362.7,6.1L362.7,6.1z"/>
	</g>
	<g>
		<path class="st1" d="M346.99,44.77c0,4.43-0.08,5.94-0.38,9.2c0.85,1.9,1.54,2.98,2.91,4.53c2.97,3.41,6.08,4.71,8.39,5.69
			c-1.04,0.75-1.73,1.78-2.28,2.86c-3.02-1.43-6.57-3.73-9.16-7.14c-0.22-0.35-0.41-0.65-1.15-2.03c-1.18,2.3-3.22,6.26-10.72,9.17
			c-0.58-1-1.18-1.9-2.14-2.68c6.82-2.41,8.58-5.46,9.46-7.42c1.29-2.96,1.32-5.96,1.29-12.18H346.99z M340.72,49.96
			c-0.99,3.38-2.31,5.71-3.22,7.12l-3-1.35c1.43-2.21,2.23-3.86,3.05-6.69L340.72,49.96z M355.81,50.81
			c-1.59,1.83-3.85,4.18-5.61,6.06c-0.71-0.65-1.54-1.33-2.39-1.95c1.81-2,3.77-4.23,5.31-6.19L355.81,50.81z"/>
		<path class="st1" d="M357.05,74.52l-0.03,1.98h-7.95v1.65c2.53-0.48,2.72-0.53,5.33-1.28l1.81,1.9c-2.64,0.8-5.17,1.28-7.15,1.55
			c0,0.98,0,1.08,0.47,1.08h3.22c1.51,0,1.57,0,1.7-0.3c0.11-0.17,0.27-0.55,0.47-1.13c0.91,0.43,1.76,0.83,2.8,1.08
			c-0.8,1.93-1.54,2.35-2.8,2.46c-0.33,0-4.1,0.03-4.84,0.03c-2.36,0-2.72-0.03-3.33-0.43c-0.44-0.28-0.69-0.8-0.69-1.43v-5.19
			h-5.17c-0.25,0.33-0.47,0.6-0.71,0.85h3.38l0.3-0.1l1.54,1.45c-1.68,1.98-3.27,3.03-4.81,3.81c-1.48,0.73-3.57,1.5-6.27,2
			c-0.3-0.75-0.74-1.4-1.37-2.1c1.62-0.17,2.23-0.3,3.9-0.8c-0.44-0.35-0.82-0.7-1.26-1c-0.47,0.2-0.99,0.38-1.51,0.58
			c-0.33-0.7-0.85-1.4-1.57-2.08c2.01-0.68,3.35-1.18,4.87-2.61h-4.12v-1.98H357.05z M342.84,83.74l-0.06,1.3h5.03v-1.3h3.24v1.3
			h6.21v2.18h-6.21v4.69h-3.24v-4.69h-5.42c-1.1,2.93-3.9,4.41-8.03,4.94c-0.3-0.95-0.71-1.85-1.32-2.68
			c3.66-0.23,4.92-1.2,5.94-2.25h-5.97v-2.18h6.49l0.08-1.3H342.84z M342.15,69.33v1.35h5.58v-1.35h3.11v1.35h6.21v2.23h-6.21v1.1
			h-3.11v-1.1h-5.58v1.1h-3.11v-1.1h-5.8v-2.23h5.8v-1.35H342.15z M338.19,79.03l-0.38,0.25c0.55,0.4,1.07,0.83,1.65,1.28
			c0.77-0.43,1.48-0.9,2.2-1.53H338.19z"/>
	</g>
</g>
</svg>
