<?xml version="1.0" encoding="utf-8"?>
<!-- Generator: Adobe Illustrator 26.1.0, SVG Export Plug-In . SVG Version: 6.00 Build 0)  -->
<svg version="1.1" id="レイヤー_1" xmlns="http://www.w3.org/2000/svg" xmlns:xlink="http://www.w3.org/1999/xlink" x="0px"
	 y="0px" viewBox="0 0 420 140" style="enable-background:new 0 0 420 140;" xml:space="preserve">
<style type="text/css">
	.st0{fill:#666666;}
	.st1{fill:#444444;}
</style>
<g>
	<g>
		<path class="st0" d="M47.38,7.1c4.96,0,9,4.04,9,9v107.8c0,4.96-4.04,9-9,9H12.25c-4.96,0-9-4.04-9-9V16.1c0-4.96,4.04-9,9-9
			H47.38 M47.38,6.1H12.25c-5.52,0-10,4.48-10,10v107.8c0,5.52,4.48,10,10,10h35.13c5.52,0,10-4.48,10-10V16.1
			C57.38,10.58,52.91,6.1,47.38,6.1L47.38,6.1z"/>
	</g>
	<g>
		<path class="st1" d="M28.21,32.24c-0.17,1.8-0.25,2.5-0.3,4.06c1.35-0.2,1.95-0.38,4.01-0.95L32,38.56
			c-1.87,0.45-2.12,0.5-4.26,0.93c0,0.95-0.03,2.16-0.03,3.11c1.76-0.53,4.26-1.18,6.79-1.18c6.21,0,6.96,4.48,6.96,6.09
			c0,3.73-3.08,5.84-6.46,5.84c-2.34,0-4.29-1.03-5.94-3.06c0.99-0.43,2.09-1.1,2.8-1.88c0.99,1.48,2.17,1.88,3.13,1.88
			c2.01,0,2.89-1.78,2.89-2.86c0-1.25-0.66-3.28-4.04-3.28c-1.13,0-3.44,0.35-6.1,1.23c0.03,1.88,0.06,4.56,0.06,5.96
			c0,0.93-0.33,2.58-2.53,2.58c-2.64,0-6.9-2.46-6.9-4.89c0-1.18,1.13-3.18,6.08-5.36c0-0.95-0.03-2.61-0.03-3.83
			c-1.32,0.05-1.92,0.08-2.56,0.08c-0.6,0-1.24-0.03-2.36-0.08l0.11-3.13c1.46,0.08,1.95,0.1,2.86,0.1c0.58,0,1.21-0.05,2.06-0.1
			c0-0.68,0.03-3.81,0.03-4.46H28.21z M24.52,46.7c-1.46,0.75-2.97,1.6-2.97,2.36c0,0.78,1.87,1.8,2.36,1.8c0.22,0,0.6,0,0.6-0.75
			V46.7z M39.75,40.69c-1.92-1.43-3.16-2.15-6.16-3.41l1.7-2.41c2.72,0.88,4.81,2.03,6.57,3.26L39.75,40.69z"/>
		<path class="st1" d="M23.56,65.97v8.59c1.26,0.73,2.03,1,2.69,1.2c2.61,0.78,3.24,0.8,13.39,0.8c1.04,0,1.4-0.02,3-0.07
			c-0.47,0.83-0.77,1.73-0.91,2.58c-8.33,0-10.06,0-11.41-0.08c-1.07-0.05-2.09-0.23-2.78-0.38c-2.34-0.43-3.46-1.05-4.67-1.83
			c-0.71,0.48-3.74,2.53-4.34,2.91l-1.68-2.83c1.29-0.58,2.5-1.2,3.55-1.78v-6.44h-2.97v-2.68H23.56z M19.9,57.07
			c1.54,0.63,3.02,1.5,4.45,2.56l-1.73,2.48c-1.48-1.1-2.83-1.93-4.37-2.71L19.9,57.07z M29.06,69.4l2.97-0.75l-0.05,2.78
			c-1.62,0.5-2.17,0.65-6.93,1.98l-1.07-2.98l1.9-0.33V58.2L27,58.43c1.29-0.4,2.75-0.98,4.07-1.53l1.59,2.51
			c-1.76,0.6-2.17,0.73-3.6,1.05V69.4z M41.35,57.93v12.53c0,1.93-1.07,2.38-4.1,2.71c-0.17-1.08-0.47-1.95-0.94-2.83h1.59
			c0.19,0,0.38-0.12,0.38-0.35v-9.35h-2.42v14.91h-2.97V57.93H41.35z"/>
		<path class="st1" d="M36.7,89.45c-1.73,1.15-2.42,1.7-3.77,2.86c-0.63,0.53-1.48,1.25-3.11,2.71c0.77-0.28,1.24-0.35,1.57-0.35
			c2.14,0,2.25,1.53,2.5,3.88c0.22,2.28,0.36,2.5,2.94,2.5c1.02,0,2.5-0.08,4.26-0.4l0.14,3.26c-1.43,0.12-2.36,0.18-3.08,0.18
			c-6.85,0-7.09-1.5-7.31-3.88c-0.08-1.3-0.17-2.81-1.32-2.81c-0.5,0-1.65,0.15-3.66,1.78c-0.91,0.73-3.52,3.11-5.42,5.19l-2.5-2.36
			c2.64-2.25,3.85-3.36,6.13-5.46c1.02-0.93,5.5-5.16,6.43-6.01c-3.13,0.73-5.97,1-8.88,1.13l-0.08-3.11
			c4.37,0.1,8.8-0.23,12.98-1.58L36.7,89.45z M33.43,86.07c-3.41,0.08-6.54-0.25-9.49-0.95l0.8-2.81c3.22,0.78,6.02,1,9.05,0.98
			L33.43,86.07z"/>
	</g>
	<g>
		<polygon class="st1" points="82.33,70 67.4,55.59 67.4,84.41 		"/>
	</g>
	<g>
		<path class="st0" d="M137.47,7.1c4.96,0,9,4.04,9,9v107.8c0,4.96-4.04,9-9,9h-35.13c-4.96,0-9-4.04-9-9V16.1c0-4.96,4.04-9,9-9
			H137.47 M137.47,6.1h-35.13c-5.52,0-10,4.48-10,10v107.8c0,5.52,4.48,10,10,10h35.13c5.52,0,10-4.48,10-10V16.1
			C147.47,10.58,143,6.1,137.47,6.1L137.47,6.1z"/>
	</g>
	<g>
		<path class="st1" d="M114.53,45.6c-0.47,0.68-1.07,1.63-1.07,2.38c0,1.25,1.68,1.5,2.91,1.68c0.82,0.1,2.23,0.28,4.84,0.28
			c4.01,0,6.32-0.3,7.95-0.53l0.36,3.31c-3.68,0.33-5.14,0.43-7.45,0.43c-0.77,0-5.33-0.03-8.47-1.03
			c-1.81-0.58-3.71-1.78-3.71-3.66c0-0.88,0.44-2.23,1.73-4.11L114.53,45.6z M126.93,38.28c-2.45,0.25-5,0.48-7.67,0.48
			c-3.66,0-5.55-0.43-7.23-0.98l0.85-2.86c1.73,0.43,3.35,0.73,5.97,0.73c2.12,0,4.78-0.15,7.78-0.65L126.93,38.28z M127.73,32.84
			c1.13,0.75,2.34,1.75,3.22,2.63l-1.65,1.23c-0.88-0.98-2.03-2-3.08-2.66L127.73,32.84z M130.15,30.96
			c1.02,0.7,2.17,1.68,3.16,2.63l-1.59,1.28c-0.88-0.9-2.06-1.85-3.08-2.66L130.15,30.96z"/>
		<path class="st1" d="M115.22,65.94c0.71-1.35,1.37-2.63,1.98-4.06h-5.47v2.83h-3.24v-5.36h9.6V56.9h3.71v2.46h9.65v5.44h-3.52
			v-2.91h-10.56l3.13,1.15c-0.22,0.43-1.32,2.43-1.54,2.91h13.23v2.68h-4.78c-0.44,1.53-1.15,3.01-3.05,5.46
			c1.9,0.8,4.78,2.28,6.21,3.06l-1.98,2.68c-1.87-1.3-4.32-2.56-6.63-3.61c-1.87,1.13-4.67,2.81-12.18,3.41
			c-0.3-0.9-0.8-1.96-1.38-2.91c2.25-0.05,3.99-0.12,6.43-0.6c0.94-0.18,2.09-0.43,3.74-1.3c-1.4-0.53-2.89-1.08-4.04-1.5l-0.6,0.8
			l-2.91-1.45c1.02-1.38,1.95-2.86,2.61-4.03h-5.97v-2.68H115.22z M117.47,68.62c-0.38,0.65-0.88,1.45-1.4,2.38
			c1.59,0.5,3.52,1.18,5.22,1.83c0.99-1.05,1.79-2.28,2.45-4.21H117.47z"/>
		<path class="st1" d="M130.4,82.41v5.71h-8.91v1.05h10.48v2.08h-10.48v0.9h7.04v8.77h-14.85v-8.77h4.7v-0.9h-10.94v-2.08h10.94
			v-1.05h-9.02v-5.71H130.4z M111.78,92.83v9.02h20.29v2.05h-20.29v0.7h-3.35V92.83H111.78z M112.41,84.54v1.5h2.83v-1.5H112.41z
			 M116.65,93.86v0.83h8.58v-0.83H116.65z M116.65,95.99v0.95h8.58v-0.95H116.65z M116.65,98.29v0.95h8.58v-0.95H116.65z
			 M118.1,84.54v1.5h3.38v-1.5H118.1z M124.29,84.54v1.5h2.89v-1.5H124.29z"/>
	</g>
	<g>
		<polygon class="st1" points="172.42,70 157.49,55.59 157.49,84.41 		"/>
	</g>
	<g>
		<path class="st0" d="M227.56,7.1c4.96,0,9,4.04,9,9v107.8c0,4.96-4.04,9-9,9h-35.13c-4.96,0-9-4.04-9-9V16.1c0-4.96,4.04-9,9-9
			H227.56 M227.56,6.1h-35.13c-5.52,0-10,4.48-10,10v107.8c0,5.52,4.48,10,10,10h35.13c5.52,0,10-4.48,10-10V16.1
			C237.56,10.58,233.09,6.1,227.56,6.1L227.56,6.1z"/>
	</g>
	<g>
		<path class="st1" d="M208.39,32.24c-0.17,1.8-0.25,2.5-0.3,4.06c1.35-0.2,1.95-0.38,4.01-0.95l0.08,3.21
			c-1.87,0.45-2.12,0.5-4.26,0.93c0,0.95-0.03,2.16-0.03,3.11c1.76-0.53,4.26-1.18,6.79-1.18c6.21,0,6.96,4.48,6.96,6.09
			c0,3.73-3.08,5.84-6.46,5.84c-2.34,0-4.29-1.03-5.94-3.06c0.99-0.43,2.09-1.1,2.8-1.88c0.99,1.48,2.17,1.88,3.13,1.88
			c2.01,0,2.89-1.78,2.89-2.86c0-1.25-0.66-3.28-4.04-3.28c-1.13,0-3.44,0.35-6.1,1.23c0.03,1.88,0.05,4.56,0.05,5.96
			c0,0.93-0.33,2.58-2.53,2.58c-2.64,0-6.9-2.46-6.9-4.89c0-1.18,1.13-3.18,6.08-5.36c0-0.95-0.03-2.61-0.03-3.83
			c-1.32,0.05-1.92,0.08-2.56,0.08c-0.6,0-1.24-0.03-2.36-0.08l0.11-3.13c1.46,0.08,1.95,0.1,2.86,0.1c0.58,0,1.21-0.05,2.06-0.1
			c0-0.68,0.03-3.81,0.03-4.46H208.39z M204.7,46.7c-1.46,0.75-2.97,1.6-2.97,2.36c0,0.78,1.87,1.8,2.36,1.8c0.22,0,0.6,0,0.6-0.75
			V46.7z M219.94,40.69c-1.92-1.43-3.16-2.15-6.16-3.41l1.7-2.41c2.72,0.88,4.81,2.03,6.57,3.26L219.94,40.69z"/>
		<path class="st1" d="M203.82,65.97v8.57c1.76,1.1,2.8,1.5,4.67,1.78c2.01,0.33,2.56,0.33,3.52,0.33h7.75c1.27,0,1.87,0,3.08-0.08
			c-0.41,0.88-0.8,1.73-0.93,2.58c-8.33,0-10.12,0-11.69-0.12c-4.34-0.38-6.02-1.48-7.12-2.21c-0.96,0.63-1.9,1.25-4.34,2.96
			l-1.73-2.76c1.18-0.6,2.58-1.35,3.63-1.93V68.7h-2.91v-2.73H203.82z M200.17,57.1c1.68,0.83,2.86,1.43,4.45,2.61l-1.87,2.43
			c-1.51-1.15-2.45-1.75-4.32-2.66L200.17,57.1z M210.78,59.71h-4.92v-2.25h12.4l0.22-0.13l1.68,2c-1.43,0.88-2.92,1.78-4.51,2.66
			l0.77,0.55l-0.55,0.45h5.2v10.42c0,1.33-0.03,2.38-4.26,2.68c-0.08-0.9-0.36-1.73-0.85-2.56h1.68c0.25,0,0.38-0.1,0.38-0.33v-1.2
			h-3.16v3.58h-2.94v-3.58h-2.64v3.66h-3.02V62.99h5.88c-0.77-0.53-1.79-1.1-2.91-1.7L210.78,59.71z M209.27,65.14v1.4h2.64v-1.4
			H209.27z M209.27,68.52v1.43h2.64v-1.43H209.27z M211.47,59.71c0.66,0.35,1.35,0.63,2.01,1c0.52-0.3,0.99-0.65,1.46-1H211.47z
			 M214.85,65.14v1.4h3.16v-1.4H214.85z M214.85,68.52v1.43h3.16v-1.43H214.85z"/>
		<path class="st1" d="M208.28,81.91h3.49v2.23h10.12v2.53h-8.88l1.18,0.63c-0.47,0.75-0.94,1.5-1.38,2.13h5.8l0.33-0.12l2.25,1.5
			c-1.81,4.18-3.19,6.26-5.39,8.42c1.71,0.88,3.24,1.68,6.96,2.56c-0.85,0.93-1.4,1.78-1.84,2.73c-2.97-0.93-4.54-1.65-7.53-3.31
			c-2.34,1.58-4.1,2.43-7.34,3.46c-0.41-0.98-0.96-1.93-1.7-2.78c2.58-0.6,4.18-1.15,6.52-2.48c-1.98-2.08-2.2-2.3-3.19-3.66
			c-0.63,0.65-1.32,1.28-1.95,1.7c-0.38-0.83-0.96-1.65-1.76-2.48c3.93-3.18,5.75-6.14,6.9-8.29h-5.94l1.73,0.75
			c-0.8,1.33-1.9,2.78-2.83,4.03v13.05h-3.11v-9.37c-0.66,0.75-1.43,1.48-2.23,2.18c-0.41-1.03-1.02-1.96-1.73-2.76
			c3.02-2.58,5.11-5.66,6.46-7.89h-5.25v-2.53h10.31V81.91z M211.11,91.83c-0.44,0.55-0.96,1.23-1.48,1.88
			c0.74,1.25,1.54,2.23,3.63,3.88c1.84-1.78,3.13-3.58,4.18-5.76H211.11z M212.21,92c1.15,0.78,2.23,1.58,3.05,2.31l-1.87,1.78
			c-0.96-0.85-1.9-1.7-2.83-2.41L212.21,92z"/>
	</g>
	<g>
		<polygon class="st1" points="262.51,70 247.58,55.59 247.58,84.41 		"/>
	</g>
	<g>
		<path class="st0" d="M317.65,7.1c4.96,0,9,4.04,9,9v107.8c0,4.96-4.04,9-9,9h-35.13c-4.96,0-9-4.04-9-9V16.1c0-4.96,4.04-9,9-9
			H317.65 M317.65,6.1h-35.13c-5.52,0-10,4.48-10,10v107.8c0,5.52,4.48,10,10,10h35.13c5.52,0,10-4.48,10-10V16.1
			C327.65,10.58,323.18,6.1,317.65,6.1L317.65,6.1z"/>
	</g>
	<g>
		<path class="st1" d="M301.89,31.84v3.73h7.86v2.63h-7.86v2.71h10.56v2.76h-24.77v-2.76h10.78V38.2h-4.98
			c-0.6,0.75-1.35,1.63-2.36,2.63c-0.99-0.93-1.76-1.5-2.69-2c1.81-1.73,2.97-3.13,4.89-6.54l3.19,1.2
			c-0.36,0.58-0.77,1.33-1.18,2.08h3.13v-3.73H301.89z M309.09,45.02v9.42h-3.52v-1.03h-10.86v1.03h-3.44v-9.42H309.09z
			 M294.71,47.6v3.13h10.86V47.6H294.71z"/>
		<path class="st1" d="M300.82,57.65v8.89h-5.99c-0.03,0.73-0.05,1.48-0.11,2.18h6.16c0,3.43-0.25,6.82-0.74,8.27
			c-0.69,2.03-2.17,2.3-4.87,2.56c-0.11-1.05-0.41-1.9-0.85-2.91h2.17c0.47,0,0.52-0.08,0.63-0.5c0.06-0.28,0.33-1.8,0.44-4.91
			h-3.27c-0.71,2.66-1.04,3.48-2.14,5.09c-0.8,1.23-1.26,1.73-2.94,3.13c-0.6-1.03-1.26-1.78-2.17-2.43
			c3.11-2.58,4.43-4.61,4.54-10.47h-2.69v-8.89H300.82z M291.96,60.06v4.11h5.72v-4.11H291.96z M306.21,59.48v14.11h-3.02V59.48
			H306.21z M311.37,57.23v19.27c0,2.35-1.62,2.63-5,2.86c-0.11-0.85-0.41-1.7-0.93-2.76h2.42c0.3,0,0.44-0.17,0.44-0.45V57.23
			H311.37z"/>
		<path class="st1" d="M300.65,91.83v2.76h-3.77v5.21c1.59-0.23,3.3-0.5,4.92-0.78v2.88c-3.85,0.58-9.65,1.53-12.98,2.1l-0.74-3.18
			c1.79-0.17,3.57-0.4,5.31-0.63v-5.61h-4.07v-2.76H300.65z M308.95,86.09h3.11v2.88H305c0.06,1.98,0.38,5.31,1.24,7.87
			c0.5,1.53,1.84,4.28,2.72,4.28c0.47,0,0.66-1.28,0.85-2.38c0.99,0.65,2.01,1.18,3.11,1.53c-0.6,2.58-1.68,4.51-3.27,4.51
			c-0.27,0-1.62-0.08-3.11-1.38c-4.26-3.58-4.76-11.25-4.95-14.43h-13.34v-2.88h13.25l0.06-4.11h3.38
			c-0.05,2.08-0.08,3.33-0.03,4.13l3.16-0.02c-0.94-0.78-1.95-1.5-2.94-2.25l1.92-1.88c1.24,0.78,2.5,1.75,3.52,2.61L308.95,86.09z"
			/>
	</g>
	<g>
		<polygon class="st1" points="352.6,70 337.67,55.59 337.67,84.41 		"/>
	</g>
	<g>
		<path class="st0" d="M407.75,7.1c4.96,0,9,4.04,9,9v107.8c0,4.96-4.04,9-9,9h-35.13c-4.96,0-9-4.04-9-9V16.1c0-4.96,4.04-9,9-9
			H407.75 M407.75,6.1h-35.13c-5.52,0-10,4.48-10,10v107.8c0,5.52,4.48,10,10,10h35.13c5.52,0,10-4.48,10-10V16.1
			C417.75,10.58,413.27,6.1,407.75,6.1L407.75,6.1z"/>
	</g>
	<g>
		<path class="st1" d="M392.03,44.77c0,4.43-0.08,5.94-0.38,9.2c0.85,1.9,1.54,2.98,2.91,4.53c2.97,3.41,6.08,4.71,8.39,5.69
			c-1.04,0.75-1.73,1.78-2.28,2.86c-3.02-1.43-6.57-3.73-9.16-7.14c-0.22-0.35-0.41-0.65-1.15-2.03c-1.18,2.3-3.22,6.26-10.72,9.17
			c-0.58-1-1.18-1.9-2.14-2.68c6.82-2.41,8.58-5.46,9.46-7.42c1.29-2.96,1.32-5.96,1.29-12.18H392.03z M385.76,49.96
			c-0.99,3.38-2.31,5.71-3.22,7.12l-3-1.35c1.43-2.21,2.23-3.86,3.05-6.69L385.76,49.96z M400.86,50.81
			c-1.59,1.83-3.85,4.18-5.61,6.06c-0.71-0.65-1.54-1.33-2.39-1.95c1.81-2,3.77-4.23,5.31-6.19L400.86,50.81z"/>
		<path class="st1" d="M402.1,74.52l-0.03,1.98h-7.95v1.65c2.53-0.48,2.72-0.53,5.33-1.28l1.81,1.9c-2.64,0.8-5.17,1.28-7.15,1.55
			c0,0.98,0,1.08,0.47,1.08h3.22c1.51,0,1.57,0,1.7-0.3c0.11-0.17,0.27-0.55,0.47-1.13c0.91,0.43,1.76,0.83,2.8,1.08
			c-0.8,1.93-1.54,2.35-2.8,2.46c-0.33,0-4.1,0.03-4.84,0.03c-2.36,0-2.72-0.03-3.33-0.43c-0.44-0.28-0.69-0.8-0.69-1.43v-5.19
			h-5.17c-0.25,0.33-0.47,0.6-0.71,0.85h3.38l0.3-0.1l1.54,1.45c-1.68,1.98-3.27,3.03-4.81,3.81c-1.48,0.73-3.57,1.5-6.27,2
			c-0.3-0.75-0.74-1.4-1.37-2.1c1.62-0.17,2.23-0.3,3.9-0.8c-0.44-0.35-0.82-0.7-1.26-1c-0.47,0.2-0.99,0.38-1.51,0.58
			c-0.33-0.7-0.85-1.4-1.57-2.08c2.01-0.68,3.35-1.18,4.87-2.61h-4.12v-1.98H402.1z M387.88,83.73l-0.06,1.3h5.03v-1.3h3.24v1.3
			h6.21v2.18h-6.21v4.69h-3.24v-4.69h-5.42c-1.1,2.93-3.9,4.41-8.03,4.94c-0.3-0.95-0.71-1.85-1.32-2.68
			c3.66-0.23,4.92-1.2,5.94-2.25h-5.97v-2.18h6.49l0.08-1.3H387.88z M387.19,69.33v1.35h5.58v-1.35h3.11v1.35h6.21v2.23h-6.21v1.1
			h-3.11v-1.1h-5.58v1.1h-3.11v-1.1h-5.8v-2.23h5.8v-1.35H387.19z M383.23,79.02l-0.38,0.25c0.55,0.4,1.07,0.83,1.65,1.28
			c0.77-0.43,1.48-0.9,2.2-1.53H383.23z"/>
	</g>
</g>
</svg>
