<?xml version="1.0" encoding="utf-8"?>
<!-- Generator: Adobe Illustrator 26.1.0, SVG Export Plug-In . SVG Version: 6.00 Build 0)  -->
<svg version="1.1" id="レイヤー_1" xmlns="http://www.w3.org/2000/svg" xmlns:xlink="http://www.w3.org/1999/xlink" x="0px"
	 y="0px" viewBox="0 0 420 140" style="enable-background:new 0 0 420 140;" xml:space="preserve">
<style type="text/css">
	.st0{fill:#666666;}
	.st1{fill:#444444;}
</style>
<g>
	<g>
		<g>
			<path class="st0" d="M137.5,7.1c5,0,9,4,9,9v107.8c0,5-4,9-9,9h-35.1c-5,0-9-4-9-9V16.1c0-5,4-9,9-9H137.5 M137.5,6.1h-35.1
				c-5.5,0-10,4.5-10,10v107.8c0,5.5,4.5,10,10,10h35.1c5.5,0,10-4.5,10-10V16.1C147.5,10.6,143,6.1,137.5,6.1L137.5,6.1z"/>
		</g>
		<g>
			<path class="st1" d="M118.3,32.2c-0.2,1.8-0.2,2.5-0.3,4.1c1.3-0.2,2-0.4,4-1l0.1,3.2c-1.9,0.5-2.1,0.5-4.3,0.9c0,1,0,2.2,0,3.1
				c1.8-0.5,4.3-1.2,6.8-1.2c6.2,0,7,4.5,7,6.1c0,3.7-3.1,5.8-6.5,5.8c-2.3,0-4.3-1-5.9-3.1c1-0.4,2.1-1.1,2.8-1.9
				c1,1.5,2.2,1.9,3.1,1.9c2,0,2.9-1.8,2.9-2.9c0-1.3-0.7-3.3-4-3.3c-1.1,0-3.4,0.4-6.1,1.2c0,1.9,0.1,4.6,0.1,6
				c0,0.9-0.3,2.6-2.5,2.6c-2.6,0-6.9-2.5-6.9-4.9c0-1.2,1.1-3.2,6.1-5.4c0-1,0-2.6,0-3.8c-1.3,0-1.9,0.1-2.6,0.1
				c-0.6,0-1.2,0-2.4-0.1l0.1-3.1c1.5,0.1,2,0.1,2.9,0.1c0.6,0,1.2,0,2.1-0.1c0-0.7,0-3.8,0-4.5H118.3z M114.6,46.7
				c-1.5,0.8-3,1.6-3,2.4c0,0.8,1.9,1.8,2.4,1.8c0.2,0,0.6,0,0.6-0.8V46.7z M129.8,40.7c-1.9-1.4-3.2-2.2-6.2-3.4l1.7-2.4
				c2.7,0.9,4.8,2,6.6,3.3L129.8,40.7z"/>
			<path class="st1" d="M113.6,66v8.6c1.3,0.7,2,1,2.7,1.2c2.6,0.8,3.2,0.8,13.4,0.8c1,0,1.4,0,3-0.1c-0.5,0.8-0.8,1.7-0.9,2.6
				c-8.3,0-10.1,0-11.4-0.1c-1.1,0-2.1-0.2-2.8-0.4c-2.3-0.4-3.5-1.1-4.7-1.8c-0.7,0.5-3.7,2.5-4.3,2.9l-1.7-2.8
				c1.3-0.6,2.5-1.2,3.5-1.8v-6.4h-3V66H113.6z M110,57.1c1.5,0.6,3,1.5,4.5,2.6l-1.7,2.5c-1.5-1.1-2.8-1.9-4.4-2.7L110,57.1z
				 M119.1,69.4l3-0.8l-0.1,2.8c-1.6,0.5-2.2,0.7-6.9,2l-1.1-3l1.9-0.3V58.2l1.1,0.2c1.3-0.4,2.7-1,4.1-1.5l1.6,2.5
				c-1.8,0.6-2.2,0.7-3.6,1.1V69.4z M131.4,57.9v12.5c0,1.9-1.1,2.4-4.1,2.7c-0.2-1.1-0.5-2-0.9-2.8h1.6c0.2,0,0.4-0.1,0.4-0.4v-9.3
				H126v14.9h-3V57.9H131.4z"/>
			<path class="st1" d="M126.8,89.4c-1.7,1.2-2.4,1.7-3.8,2.9c-0.6,0.5-1.5,1.3-3.1,2.7c0.8-0.3,1.2-0.4,1.6-0.4
				c2.1,0,2.3,1.5,2.5,3.9c0.2,2.3,0.4,2.5,2.9,2.5c1,0,2.5-0.1,4.3-0.4l0.1,3.3c-1.4,0.1-2.4,0.2-3.1,0.2c-6.8,0-7.1-1.5-7.3-3.9
				c-0.1-1.3-0.2-2.8-1.3-2.8c-0.5,0-1.6,0.1-3.7,1.8c-0.9,0.7-3.5,3.1-5.4,5.2L108,102c2.6-2.3,3.8-3.4,6.1-5.5
				c1-0.9,5.5-5.2,6.4-6c-3.1,0.7-6,1-8.9,1.1l-0.1-3.1c4.4,0.1,8.8-0.2,13-1.6L126.8,89.4z M123.5,86.1c-3.4,0.1-6.5-0.3-9.5-1
				l0.8-2.8c3.2,0.8,6,1,9,1L123.5,86.1z"/>
		</g>
		<g>
			<polygon class="st1" points="172.4,70 157.5,55.6 157.5,84.4 			"/>
		</g>
		<g>
			<path class="st0" d="M227.6,7.1c5,0,9,4,9,9v107.8c0,5-4,9-9,9h-35.1c-5,0-9-4-9-9V16.1c0-5,4-9,9-9H227.6 M227.6,6.1h-35.1
				c-5.5,0-10,4.5-10,10v107.8c0,5.5,4.5,10,10,10h35.1c5.5,0,10-4.5,10-10V16.1C237.6,10.6,233.1,6.1,227.6,6.1L227.6,6.1z"/>
		</g>
		<g>
			<path class="st1" d="M204.6,45.6c-0.5,0.7-1.1,1.6-1.1,2.4c0,1.3,1.7,1.5,2.9,1.7c0.8,0.1,2.2,0.3,4.8,0.3c4,0,6.3-0.3,7.9-0.5
				l0.4,3.3c-3.7,0.3-5.1,0.4-7.5,0.4c-0.8,0-5.3,0-8.5-1c-1.8-0.6-3.7-1.8-3.7-3.7c0-0.9,0.4-2.2,1.7-4.1L204.6,45.6z M217,38.3
				c-2.4,0.3-5,0.5-7.7,0.5c-3.7,0-5.6-0.4-7.2-1l0.9-2.9c1.7,0.4,3.4,0.7,6,0.7c2.1,0,4.8-0.2,7.8-0.7L217,38.3z M217.8,32.8
				c1.1,0.8,2.3,1.8,3.2,2.6l-1.7,1.2c-0.9-1-2-2-3.1-2.7L217.8,32.8z M220.2,31c1,0.7,2.2,1.7,3.2,2.6l-1.6,1.3
				c-0.9-0.9-2.1-1.9-3.1-2.7L220.2,31z"/>
			<path class="st1" d="M205.3,65.9c0.7-1.4,1.4-2.6,2-4.1h-5.5v2.8h-3.2v-5.4h9.6v-2.5h3.7v2.5h9.7v5.4H218v-2.9h-10.6l3.1,1.2
				c-0.2,0.4-1.3,2.4-1.5,2.9h13.2v2.7h-4.8c-0.4,1.5-1.2,3-3.1,5.5c1.9,0.8,4.8,2.3,6.2,3.1l-2,2.7c-1.9-1.3-4.3-2.6-6.6-3.6
				c-1.9,1.1-4.7,2.8-12.2,3.4c-0.3-0.9-0.8-2-1.4-2.9c2.3,0,4-0.1,6.4-0.6c0.9-0.2,2.1-0.4,3.7-1.3c-1.4-0.5-2.9-1.1-4-1.5
				l-0.6,0.8l-2.9-1.5c1-1.4,2-2.9,2.6-4h-6v-2.7H205.3z M207.6,68.6c-0.4,0.7-0.9,1.5-1.4,2.4c1.6,0.5,3.5,1.2,5.2,1.8
				c1-1.1,1.8-2.3,2.4-4.2H207.6z"/>
			<path class="st1" d="M220.5,82.4v5.7h-8.9v1.1h10.5v2.1h-10.5v0.9h7v8.8h-14.8v-8.8h4.7v-0.9h-10.9v-2.1h10.9v-1.1h-9v-5.7H220.5
				z M201.9,92.8v9h20.3v2.1h-20.3v0.7h-3.4V92.8H201.9z M202.5,84.5V86h2.8v-1.5H202.5z M206.7,93.9v0.8h8.6v-0.8H206.7z M206.7,96
				v1h8.6v-1H206.7z M206.7,98.3v1h8.6v-1H206.7z M208.2,84.5V86h3.4v-1.5H208.2z M214.4,84.5V86h2.9v-1.5H214.4z"/>
		</g>
		<g>
			<polygon class="st1" points="262.5,70 247.6,55.6 247.6,84.4 			"/>
		</g>
	</g>
	<g>
		<g>
			<path class="st0" d="M317.7,7.1c5,0,9,4,9,9v107.8c0,5-4,9-9,9h-35.1c-5,0-9-4-9-9V16.1c0-5,4-9,9-9H317.7 M317.7,6.1h-35.1
				c-5.5,0-10,4.5-10,10v107.8c0,5.5,4.5,10,10,10h35.1c5.5,0,10-4.5,10-10V16.1C327.7,10.6,323.2,6.1,317.7,6.1L317.7,6.1z"/>
		</g>
		<g>
			<path class="st1" d="M301.9,44.8c0,4.4-0.1,5.9-0.4,9.2c0.9,1.9,1.5,3,2.9,4.5c3,3.4,6.1,4.7,8.4,5.7c-1,0.8-1.7,1.8-2.3,2.9
				c-3-1.4-6.6-3.7-9.2-7.1c-0.2-0.4-0.4-0.7-1.2-2c-1.2,2.3-3.2,6.3-10.7,9.2c-0.6-1-1.2-1.9-2.1-2.7c6.8-2.4,8.6-5.5,9.5-7.4
				c1.3-3,1.3-6,1.3-12.2H301.9z M295.7,50c-1,3.4-2.3,5.7-3.2,7.1l-3-1.4c1.4-2.2,2.2-3.9,3.1-6.7L295.7,50z M310.8,50.8
				c-1.6,1.8-3.8,4.2-5.6,6.1c-0.7-0.7-1.5-1.3-2.4-2c1.8-2,3.8-4.2,5.3-6.2L310.8,50.8z"/>
			<path class="st1" d="M312,74.5l0,2H304v1.7c2.5-0.5,2.7-0.5,5.3-1.3l1.8,1.9c-2.6,0.8-5.2,1.3-7.1,1.6c0,1,0,1.1,0.5,1.1h3.2
				c1.5,0,1.6,0,1.7-0.3c0.1-0.2,0.3-0.6,0.5-1.1c0.9,0.4,1.8,0.8,2.8,1.1c-0.8,1.9-1.5,2.4-2.8,2.5c-0.3,0-4.1,0-4.8,0
				c-2.4,0-2.7,0-3.3-0.4c-0.4-0.3-0.7-0.8-0.7-1.4v-5.2h-5.2c-0.2,0.3-0.5,0.6-0.7,0.9h3.4l0.3-0.1l1.5,1.5c-1.7,2-3.3,3-4.8,3.8
				c-1.5,0.7-3.6,1.5-6.3,2c-0.3-0.8-0.7-1.4-1.4-2.1c1.6-0.2,2.2-0.3,3.9-0.8c-0.4-0.4-0.8-0.7-1.3-1c-0.5,0.2-1,0.4-1.5,0.6
				c-0.3-0.7-0.9-1.4-1.6-2.1c2-0.7,3.4-1.2,4.9-2.6h-4.1v-2H312z M297.8,83.7l-0.1,1.3h5v-1.3h3.2V85h6.2v2.2H306v4.7h-3.2v-4.7
				h-5.4c-1.1,2.9-3.9,4.4-8,4.9c-0.3-1-0.7-1.9-1.3-2.7c3.7-0.2,4.9-1.2,5.9-2.3h-6V85h6.5l0.1-1.3H297.8z M297.1,69.3v1.4h5.6
				v-1.4h3.1v1.4h6.2v2.2h-6.2V74h-3.1v-1.1h-5.6V74H294v-1.1h-5.8v-2.2h5.8v-1.4H297.1z M293.1,79l-0.4,0.2
				c0.5,0.4,1.1,0.8,1.6,1.3c0.8-0.4,1.5-0.9,2.2-1.5H293.1z"/>
		</g>
	</g>
</g>
</svg>
