<?xml version="1.0" encoding="utf-8"?>
<!-- Generator: Adobe Illustrator 26.5.0, SVG Export Plug-In . SVG Version: 6.00 Build 0)  -->
<svg version="1.1" id="レイヤー_1" xmlns="http://www.w3.org/2000/svg" xmlns:xlink="http://www.w3.org/1999/xlink" x="0px"
	 y="0px" viewBox="0 0 80 60" style="enable-background:new 0 0 80 60;" xml:space="preserve">
<style type="text/css">
	.st0{fill:#FFFFFF;}
</style>
<g>
	<g>
		<path class="st0" d="M10.41,24.3h-6l-0.15-0.12c0.76-4.4,4.95-4.84,4.95-7.34c0-0.8-0.36-1.8-1.86-1.8
			c-1.07,0-1.57,0.67-1.75,1.48l-1.2-0.06c0.3-1.14,1.11-2.24,2.98-2.24c2.14,0,2.98,1.29,2.98,2.57c0,3.19-4.01,3.42-4.74,6.58
			h4.78V24.3z"/>
		<path class="st0" d="M16.06,14.32h1.18v6.55h1.17v0.82h-1.17v2.6H16.1v-2.6h-3.97v-0.74L16.06,14.32z M16.1,20.88v-2.58
			c0-0.85,0-1.7,0.03-2.53h-0.04c-0.41,0.81-0.8,1.62-1.25,2.42l-1.58,2.69H16.1z"/>
		<path class="st0" d="M27.69,13.98v9.3H26.8v-0.91h-1.84v1.32h-0.88v-9.71H27.69z M24.95,14.86v2.9h1.84v-2.9H24.95z M24.95,18.64
			v2.86h1.84v-2.86H24.95z M32.29,12.98v1.73h2.72v0.82h-2.72v1.87h3.53v0.84h-1.76v1.64h1.51v0.84h-1.51v3.24
			c0,0.74-0.27,0.98-2.03,1.09c-0.01-0.28-0.11-0.62-0.34-1h1.28c0.12,0,0.16-0.05,0.16-0.18v-3.15H28.2v-0.84h4.93v-1.64h-5.11
			V17.4h3.35v-1.87h-2.89v-0.82h2.89v-1.73H32.29z M29.56,21.14c0.52,0.47,1.1,1.04,1.57,1.57l-0.66,0.58
			c-0.43-0.51-0.99-1.07-1.54-1.55L29.56,21.14z"/>
		<path class="st0" d="M42.66,13.33v4.15h-3.71v7.67h-0.96V13.33H42.66z M38.95,14.2v0.82h2.78V14.2H38.95z M38.95,15.81v0.82h2.78
			v-0.82H38.95z M45.57,18.58v4.97h-3.86v0.62h-0.87v-5.59H45.57z M41.71,19.43v1.24h3v-1.24H41.71z M41.71,21.41v1.28h3v-1.28
			H41.71z M48.62,13.33v10.54c0,0.88-0.32,1-1.9,1.14c-0.07-0.34-0.22-0.69-0.43-0.99h1.13c0.15,0,0.23-0.11,0.23-0.26v-6.28h-3.67
			v-4.15H48.62z M44.91,14.2v0.82h2.75V14.2H44.91z M44.91,15.81v0.82h2.75v-0.82H44.91z"/>
		<path class="st0" d="M54.63,13.06v2.28H57v0.85h-0.77c-0.21,1.44-0.51,2.65-1.15,4.14c0.25,0.28,1.66,1.88,2.12,2.45l-0.71,0.66
			c-0.49-0.66-0.93-1.24-1.83-2.21c-0.67,1.32-1.51,2.5-2.87,3.63c-0.18-0.25-0.43-0.45-0.69-0.66c1.06-0.85,1.85-1.64,2.9-3.63
			c-0.84-0.93-1.81-1.88-2.54-2.58l0.62-0.6c0.83,0.78,1.62,1.55,2.34,2.29c0.36-0.8,0.48-1.25,0.59-1.68
			c0.11-0.45,0.22-0.89,0.36-1.8h-4.19v-0.85h2.58v-2.28H54.63z M61.75,13.07v3.46h1.44v0.87h-1.44v6.42c0,0.85-0.18,0.99-1.94,1.14
			c-0.05-0.3-0.18-0.62-0.4-0.95h1.25c0.12,0,0.19-0.07,0.19-0.21v-6.4h-3.63v-0.87h3.63v-3.46H61.75z M58.03,18.77
			c0.51,0.62,1.03,1.36,1.43,2.07L58.7,21.4c-0.36-0.67-0.85-1.47-1.41-2.13L58.03,18.77z"/>
		<path class="st0" d="M71.66,12.81v1.99h4.96v0.88h-9.45c0,3.82,0,6.83-1.97,9.52c-0.21-0.3-0.48-0.58-0.78-0.74
			c1.7-2.38,1.81-4,1.81-9.66h4.49v-1.99H71.66z M69.35,19.74c-0.33,1.69-0.62,2.83-1.2,4.14l-0.92-0.38
			c0.58-1.17,0.91-2.47,1.14-3.92L69.35,19.74z M71.15,18.31v5.18c0,0.33,0.06,0.59,0.59,0.59h0.99c0.76,0,0.96-0.01,1.07-0.27
			c0.12-0.26,0.19-1.02,0.23-1.4c0.32,0.23,0.71,0.41,0.99,0.49c-0.33,2.07-0.54,2.07-2.51,2.07c-1.69,0-2.3,0-2.3-1.1v-5.57H71.15z
			 M73,18.47c-0.56-0.55-0.76-0.7-1.84-1.59l0.62-0.63c1.06,0.82,1.1,0.85,1.87,1.58L73,18.47z M75.21,19.12
			c0.65,1,1.08,1.9,1.83,3.6l-0.96,0.47c-0.48-1.31-0.96-2.39-1.69-3.57L75.21,19.12z"/>
	</g>
	<g>
		<path class="st0" d="M19.23,32.16v1.15h-1.99v3.37h2.65v1.17h-2.65v3.54h2.17v1.17H3.71v-1.17h2v-3.54H3.2v-1.17h2.52v-3.4
			c-0.74,0.93-1.48,1.61-1.99,2.12c-0.15-0.4-0.51-0.91-0.78-1.17c1.66-1.38,3.03-3.31,3.67-4.33l1.13,0.62
			c-0.4,0.59-0.87,1.27-1.17,1.65H19.23z M6.35,44.37c-0.7,1.13-1.47,2.17-2.04,2.82l-1.08-0.83c0.7-0.74,1.51-1.89,2.06-2.76
			L6.35,44.37z M6.94,33.31v3.37h2.19v-3.37H6.94z M6.94,37.85v3.54h2.19v-3.54H6.94z M9.28,43.77c0.47,0.89,0.81,1.91,1.1,2.76
			l-1.17,0.42c-0.19-0.66-0.61-1.87-1.02-2.72L9.28,43.77z M10.34,33.31v3.37h2.23v-3.37H10.34z M10.34,37.85v3.54h2.23v-3.54H10.34
			z M13.41,43.65c0.66,0.83,1.12,1.74,1.65,2.53l-1.13,0.68c-0.36-0.74-0.93-1.74-1.53-2.61L13.41,43.65z M13.77,33.31v3.37h2.25
			v-3.37H13.77z M13.77,37.85v3.54h2.25v-3.54H13.77z M17.49,43.39c0.81,0.83,1.65,2.02,2.25,2.95l-1.15,0.7
			c-0.59-0.91-1.38-2.19-2.12-2.97L17.49,43.39z"/>
		<path class="st0" d="M26.91,30.36v5.94h2.82v1.13h-2.82v1.34c0.85,0.81,1.87,1.61,2.74,2.19c-0.21,0.32-0.47,0.74-0.7,1.12
			c-0.68-0.49-1.4-1.13-2.04-1.7v6.64h-1.25v-7.13c-0.78,1.68-1.76,3.16-2.7,4.29c-0.26-0.28-0.62-0.7-1.02-0.96
			c1.27-1.46,1.68-2.1,2.4-3.46c0.28-0.55,0.62-1.19,1.06-2.33h-2.99V36.3h3.25v-5.94H26.91z M23.54,35.29
			c-0.36-0.89-0.74-1.78-1.19-2.67l1.04-0.47c0.45,0.85,0.91,1.8,1.23,2.7L23.54,35.29z M30.08,32.61
			c-0.43,0.91-0.91,1.98-1.38,2.84c-0.28-0.17-0.61-0.36-1.02-0.55c0.47-0.89,0.91-1.95,1.32-2.82L30.08,32.61z M36.91,30.3v9.97
			l2-0.4l0.23,1.19l-2.23,0.44v5.39h-1.27v-5.2l-5.07,0.89l-0.19-1.21l5.26-0.91V30.3H36.91z M33.43,39.1
			c-0.83-0.57-1.83-1.15-2.63-1.57l0.66-0.96c0.87,0.49,1.87,1.04,2.65,1.55L33.43,39.1z M33.56,34.63c-0.64-0.66-1.4-1.44-2.1-2.04
			l0.83-0.83c0.78,0.66,1.49,1.36,2.14,2.04L33.56,34.63z"/>
		<path class="st0" d="M45.49,30.34v3.67h2.44v1.13h-2.44v2.08c0.87,0.78,1.66,1.36,2.48,1.93c-0.28,0.38-0.47,0.77-0.64,1.13
			c-0.66-0.51-1.23-0.93-1.83-1.49v8.19h-1.21v-8.77c-0.95,1.97-1.44,2.8-2.76,4.69c-0.19-0.49-0.42-0.85-0.74-1.25
			c1.68-2.38,2.5-4.01,3.46-6.5h-2.87v-1.13h2.91v-3.67H45.49z M56.65,31.25V46.7H55.4v-1.15h-5.29v1.27h-1.23V31.25H56.65z
			 M50.11,32.44v3.1h5.29v-3.1H50.11z M50.11,36.73v3.14h5.29v-3.14H50.11z M50.11,41.06v3.29h5.29v-3.29H50.11z"/>
		<path class="st0" d="M66.74,33.37v1.15h-7.02v-1.15H66.74z M66.14,40.82v5.71h-1.25v-0.7h-2.93v1.21h-1.25v-6.22H66.14z M66.14,31
			v1.17h-5.31V31H66.14z M66.14,35.77v1.15h-5.31v-1.15H66.14z M66.14,38.19v1.17h-5.31v-1.17H66.14z M61.96,41.97v2.7h2.93v-2.7
			H61.96z M72.06,38.15c0,0.74-0.02,1.34-0.08,1.97c0.91,1.93,1.83,3.9,4.94,5.56c-0.36,0.4-0.57,0.83-0.74,1.21
			c-1.63-0.98-3.37-2.4-4.52-4.9c-0.42,1.29-1.13,2.89-4.29,4.86c-0.15-0.4-0.43-0.81-0.78-1.15c3.95-2.08,4.16-4.44,4.16-7.54
			H72.06z M72.06,30.34c0,0.89,0,1.61-0.06,2.38c0.32,0.81,0.53,1.25,0.74,1.59c0.72,1.23,1.68,2.55,4.31,3.84
			c-0.36,0.34-0.72,0.77-0.91,1.1c-1.95-1.08-3.46-2.44-4.56-4.63c-0.32,1.25-1.27,2.95-4.25,4.46c-0.13-0.45-0.38-0.81-0.72-1.23
			c1.34-0.49,2.53-1.34,3.29-2.55c0.83-1.36,0.85-2.44,0.85-4.95H72.06z M68.88,32.29c-0.11,0.96-0.34,1.97-0.61,2.78L67.2,34.8
			c0.25-0.81,0.47-1.87,0.64-2.76L68.88,32.29z M69.28,40c-0.25,0.93-0.55,1.89-0.93,2.72l-1.08-0.36c0.34-0.85,0.66-1.82,0.81-2.63
			L69.28,40z M76.01,32.7c-0.62,0.76-1.32,1.48-2,2.08c-0.23-0.25-0.49-0.49-0.79-0.74c0.74-0.68,1.42-1.38,1.99-2.02L76.01,32.7z
			 M76.01,40.4c-0.55,0.66-1.23,1.42-1.85,2.1c-0.23-0.27-0.49-0.53-0.81-0.78c0.61-0.62,1.34-1.49,1.78-2.06L76.01,40.4z"/>
	</g>
</g>
</svg>
