<?xml version="1.0" encoding="utf-8"?>
<!-- Generator: Adobe Illustrator 26.5.0, SVG Export Plug-In . SVG Version: 6.00 Build 0)  -->
<svg version="1.1" id="レイヤー_1" xmlns="http://www.w3.org/2000/svg" xmlns:xlink="http://www.w3.org/1999/xlink" x="0px"
	 y="0px" viewBox="0 0 100 100" style="enable-background:new 0 0 100 100;" xml:space="preserve">
<style type="text/css">
	.st0{fill:#EEEDEC;}
	.st1{fill:#444444;}
</style>
<g>
	<g>
		<g>
			<circle class="st0" cx="50" cy="50" r="50"/>
		</g>
	</g>
</g>
<g>
	<path class="st1" d="M65.5,67.7c3,2.1,5.8,3.6,8.3,4.5l-1.9,4.5c-3.5-1.3-7-3.3-10.5-6c-3.6,2-7.6,3-12,3c-4.4,0-8.4-1.1-12-3.2
		c-3.6-2.1-6.4-5.1-8.3-9c-1.9-3.9-2.9-8.2-2.9-13.1c0-4.8,1-9.2,2.9-13.2c2-4,4.7-7,8.3-9c3.6-2.1,7.6-3.1,12.1-3.1
		c4.5,0,8.6,1.1,12.2,3.2c3.6,2.1,6.4,5.1,8.3,9c1.9,3.9,2.8,8.2,2.8,13c0,4-0.6,7.6-1.8,10.8C69.8,62.6,68,65.4,65.5,67.7z
		 M51.3,59.5c3.7,1,6.8,2.6,9.2,4.7c3.8-3.5,5.7-8.7,5.7-15.6c0-4-0.7-7.4-2-10.4c-1.3-3-3.3-5.2-5.9-6.9c-2.6-1.6-5.5-2.4-8.7-2.4
		c-4.8,0-8.8,1.6-12,4.9c-3.2,3.3-4.8,8.2-4.8,14.8c0,6.4,1.6,11.2,4.7,14.6c3.1,3.4,7.2,5.1,12,5.1c2.3,0,4.5-0.4,6.5-1.3
		c-2-1.3-4.2-2.2-6.4-2.8L51.3,59.5z"/>
</g>
</svg>
