<?xml version="1.0" encoding="utf-8"?>
<!-- Generator: Adobe Illustrator 26.3.1, SVG Export Plug-In . SVG Version: 6.00 Build 0)  -->
<svg version="1.1" id="レイヤー_1" xmlns="http://www.w3.org/2000/svg" xmlns:xlink="http://www.w3.org/1999/xlink" x="0px"
	 y="0px" viewBox="0 0 800 200" style="enable-background:new 0 0 800 200;" xml:space="preserve">
<style type="text/css">
	.st0{fill:#C85554;}
	.st1{enable-background:new    ;}
	.st2{fill:#1E4164;}
</style>
<g id="ロゴ03">
	<path class="st0" d="M125.9,84.7c-4.2-12.8-16.1-21.5-29.6-21.5c-1.3-4-3.4-7.7-6.2-10.9c-0.4,0-0.8,0.1-1.3,0.1
		c0.4-0.1,0.8-0.1,1.3-0.1c-11.4-12.9-31-14.2-43.9-2.9c-4.2,3.7-7.3,8.5-9.1,13.7l0,0C20,63.2,6,77.1,6,94.4
		c0,9.9,4.8,19.3,12.8,25.2c-1.3,4-1.8,8.2-1.4,12.5l0,0c1.6,17.1,16.7,29.8,33.8,28.1c5.6-0.5,10.9-2.5,15.4-5.9
		c3.4,2.5,7.3,4.2,11.4,5.1l0,0c16.8,3.8,33.4-6.7,37.2-23.5c1.3-5.5,1-11.2-0.8-16.5C125.6,111.6,130.1,97.5,125.9,84.7z
		 M117.9,101.8L117.9,101.8L117.9,101.8z M117.1,101l-0.3-0.2L117.1,101z M116.3,100.2l-0.3-0.3L116.3,100.2z M115.4,99.5
		c-0.1-0.1-0.1-0.1-0.3-0.2C115.3,99.4,115.3,99.4,115.4,99.5L115.4,99.5z M114.3,98.6L114.3,98.6L114.3,98.6z M113.4,98l-0.3-0.2
		L113.4,98z M112.5,97.3l-0.4-0.2L112.5,97.3z M111.5,96.8l-0.3-0.1L111.5,96.8z M110.1,96.1L110.1,96.1L110.1,96.1z M109.2,95.6
		l-0.4-0.1L109.2,95.6z M108.2,95.2l-0.4-0.1L108.2,95.2z M107,94.8l-0.3-0.1L107,94.8z M105.6,94.4L105.6,94.4L105.6,94.4z
		 M104.6,94.1l-0.4-0.1L104.6,94.1z M103.5,93.9l-0.4-0.1L103.5,93.9z M102.3,93.7l-0.4-0.1L102.3,93.7z M100.9,93.6L100.9,93.6
		L100.9,93.6z M99.8,93.5h-0.4H99.8z M98.7,93.5L98.7,93.5z M67.1,89.8L67.1,89.8L67.1,89.8L67.1,89.8L67.1,89.8
		c0.2,0.6,1.3,3.8,0,8.3v0.1v-0.1v0.1v-0.1C65.8,93.5,66.9,90.3,67.1,89.8L67.1,89.8z M71.7,101.5L71.7,101.5c4-2.8,7.4-2.7,8.1-2.7
		h0.1h-0.1h0.1h-0.1C79.3,99.2,76.6,101.2,71.7,101.5L71.7,101.5L71.7,101.5L71.7,101.5z M79.6,68.1l0.5-0.3L79.6,68.1z M71.6,75.6
		c0.1-0.2,0.3-0.4,0.4-0.6C71.9,75.2,71.7,75.4,71.6,75.6L71.6,75.6z M72.6,74.2c0.1-0.1,0.2-0.3,0.4-0.4
		C72.9,73.9,72.8,74,72.6,74.2L72.6,74.2z M74,72.6l0.4-0.4L74,72.6z M75.2,71.5l0.5-0.4L75.2,71.5z M76.7,70.2L77,70L76.7,70.2z
		 M78.2,69l0.4-0.4L78.2,69z M70.1,106.8L70.1,106.8c3.8,3,4.8,6.2,5,6.8l0.1,0.1h-0.1v0.1l-0.1-0.1
		C74.5,113.3,71.7,111.4,70.1,106.8L70.1,106.8L70.1,106.8L70.1,106.8L70.1,106.8z M70.6,76.9c0.1-0.2,0.3-0.4,0.4-0.6
		C70.9,76.5,70.7,76.7,70.6,76.9L70.6,76.9z M78.1,138.9c-0.1,0.3-0.2,0.5-0.3,0.8C77.9,139.4,77.9,139.1,78.1,138.9L78.1,138.9z
		 M77.4,140.6c-0.1,0.2-0.2,0.5-0.3,0.7C77.2,141,77.4,140.8,77.4,140.6L77.4,140.6z M76.7,142.2c-0.1,0.2-0.2,0.4-0.4,0.7
		C76.5,142.7,76.7,142.4,76.7,142.2z M75.9,143.8c-0.1,0.2-0.2,0.4-0.4,0.6C75.7,144.2,75.8,144,75.9,143.8z M79.5,129.3
		c0-2-0.1-4-0.6-5.9l0,0C79.4,125.4,79.6,127.4,79.5,129.3L79.5,129.3z M79.5,129.7c0,0.4,0,0.8-0.1,1.2
		C79.5,130.5,79.5,130.1,79.5,129.7L79.5,129.7z M79.5,131.4c0,0.4-0.1,0.8-0.1,1.1C79.5,132.1,79.5,131.7,79.5,131.4L79.5,131.4z
		 M79.3,133c-0.1,0.4-0.1,0.7-0.1,1.1C79.3,133.8,79.3,133.3,79.3,133L79.3,133z M79.1,134.7c-0.1,0.4-0.1,0.7-0.2,1.1
		C79,135.4,79,135,79.1,134.7L79.1,134.7z M78.8,136.2c-0.1,0.6-0.3,1.2-0.5,1.8C78.5,137.4,78.6,136.9,78.8,136.2L78.8,136.2z
		 M82.2,123.1C82.2,123,82.1,123,82.2,123.1L82.2,123.1L82.2,123.1z M81.4,67L81.4,67L81.4,67z M83,66.1l0.5-0.2L83,66.1z
		 M84.6,65.4l0.5-0.2L84.6,65.4z M97.4,93.5H97H97.4z M95.9,93.6L95.9,93.6L95.9,93.6z M94.8,93.9c-0.1,0-0.2,0.1-0.4,0.1
		C94.6,93.9,94.6,93.9,94.8,93.9L94.8,93.9z M93.6,94.1l-0.4,0.1L93.6,94.1z M92.4,94.4L92,94.5L92.4,94.4z M94.1,61.6
		c-2.7,0.2-5.3,0.7-7.8,1.6c-7.6,2.5-14,7.7-18.1,14.6c-0.4,0-0.7-0.1-1-0.1c0.1-12.5,9.9-22.8,22.4-23.8
		C91.4,56.3,93,58.9,94.1,61.6L94.1,61.6z M87.7,52.5l0.8-0.1L87.7,52.5z M74.5,58.5L74.5,58.5L74.5,58.5z M75.5,57.8L75.5,57.8
		L75.5,57.8z M76.4,57.1l0.2-0.1L76.4,57.1z M77.4,56.3l0.3-0.1L77.4,56.3z M78.4,55.7c0.1-0.1,0.2-0.1,0.3-0.1
		C78.6,55.6,78.5,55.6,78.4,55.7L78.4,55.7z M79.5,55.1l0.4-0.1L79.5,55.1z M80.5,54.7c0.1-0.1,0.3-0.1,0.4-0.1
		C80.8,54.5,80.7,54.6,80.5,54.7L80.5,54.7z M81.7,54.2c0.1-0.1,0.3-0.1,0.5-0.1C82,54,81.8,54.1,81.7,54.2L81.7,54.2z M82.8,53.7
		l0.6-0.1L82.8,53.7z M84,53.3l0.6-0.1L84,53.3z M85.2,53c0.2-0.1,0.4-0.1,0.6-0.1C85.6,52.9,85.4,53,85.2,53L85.2,53z M86.4,52.8
		l0.7-0.1L86.4,52.8z M72.8,60.1L72.8,60.1L72.8,60.1z M73.7,59.2L73.7,59.2L73.7,59.2z M71.9,61L71.9,61z M54.5,98.9L54.5,98.9
		c0.6,0,4.1-0.1,8,2.6l0.1,0.1h-0.1l0.1,0.1l-0.1-0.1C57.8,101.4,55,99.4,54.5,98.9L54.5,98.9L54.5,98.9L54.5,98.9z M53.5,124.2
		c-0.1,0.1-0.1,0.1-0.1,0.3C53.5,124.3,53.5,124.3,53.5,124.2L53.5,124.2z M19.7,122.1c5.2,3.2,11.2,5,17.3,5
		c5.2,0,10.4-1.3,14.9-3.7c-0.3,0.4-0.6,0.8-0.8,1.2c-4.6,6.3-11.8,10-19.6,10c-4.4,0-8.9-1.3-12.7-3.6C18.8,128,19,125,19.7,122.1
		L19.7,122.1z M41.7,125.1c-0.4,0.1-0.8,0.1-1.3,0.1C40.9,125.2,41.3,125.2,41.7,125.1L41.7,125.1z M40.1,125.3
		c-0.4,0-0.8,0.1-1.1,0.1C39.4,125.4,39.8,125.4,40.1,125.3L40.1,125.3z M38.6,125.4c-0.5,0-1,0.1-1.5,0.1s-1,0-1.4-0.1
		C36.7,125.4,37.7,125.4,38.6,125.4L38.6,125.4z M49.4,123c-0.9,0.4-1.8,0.7-2.7,1.1C47.5,123.7,48.4,123.3,49.4,123z M46.3,124
		c-0.4,0.1-0.8,0.2-1.2,0.4C45.6,124.3,45.9,124.2,46.3,124L46.3,124z M44.9,124.5c-0.4,0.1-0.8,0.2-1.3,0.3
		C44,124.7,44.4,124.6,44.9,124.5L44.9,124.5z M43.4,124.8c-0.5,0.1-1,0.2-1.5,0.3C42.5,125,42.9,124.9,43.4,124.8L43.4,124.8z
		 M35.3,125.4c-0.4,0-0.8-0.1-1.1-0.1C34.6,125.4,35,125.4,35.3,125.4L35.3,125.4z M33.9,125.2c-0.5-0.1-1-0.1-1.4-0.2
		C32.9,125.2,33.4,125.2,33.9,125.2L33.9,125.2z M32.4,125.1c-0.5-0.1-1-0.1-1.5-0.3C31.4,125,31.9,125,32.4,125.1L32.4,125.1z
		 M30.5,124.7c-0.4-0.1-0.7-0.1-1.1-0.3C29.8,124.6,30.1,124.6,30.5,124.7L30.5,124.7z M29,124.3c-0.5-0.1-1-0.3-1.5-0.4
		C28,124.1,28.5,124.3,29,124.3L29,124.3z M26.5,83.7c0.3,0.6,0.6,1.2,0.9,1.8C27,84.9,26.7,84.3,26.5,83.7L26.5,83.7z M26.4,123.5
		c-0.8-0.3-1.6-0.6-2.3-0.9C24.8,122.9,25.5,123.3,26.4,123.5L26.4,123.5z M51,122.2c0.4-0.2,0.8-0.4,1.2-0.6
		C51.8,121.8,51.3,122,51,122.2z M49.6,122.8c0.4-0.1,0.8-0.4,1.1-0.6C50.4,122.5,49.9,122.7,49.6,122.8L49.6,122.8z M44,94
		c-1.3-1.3-2.4-2.8-3.4-4.4C41.6,91.2,42.7,92.7,44,94z M37.2,82.6c-0.1-0.3-0.1-0.6-0.3-0.8C37,82.1,37.2,82.4,37.2,82.6z
		 M40.4,89.4c-0.2-0.4-0.4-0.7-0.6-1.1C40,88.7,40.2,89,40.4,89.4L40.4,89.4z M39.6,88.1C39,87,38.5,86,38,84.9
		C38.5,86,39.1,87,39.6,88.1L39.6,88.1z M37.8,84.2c-0.1-0.3-0.2-0.6-0.4-0.8C37.6,83.6,37.7,83.9,37.8,84.2z M36.7,80.8
		c-0.1-0.2-0.1-0.4-0.1-0.6C36.5,80.5,36.6,80.6,36.7,80.8L36.7,80.8z M36.2,78.7c-0.1-0.2-0.1-0.4-0.1-0.6
		C36.1,78.3,36.1,78.5,36.2,78.7L36.2,78.7z M35.9,76.9c0-0.2-0.1-0.4-0.1-0.6C35.8,76.5,35.9,76.7,35.9,76.9L35.9,76.9z M35.7,75.1
		c0-0.2,0-0.4-0.1-0.6C35.7,74.8,35.7,75,35.7,75.1L35.7,75.1z M26.2,66.9c2.8-1.1,5.8-1.8,8.8-2c-2.7,11,0.4,22.7,8.4,30.8
		l-0.1,0.2c-0.4-0.1-0.7-0.2-1-0.3C30.3,91.7,23.2,79.2,26.2,66.9L26.2,66.9z M22.9,122.1c-0.7-0.4-1.4-0.8-2.1-1.2
		C21.5,121.3,22.2,121.6,22.9,122.1L22.9,122.1z M18.7,132.8l-0.3-0.1L18.7,132.8z M19.5,133.2l0.3,0.1L19.5,133.2z M20.7,133.8
		l0.1,0.1L20.7,133.8z M21.8,134.3l0.3,0.1L21.8,134.3z M22.9,134.8l0.4,0.1L22.9,134.8z M24.1,135.1l0.2,0.1L24.1,135.1z
		 M25.3,135.5l0.3,0.1L25.3,135.5z M30,136.2h0.4H30z M26.4,135.7l0.4,0.1L26.4,135.7z M27.6,136l0.3,0.1L27.6,136z M29,136.1h0.3
		H29z M31.2,136.2L31.2,136.2z M48.4,130.1c0.3-0.3,0.6-0.6,0.9-0.8C49,129.5,48.7,129.8,48.4,130.1L48.4,130.1z M31.9,136.2h1H31.9
		z M33.4,136.2c0.3,0,0.6-0.1,0.9-0.1C34.1,136.1,33.7,136.2,33.4,136.2L33.4,136.2z M34.8,136.1c0.4-0.1,0.7-0.1,1.1-0.1
		C35.5,136,35.2,136,34.8,136.1L34.8,136.1z M36.1,135.9c0.4-0.1,0.9-0.1,1.3-0.3C37.1,135.7,36.6,135.7,36.1,135.9L36.1,135.9z
		 M37.8,135.5c0.4-0.1,0.7-0.1,1-0.3C38.5,135.3,38.2,135.4,37.8,135.5L37.8,135.5z M39.3,135.1c0.3-0.1,0.6-0.2,0.8-0.3
		C39.9,134.9,39.6,135,39.3,135.1L39.3,135.1z M40.6,134.7c0.3-0.1,0.6-0.2,0.9-0.4C41.3,134.4,41,134.5,40.6,134.7L40.6,134.7z
		 M41.9,134.1c0.4-0.2,0.8-0.4,1.3-0.6C42.7,133.8,42.3,133.9,41.9,134.1L41.9,134.1z M43.4,133.4c0.4-0.1,0.6-0.4,1-0.6
		C44.1,133.1,43.7,133.3,43.4,133.4L43.4,133.4z M44.8,132.6c0.3-0.1,0.6-0.4,0.8-0.5C45.3,132.4,45.1,132.5,44.8,132.6L44.8,132.6z
		 M46,131.9c0.3-0.2,0.6-0.4,0.8-0.6C46.5,131.5,46.3,131.7,46,131.9L46,131.9z M47.1,131.1c0.4-0.3,0.7-0.6,1.1-0.8
		C47.9,130.5,47.5,130.8,47.1,131.1L47.1,131.1z M49.6,129c0.2-0.2,0.5-0.4,0.7-0.7C50.1,128.5,49.9,128.7,49.6,129L49.6,129z
		 M51.3,127.1c-0.2,0.3-0.4,0.6-0.6,0.8C50.9,127.6,51.1,127.4,51.3,127.1L51.3,127.1z M51.6,126.8c0.3-0.4,0.6-0.8,0.9-1.2l0,0
		C52.3,126,52,126.4,51.6,126.8L51.6,126.8z M64.3,107c-1.6,4.4-4.4,6.4-4.9,6.8l-0.1,0.1c0,0,0,0,0-0.1h-0.1l0.1-0.1
		C59.5,113.2,60.5,109.9,64.3,107L64.3,107C64.3,106.9,64.3,106.9,64.3,107L64.3,107L64.3,107z M64.7,103c0-1.3,1.1-2.5,2.5-2.5
		s2.5,1.1,2.5,2.5c0,1.3-1.1,2.5-2.5,2.5l0,0C65.8,105.4,64.7,104.3,64.7,103L64.7,103z M73.6,147.4L73.6,147.4
		c-1.2,1.7-2.6,3.2-4.1,4.6C71,150.7,72.4,149.1,73.6,147.4L73.6,147.4z M75,145.5l-0.3,0.6L75,145.5z M77.7,157.8
		c-3-0.8-5.7-1.9-8.3-3.5c8.8-7.4,13.1-18.9,11.3-30.3c0.4,0.4,0.6,0.8,0.9,1.2C89.1,135.3,87.4,149.6,77.7,157.8L77.7,157.8z
		 M87.2,145.2c-0.2,0.8-0.4,1.6-0.6,2.3C86.7,146.7,87,146,87.2,145.2s0.4-1.6,0.4-2.4C87.5,143.6,87.4,144.4,87.2,145.2L87.2,145.2
		z M103.2,103.9c0.2,0.1,0.4,0.4,0.7,0.5C103.7,104.2,103.4,104,103.2,103.9z M91.4,98.7c1.8,0.4,3.6,0.9,5.3,1.6
		C95,99.6,93.2,99.1,91.4,98.7z M96.8,100.3c0.4,0.1,0.8,0.4,1.1,0.5C97.5,100.6,97.2,100.5,96.8,100.3L96.8,100.3z M98.2,100.9
		c0.4,0.1,0.7,0.4,1.1,0.6C98.9,101.3,98.6,101.1,98.2,100.9L98.2,100.9z M99.4,101.5c0.6,0.4,1.3,0.7,2,1.1
		C100.8,102.3,100.1,101.9,99.4,101.5L99.4,101.5z M101.9,103l0.8,0.6L101.9,103z M104.7,104.9c0.2,0.1,0.4,0.3,0.6,0.4
		C105,105.2,104.9,105.1,104.7,104.9z M106.4,106.5l0.4,0.4L106.4,106.5z M110.3,110.9c0.5,0.7,1,1.3,1.4,2
		C111.2,112.2,110.7,111.5,110.3,110.9L110.3,110.9z M107.6,107.7c0.1,0.1,0.3,0.3,0.4,0.4C107.9,108,107.7,107.8,107.6,107.7
		L107.6,107.7z M108.9,109c0.1,0.1,0.2,0.3,0.4,0.4C109.1,109.3,108.9,109.2,108.9,109L108.9,109z M115.4,116.9
		c-4.2-10.3-13.3-17.8-24.2-19.9c0-0.2-0.1-0.4-0.1-0.6l0.3-0.1c12.1-3.9,25.1,2.1,29.9,13.8C119.7,112.7,117.8,114.9,115.4,116.9
		L115.4,116.9z M118.7,102.7l0.2,0.3L118.7,102.7z M119.4,103.5c0.1,0.1,0.1,0.2,0.2,0.3C119.5,103.7,119.5,103.7,119.4,103.5
		L119.4,103.5z M120.1,104.5l0.2,0.3L120.1,104.5z M120.9,105.7L120.9,105.7z M122.6,108.8c0.1,0.1,0.1,0.2,0.1,0.4
		C122.6,109,122.6,108.9,122.6,108.8L122.6,108.8z M121.5,106.7c0.1,0.1,0.1,0.2,0.1,0.3C121.6,106.9,121.5,106.8,121.5,106.7
		L121.5,106.7z M122,107.8l0.2,0.4L122,107.8z"/>
</g>
<g>
	<g>
		<g class="st1">
			<path class="st2" d="M192.8,168.9c-1.5,0-2.2-0.6-2.2-1.8c0-0.4,0-1.6,0.1-3.7c0.1-2.1,0.2-4.6,0.3-7.6s0.2-6,0.3-9.2
				s0.1-6,0.1-8.5c-1.9,1.4-3.9,2.8-5.9,4c-2,1.3-4,2.4-6,3.5c-0.9-0.2-1.3-0.7-1.1-1.6c4.1-3,8.4-6.5,12.9-10.6
				c-0.1-2.1-0.2-3.7-0.3-4.9s-0.3-2.1-0.6-2.8c-0.1-0.5,0-0.9,0.2-1.1c0.3-0.3,0.7-0.4,1.2-0.2c0.7,0.3,1.6,0.6,2.7,1.1
				c1.1,0.5,2.2,0.9,3.2,1.4c1.4-1.5,2.8-3,4.2-4.5s2.6-3.1,3.9-4.7c-1.6,0-3.2,0-4.7,0s-2.9,0-4.3,0c-2.2,0-4.1,0-5.6,0s-2.5,0-3,0
				c-3.3,0.1-6,0.2-7.8,0.5l-1-4.2c2.4,0.4,5.3,0.6,8.8,0.8h10.3v-15c-0.8,0-1.6,0-2.4,0s-1.5,0-2.1,0c-1,0-1.9,0-2.7,0
				c-0.7,0-1.2,0-1.5,0c-2.8,0.1-5.1,0.2-7,0.5l-1-4.2c2.3,0.5,4.9,0.7,7.9,0.9h8.7v-9.4c0-2.4-0.2-3.9-0.7-4.5
				c-0.3-0.4-0.3-0.8,0-1.1c0.3-0.3,0.6-0.4,1-0.4c0.8,0.1,1.8,0.2,3.2,0.4c1.4,0.2,2.7,0.4,4.1,0.7c1.4,0.3,2.5,0.5,3.2,0.7
				s1,0.7,0.9,1.4c-0.1,0.6-0.5,1-1.3,1.2c-0.6,0.1-1.2,0.2-1.7,0.5s-0.8,0.8-0.8,1.6V97h0.9c0.5,0,1-0.2,1.4-0.7
				c0.3-0.4,0.8-1,1.3-1.8c0.5-0.7,0.9-1.3,1.2-1.6c0.4-0.6,1-0.6,1.7-0.1c0.8,0.6,1.7,1.4,2.7,2.3c1,1,1.9,1.8,2.5,2.5
				c0.6-1.2,1.1-2.6,1.6-4.2c0.5-1.5,0.9-3,1.3-4.3c0.4-1.4,0.5-2.3,0.4-3c0-0.4,0.1-0.7,0.4-0.9c0.3-0.2,0.7-0.2,1.1,0
				c0.8,0.3,1.9,0.8,3.1,1.4c1.3,0.6,2.5,1.2,3.7,1.8c1.2,0.6,2.2,1.2,3,1.7c0.3,0.1,0.5,0.3,0.5,0.6c0,0.3,0,0.6-0.1,0.8
				c-0.3,0.7-0.7,0.9-1.4,0.7c-0.8-0.1-1.5,0-1.9,0.2c-0.5,0.3-0.8,0.8-1.2,1.6c-1.8,3.8-3.8,7.4-5.8,10.9c-2.1,3.4-4.3,6.7-6.7,9.8
				h4c0.7,0,1.3-0.2,1.6-0.7c0.3-0.4,0.9-1.2,1.8-2.3c0.9-1.1,1.5-1.8,1.8-2.2c0.5-0.6,1.1-0.7,1.8-0.1c0.6,0.4,1.3,1,2.1,1.7
				s1.7,1.5,2.5,2.3s1.4,1.4,1.8,1.9s0.6,1,0.4,1.5s-0.5,0.7-1,0.7h-19.2c-1.5,1.9-3.1,3.7-4.8,5.4c-1.6,1.7-3.3,3.4-5.1,5H214
				c0.5,0,0.9-0.2,1.3-0.6c0.3-0.3,0.7-0.7,1.2-1.3c0.5-0.5,0.9-1,1.2-1.4c0.5-0.6,1.2-0.6,1.9-0.2c0.9,0.5,2.1,1.2,3.7,2.1
				c1.6,1,2.8,1.8,3.6,2.5c0.5,0.4,0.7,0.8,0.6,1.4c-0.1,0.5-0.5,0.9-1.1,1.3c-0.3,0.1-0.5,0.3-0.8,0.4c-0.3,0.1-0.6,0.3-0.8,0.4
				c-0.6,0.4-0.9,1.1-0.9,2.1c0,1.9,0,4.2,0.1,6.7s0.1,5.1,0.2,7.6c0.1,2.6,0.1,5,0.2,7.2c0.1,2.3,0.1,4.1,0.2,5.6s0.1,2.3,0.1,2.6
				c0,0.7-0.7,1.4-2,2.1s-2.9,1-4.7,1c-0.7,0-1.3-0.1-1.6-0.4c-0.4-0.3-0.6-0.7-0.6-1.4v-2.8h-16.4v3.1c0,0.8-0.7,1.5-2.1,2.1
				C196,168.6,194.4,168.9,192.8,168.9z M199.4,143.5h16.4v-12.6h-15.4c-0.2,0.2-0.4,0.4-0.6,0.5c-0.2,0.2-0.4,0.3-0.5,0.4v11.7
				L199.4,143.5L199.4,143.5z M199.4,159.9h16.4v-13.5h-16.4V159.9z M206.4,114.7h1.5c1.7-2.4,3.4-4.8,4.9-7.3s2.9-5.1,4.2-7.6
				h-10.6L206.4,114.7L206.4,114.7z M235.6,168.9c-1.4,0-2.1-0.6-2.1-1.9c0-0.4,0-2,0.1-4.8s0.2-6.6,0.3-11.3s0.2-10.2,0.3-16.4
				s0.1-12.9,0.1-20.1c0-7,0-12.4-0.1-16.3s-0.2-6.8-0.3-8.6c-0.1-1.8-0.4-3.1-0.7-3.8c-0.1-0.4-0.1-0.8,0.2-1
				c0.3-0.3,0.6-0.3,1.1-0.2c0.6,0.2,1.4,0.5,2.5,1s2.2,1,3.3,1.5s2.1,1,2.8,1.5h9c0.5,0,0.9-0.2,1.3-0.6c0.1-0.1,0.5-0.6,1.2-1.3
				s1-1.2,1.1-1.5c0.5-0.6,1.1-0.7,1.7-0.4c0.6,0.3,1.6,0.8,2.8,1.5c1.2,0.7,2.4,1.4,3.7,2.2c1.3,0.8,2.3,1.4,3,2
				c0.6,0.5,0.8,1,0.6,1.7c-0.2,0.6-0.7,1-1.5,1.1c-0.9,0.1-1.5,0.2-1.9,0.5s-0.9,0.9-1.4,1.8c-0.9,1.3-2,3-3.2,5
				c-1.2,2.1-2.4,4.2-3.7,6.4c-1.2,2.2-2.3,4.2-3.2,5.9c-0.9,1.7-1.6,3-1.9,3.7c-0.5,1.1-0.3,1.9,0.6,2.4c2.8,1.5,5.5,3.5,8,5.8
				c2.5,2.4,4.5,5,6,7.8c1.5,2.9,2.3,5.9,2.3,9.1c0,5.7-1.4,10-4.2,12.7c-2.8,2.7-6.5,4.4-11.2,5.1c-0.5-2.4-1-4.2-1.7-5.5
				s-1.6-2.2-2.8-2.8s-2.8-1-4.9-1.3c-0.5-0.8-0.4-1.5,0.4-2c1.2,0.1,2.7,0.3,4.3,0.4c1.6,0.1,3.2,0.2,4.6,0.2c4.3,0,6.5-3,6.5-9
				c0-4.1-0.9-7.9-2.8-11.3c-1.9-3.4-4.2-6.1-7.1-8c-0.5-0.4-0.9-0.8-1.1-1.3s-0.2-1.1,0.1-2c0.3-0.8,0.6-2.1,1-3.8
				c0.4-1.7,0.9-3.6,1.4-5.7s1-4.3,1.4-6.4c0.5-2.2,0.9-4.1,1.3-5.8s0.7-3,0.9-3.9H242v74.4c0,0.8-0.6,1.4-1.9,2
				C238.8,168.6,237.3,168.9,235.6,168.9z"/>
			<path class="st2" d="M284.8,168.6c-0.8,0.3-1.3,0.1-1.5-0.5c-0.4-0.8-1-2-2-3.6c-0.9-1.6-1.9-3.2-2.8-4.9
				c-0.9-1.6-1.6-2.8-2.1-3.5c-0.2-0.3-0.2-0.6,0.1-0.9c0.2-0.2,0.5-0.3,1.1-0.3c0.4-0.1,1-0.1,1.7-0.1s1.5-0.1,2.4-0.1
				c2.1-0.2,4.3-0.5,6.7-0.9V97.3c0-3.8-0.1-6.7-0.3-8.6c-0.2-1.9-0.5-3.3-0.8-4.2c-0.2-0.3-0.1-0.6,0.2-1c0.3-0.3,0.6-0.3,1.1-0.1
				c0.8,0.3,1.8,0.7,3,1.2s2.5,1.1,3.8,1.7s2.5,1.2,3.4,1.7h43.8c0.6,0,1-0.2,1.3-0.7c0.3-0.4,0.7-0.9,1.2-1.5
				c0.4-0.6,0.9-1.2,1.3-1.6c0.4-0.6,1.1-0.7,1.8-0.3c0.7,0.3,1.6,0.7,2.7,1.3s2.1,1.2,3.2,1.8c1.1,0.6,1.9,1.1,2.7,1.6
				c0.5,0.3,0.8,0.7,0.8,1.3c0,0.6-0.3,1.1-1,1.4c-0.3,0.1-0.6,0.3-0.9,0.4s-0.6,0.3-0.9,0.5c-0.8,0.5-1.3,1.4-1.3,2.7
				c0,1.9,0.1,4.1,0.2,6.5s0.3,4.6,0.4,6.4c0.1,1.9,0.2,3,0.2,3.5c0,0.9-0.9,1.6-2.6,2.2c-1.7,0.5-3.4,0.8-5.1,0.8
				c-1.5,0-2.3-0.7-2.3-2v-2.5h-18.8c0.1,2.8,0.3,5.5,0.6,8c0.3,2.5,0.7,4.9,1.1,7.1h19.6c0.8,0,1.4-0.2,1.8-0.7
				c0.3-0.3,0.7-0.8,1.3-1.5c0.6-0.7,1.2-1.4,1.8-2.1c0.6-0.7,1-1.2,1.2-1.4c0.6-0.6,1.4-0.7,2.1-0.3c0.7,0.4,1.6,1,2.7,1.8
				s2.2,1.7,3.2,2.5s1.8,1.5,2.2,1.9c0.5,0.6,0.7,1.2,0.5,1.7s-0.5,0.9-1.1,0.9h-34.7c1.5,5.6,3.4,10.3,5.8,14s5.1,6.6,8,8.8
				c3,2.2,6,3.9,9,5c1.1,0.5,2,0.6,2.8,0.4c0.7-0.2,1.4-0.8,2.1-1.8c0.4-0.6,0.9-1.6,1.5-2.9c0.6-1.3,1.2-2.6,1.9-4.1
				c0.6-1.4,1.2-2.7,1.7-3.9s0.8-2,1-2.5c1-0.4,1.6-0.3,1.9,0.5c-0.1,0.5-0.2,1.4-0.5,2.8c-0.3,1.3-0.5,2.8-0.8,4.4
				c-0.3,1.6-0.5,3.1-0.8,4.5s-0.4,2.4-0.5,3c-0.1,1.1-0.1,1.9,0,2.4s0.6,1.1,1.4,1.8c1,0.9,1.7,1.9,1.9,3.1c0.2,1.2,0,2.2-0.6,3.1
				c-0.6,1-1.9,1.7-3.8,1.9s-4.2-0.1-6.9-0.9c-3-1-6.1-2.4-9.4-4.2s-6.6-4.2-9.8-7.2c-3.2-3-6.1-6.8-8.6-11.4
				c-2.6-4.6-4.6-10.2-6.1-16.8h-21.5v24.7c3.6-0.6,7.2-1.2,10.8-1.8c3.6-0.6,7-1.3,10-1.8c3.1-0.6,5.6-1.1,7.6-1.4
				c0.3,0.1,0.5,0.4,0.7,0.8c0.1,0.4,0.1,0.8-0.1,1.2c-1.7,0.6-3.9,1.5-6.5,2.5s-5.5,2.1-8.5,3.3c-3.1,1.2-6.2,2.3-9.2,3.5
				c-3.1,1.2-5.9,2.2-8.5,3.2s-4.8,1.8-6.6,2.4c-1.2,0.4-1.7,1.4-1.4,3.1C285.7,167.8,285.4,168.2,284.8,168.6z M297.3,106.8H344
				V90.9h-46.7V106.8z M297.3,124.9h20.9c-0.5-2.3-0.8-4.6-1.1-7.2c-0.3-2.5-0.5-5.2-0.6-8h-19.2L297.3,124.9L297.3,124.9z"/>
			<path class="st2" d="M413.7,162.2c-0.8-0.8-0.9-1.5-0.3-2.3c4.4-0.7,8.5-2,12.5-3.9c3.9-1.9,7.4-4.3,10.4-7.2s5.4-6.3,7.1-10.2
				s2.6-8.2,2.6-12.9c0-6.2-1.2-11.6-3.5-16.1c-2.4-4.5-5.6-8-9.8-10.4c-4.2-2.4-9.1-3.7-14.8-3.7c0.6,1.4,1.1,3,1.3,4.6
				c0.2,1.7,0.3,3.4,0.2,5.1c-0.3,5.8-1.1,11.3-2.6,16.7c-1.4,5.3-3.3,10.1-5.4,14.3c-2.2,4.2-4.4,7.8-6.7,10.5
				c-2.3,2.8-4.5,4.5-6.5,5.3c-1.7,0.8-3.4,1.2-5.3,1s-3.6-1.3-5.2-3.2c-1.3-1.5-2.5-3.2-3.8-4.9c-1.2-1.7-2.2-3.7-3-6
				s-1.2-5.1-1.3-8.4c-0.1-4.8,0.8-9.5,2.7-14.1c1.9-4.6,4.5-8.7,7.9-12.4c3.4-3.7,7.4-6.6,12.1-8.8c4.6-2.2,9.7-3.4,15.2-3.5
				c5.3-0.1,10.3,0.6,14.9,2.3c4.6,1.6,8.6,4,12.1,7.1c3.4,3.1,6.1,6.8,8,11.1c1.9,4.2,2.8,8.9,2.8,14.1c0,5.4-1.1,10.3-3.2,14.6
				s-5.1,8-8.9,11.1s-8.2,5.5-13.2,7.2C424.9,160.8,419.5,161.9,413.7,162.2z M396.1,142.8c1.7-0.5,3.5-2,5.5-4.5s3.9-5.6,5.8-9.4
				c1.9-3.8,3.4-7.9,4.7-12.4c1.3-4.5,2-9,2.2-13.5c0-0.3,0-0.6,0-0.9s0-0.6,0-0.8c0-1.1,0-2.1,0-3s0-1.8-0.1-2.7
				c-5.2,0.6-9.9,2.5-14,5.7c-4.1,3.3-7.3,7.4-9.6,12.5c-2.3,5.1-3.4,10.6-3.2,16.8c0.1,5,1,8.4,2.8,10.3
				C391.9,142.8,393.9,143.4,396.1,142.8z"/>
			<path class="st2" d="M500.8,159.1c-1.4,0.5-2.6,0.4-3.6-0.1s-1.6-1.6-1.9-3.2c-0.1-0.9-0.7-1.9-2-3s-2.8-2.1-4.6-2.9
				c-1.3,1.3-2.3,2.4-3.1,3.4c-1,1.2-2.3,1.8-3.8,1.8c-1.5,0.1-2.8-0.6-3.9-1.9c-0.8-1-1.7-1.9-2.5-2.6c-0.8-0.7-1.3-1.6-1.4-2.7
				c-0.1-1,0.4-1.9,1.4-2.6c1.1-0.7,2.5-1.1,4.3-1.1c0.6,0,1.3,0,2,0.1s1.4,0.2,2.1,0.3c1.8-1.1,4-2.5,6.6-4.2s5.4-3.5,8.5-5.3
				c-0.1-0.6-0.1-1.3-0.1-1.8s0-1.2,0-1.7c0-2.3,0-4.5,0-6.8s0.1-4.4,0.1-6.6c-3,0.6-6,1-9,1.2c-2.3,0.1-4.3-0.3-5.9-1.3
				s-2.8-2.3-3.7-4c-0.9-1.6-1.3-3.4-1.4-5.3c0.3-0.4,0.6-0.6,1-0.7s0.7,0,1,0.2c0.5,1.7,1.6,2.9,3.2,3.6c1.6,0.6,3.6,0.9,5.8,0.8
				c1.3-0.1,2.7-0.3,4.3-0.6c1.6-0.3,3.2-0.7,4.9-1.2c0.1-2.6,0.3-5,0.4-7.1c0.2-2.1,0.3-3.8,0.3-4.9c0.3-1.9,0-3.2-0.7-3.9
				c-0.3-0.3-0.8-0.5-1.4-0.6s-1.1-0.1-1.6,0c-0.7-0.7-0.7-1.4-0.1-2c1.1-0.3,2.3-0.5,3.8-0.5c1.4,0,2.7,0.1,4,0.4
				c2.1,0.5,3.6,1.4,4.5,2.8s0.9,2.8-0.2,4.2c-0.6,0.7-1.2,1.9-1.5,3.6c-0.4,1.7-0.7,3.7-1.1,6c0.7-0.3,1.4-0.5,1.9-0.8
				c0.6-0.3,1.1-0.5,1.5-0.8s0.9-0.3,1.5-0.1c0.5,0.2,1.2,0.5,2.1,0.9c0.3,0.1,0.4,0.2,0.6,0.3c1.7,0.8,2.7,1.9,2.9,3.2
				c0.2,1.3-0.5,2.3-2.2,2.8c-1.2,0.5-2.6,0.9-4.2,1.3c-1.5,0.4-3.2,0.9-4.8,1.3c-0.1,2.1-0.2,4.3-0.3,6.7c-0.1,2.3-0.1,4.7-0.1,7.1
				v1c3.6-1.9,7.4-3.5,11.4-4.8c4-1.4,8-2,12.1-2c4.3,0,8,0.7,11.1,2.2s5.5,3.5,7.1,6c1.7,2.5,2.5,5.4,2.5,8.6s-0.9,6.1-2.6,8.6
				c-1.7,2.5-4,4.5-6.9,5.9s-6.1,2.1-9.8,2.1c-4.6,0-8.2-1.5-10.8-4.4s-3.9-6.6-3.8-11.2c0.6-0.8,1.2-0.9,1.9-0.3
				c0.8,3,2.3,5.1,4.2,6.5c2,1.4,4.6,2,7.9,2c2.5,0,4.8-0.9,6.8-2.6s3-4,3-6.9c0.1-3.6-1-6.4-3-8.5c-2.1-2.1-5.1-3.1-9.1-3.1
				c-3.9,0-7.8,0.7-11.5,2s-7.2,2.9-10.5,4.9c0.3,3.9,0.6,7,1.1,9.6c0.5,2.5,0.7,4.1,0.7,4.7c0,1.6-0.4,3.2-1.3,4.6
				C504.5,157.3,503,158.4,500.8,159.1z M497,149.5c1.5,0.9,2.2,0.5,2.2-1.2c0-0.6,0-1.6,0-2.9s0-2.9,0-4.7c-2.9,2.1-5.3,4.1-7.3,6
				c1,0.5,1.9,0.9,2.8,1.4C495.5,148.5,496.3,149,497,149.5z M541.8,116.5c-0.4-0.1-0.7-0.3-0.9-0.6c-0.2-0.3-0.3-0.6-0.2-1
				c0.6-0.7,1.3-1.4,2-2.2c0.7-0.8,1.4-1.4,1.9-1.9c-0.4-0.8-1.1-1.5-2-2.1c-1-0.6-2.2-0.9-3.7-1c-3.2-0.1-5.9,0.4-8.4,1.4
				c-2.4,1.1-4.7,2.7-6.7,4.8c-1,0-1.4-0.4-1.4-1.4c1-1.7,2.4-3.4,4.2-5.1s3.9-3.1,6.4-4.2c2.4-1.1,5.1-1.6,7.9-1.5
				c2.7,0,5.1,0.5,7.1,1.5s3.6,2.3,4.7,3.8c1.1,1.5,1.7,3.2,1.6,4.8c-0.1,1.5-0.6,2.6-1.7,3.2c-1.1,0.6-2.2,0.7-3.4,0.3
				c-1.4-0.4-2.7-0.5-3.9-0.2C544.1,115.6,542.9,116,541.8,116.5z"/>
			<path class="st2" d="M620.7,169.5c-1.5,0-2.2-0.7-2.2-2v-18h-17.8c-1.2,4.7-3.4,8.4-6.6,11.1c-3.2,2.7-6.9,4.7-11.3,5.9
				c-4.4,1.3-9,2.1-13.9,2.6c-0.3-0.3-0.5-0.6-0.6-1s0-0.7,0.2-1c5.7-1,10.7-3,14.9-6s7-6.9,8.4-11.6h-17.6c-2.8,0.1-5,0.2-6.7,0.4
				l-1-4c2.1,0.3,4.6,0.5,7.6,0.7h18.2c0-0.2,0-0.4,0-0.6s0-0.4,0-0.7c0.2-2.3,0.3-3.9,0.2-5.1c-0.1-1.1-0.3-2-0.6-2.6
				c-0.2-0.4-0.2-0.7,0-1.1c0.2-0.3,0.5-0.4,1-0.4c0.8,0.1,1.9,0.4,3.4,0.7s3.1,0.6,4.6,1c1.6,0.3,2.7,0.6,3.4,0.9
				c0.7,0.2,1,0.7,0.9,1.4c-0.1,0.6-0.5,1-1.3,1.2c-0.6,0.1-1.2,0.2-1.7,0.4s-0.8,0.7-0.8,1.5c-0.1,0.6-0.1,1.1-0.1,1.7
				c0,0.5-0.1,1.1-0.2,1.6h17.2v-1.6c0-1.7-0.1-3-0.2-4c-0.2-1-0.4-1.7-0.6-2.2c-0.2-0.4-0.2-0.7,0-1.1c0.2-0.3,0.5-0.4,1-0.4
				c0.8,0.1,1.9,0.2,3.5,0.5c1.5,0.3,3.1,0.5,4.6,0.8s2.7,0.5,3.4,0.7c0.6,0.1,1,0.6,1,1.4c-0.1,0.7-0.5,1.1-1.3,1.3
				c-0.6,0.1-1.2,0.2-1.7,0.5s-0.8,0.8-0.8,1.5v2.7h11.6c0.8,0,1.4-0.3,1.7-0.8c0.4-0.5,1-1.3,1.8-2.4c0.8-1.1,1.4-1.9,1.7-2.3
				c0.5-0.6,1.2-0.7,2-0.3c0.6,0.4,1.5,1,2.5,1.8s2,1.7,2.9,2.5s1.6,1.5,2.1,2s0.7,1,0.5,1.6c-0.2,0.5-0.5,0.8-1.1,0.8h-25.7
				c0,2.1,0,4.4,0.1,6.9s0.2,4.7,0.3,6.6c0.1,1.9,0.1,3.1,0.1,3.6c0,0.8-0.8,1.5-2.4,2.1C623.9,169.3,622.3,169.5,620.7,169.5z
				 M594.4,102.9c-0.7,0-1.3-0.1-1.7-0.4s-0.6-0.7-0.6-1.4c0-0.4,0-1.3,0-2.5s0.1-2.5,0.1-4h-16.6c-3.3,0.1-5.9,0.3-7.8,0.6l-1-4.2
				c2.4,0.4,5.3,0.6,8.8,0.8h16.7c0-0.7,0-1.3,0-1.9c0-0.5,0-1,0-1.5c0-2.7-0.3-4.5-0.8-5.4c-0.2-0.4-0.2-0.7,0-1.1
				c0.2-0.3,0.5-0.4,1-0.4c0.8,0.1,1.9,0.2,3.4,0.4c1.5,0.2,2.9,0.5,4.4,0.8s2.6,0.5,3.3,0.7s1,0.6,0.9,1.4S604,86,603.2,86
				c-0.6,0.1-1.2,0.2-1.7,0.5s-0.7,0.8-0.7,1.6v3.7h16.3v-3.4c0-2.7-0.3-4.5-0.8-5.4c-0.2-0.4-0.2-0.7,0-1.1c0.2-0.3,0.5-0.4,1-0.3
				c0.8,0.1,1.9,0.2,3.4,0.4c1.5,0.2,2.9,0.5,4.4,0.7c1.4,0.3,2.6,0.5,3.3,0.7s1,0.6,0.9,1.4c-0.1,0.7-0.5,1.1-1.3,1.3
				c-0.6,0.1-1.2,0.2-1.7,0.5s-0.7,0.8-0.7,1.5v3.7h12.7c0.7,0,1.3-0.2,1.6-0.7c0.3-0.3,0.6-0.7,1.2-1.4c0.5-0.6,1-1.3,1.5-1.9
				s0.9-1.1,1.1-1.3c0.5-0.7,1.2-0.8,2-0.4c0.6,0.3,1.5,0.9,2.6,1.7c1.1,0.8,2.1,1.6,3,2.4c1,0.8,1.6,1.5,2,2c0.5,0.5,0.7,1,0.5,1.6
				c-0.2,0.5-0.5,0.8-1,0.8h-27.2c0.1,1.4,0.1,2.5,0.1,3.6c0,1,0,1.6,0,1.8c0,0.7-0.7,1.3-2,1.9c-1.4,0.5-2.9,0.8-4.5,0.8
				c-1.5,0-2.2-0.6-2.2-1.9v-6.2h-16.3v5.7c0,0.7-0.7,1.3-2,1.8C597.6,102.7,596.1,102.9,594.4,102.9z M569.1,144.2
				c-0.8-0.4-1-1.1-0.6-1.8c3-1.3,6-2.7,9-4.3s5.9-3.5,8.6-5.6c-0.1-0.1-0.1-0.3-0.2-0.5c-0.1-0.2-0.2-0.4-0.3-0.6
				c-0.5-1.3-1-2.5-1.5-3.6c-0.6-1.1-1.3-2.1-2.1-2.9c-3.9,2.8-8,5.2-12.5,7.2c-0.4-0.1-0.7-0.4-0.9-0.7s-0.2-0.6-0.1-1
				c4-2.8,7.6-6.1,11-9.9c3.3-3.8,6.2-7.9,8.5-12.2c-1.2,0-2.2,0-3.2,0s-1.9,0-2.7,0c-1.3,0-2.3,0-3.1,0s-1.3,0-1.5,0
				c-2.8,0.1-5,0.2-6.7,0.4l-1-4c2.1,0.3,4.6,0.5,7.5,0.7h58.1c0.6,0,1.2-0.3,1.6-0.8c0.3-0.4,0.9-1.2,1.7-2.2s1.4-1.7,1.7-2.2
				c0.5-0.6,1.1-0.7,1.9-0.2c0.6,0.4,1.3,1,2.2,1.7s1.8,1.5,2.6,2.2s1.4,1.3,1.8,1.8c0.5,0.6,0.7,1.1,0.5,1.7
				c-0.2,0.5-0.5,0.8-1.1,0.8H623v11.3c2.1-0.8,4.2-1.9,6.4-3.2c2.2-1.3,4.1-2.7,5.7-4.1c0.5-0.3,0.8-0.6,1-0.9s0.4-0.6,0.6-0.8
				c0.3-0.4,0.6-0.7,0.9-0.7c0.3,0,0.5,0.1,0.9,0.4c0.5,0.4,1.2,1,2.2,1.8c0.9,0.8,1.9,1.6,2.8,2.4c0.9,0.8,1.6,1.4,2,1.8
				c0.5,0.4,0.5,0.9,0,1.5c-0.4,0.5-0.9,0.5-1.4,0.3s-0.9-0.3-1.4-0.4s-1.1,0.1-1.9,0.4c-3,0.9-6,1.7-9,2.3c-3.1,0.6-6,1.1-8.7,1.5
				v4.2c0,0.9,0.2,1.5,0.6,1.9c0.4,0.4,1.2,0.6,2.5,0.8c1.2,0.1,2.8,0.1,4.8,0.1s3.9,0,5.9-0.1s3.5-0.3,4.7-0.6
				c1.6-0.3,2.7-1.3,3.4-2.8c0.5-1,0.9-2.3,1.4-4c0.5-1.6,1-3.2,1.4-4.6c0.4-1.5,0.7-2.5,0.8-3c0.3-0.3,0.7-0.3,1.1-0.2
				c0.4,0.1,0.7,0.3,0.9,0.6c0,0.7,0,1.8-0.1,3.3s-0.2,2.9-0.3,4.3s-0.1,2.4-0.1,2.9c-0.1,1.1,0.4,1.8,1.3,2c2.1,0.8,3.2,2,3.2,3.7
				c0,1.1-0.4,2-1.1,2.8c-0.7,0.8-2.1,1.3-4,1.6s-4.1,0.6-6.6,0.8s-5.1,0.3-7.8,0.4c-2.7,0.1-5.2,0.1-7.6,0c-2.4,0-4.4-0.1-6-0.2
				c-2.1-0.1-3.7-0.6-4.6-1.4c-1-0.8-1.4-2.1-1.4-3.9v-22.1h-16.8c-1.5,2.3-3.1,4.3-4.7,6.2h6.6c0.6,0,1-0.1,1.4-0.4
				c0.3-0.3,0.8-0.7,1.5-1.4c0.7-0.6,1.2-1.1,1.5-1.4c0.6-0.5,1.3-0.5,1.8,0c0.4,0.3,1.1,0.8,2,1.5s1.7,1.4,2.6,2.1
				c0.8,0.7,1.4,1.3,1.8,1.6c0.5,0.5,0.6,1.1,0.3,1.8c-0.4,0.5-0.9,0.8-1.4,0.8c-0.9-0.1-1.6,0-2,0.2c-0.5,0.2-1,0.7-1.5,1.4
				c-5.1,6.4-11,11.4-17.7,15C583.5,139.5,576.4,142.3,569.1,144.2z M591.6,127.7c1.6-1.5,3.1-3.1,4.6-4.8c1.4-1.7,2.8-3.6,4.2-5.6
				h-9.6c-1.9,1.9-3.8,3.6-5.7,5.1c1.6,0.5,3,1.1,4.1,1.9C590.3,125.2,591.1,126.3,591.6,127.7z"/>
			<path class="st2" d="M671.7,168.8c-0.7,0.3-1.3,0.2-1.6-0.4c-0.3-0.5-0.7-1.3-1.4-2.4s-1.3-2.2-2.1-3.5c-0.7-1.3-1.4-2.5-2.1-3.7
				c-0.6-1.2-1.1-2.1-1.4-2.7c-0.3-0.4-0.3-0.7-0.1-1.1c0.1-0.1,0.5-0.3,1.1-0.4c0.6,0,1.2,0,2-0.1c0.7-0.1,1.6-0.2,2.5-0.3
				c1.8-0.2,3.8-0.5,6.1-0.9s4.7-0.8,7.3-1.3v-25.2c-0.9,0-1.8,0-2.6,0s-1.6,0-2.4,0c-1.2,0-2.3,0-3.1,0s-1.4,0-1.7,0
				c-1.5,0-2.8,0-3.8,0.1c-1.1,0.1-2.1,0.2-3,0.4l-1-4.1c1.9,0.3,4.5,0.5,7.8,0.7h22.6c0.7,0,1.3-0.2,1.7-0.7
				c0.3-0.3,0.7-0.8,1.2-1.5s1.1-1.4,1.6-2c0.5-0.7,0.9-1.1,1.1-1.4c0.5-0.7,1.2-0.8,1.9-0.3c1.1,0.6,2.4,1.6,3.9,3s2.6,2.4,3.3,3.3
				c0.5,0.6,0.7,1.1,0.5,1.7c-0.2,0.5-0.6,0.8-1.2,0.8h-17.9v23.6c5-0.9,9.7-1.8,14.1-2.8c4.4-0.9,7.9-1.7,10.2-2.2
				c0.3,0.1,0.6,0.4,0.7,0.8c0.2,0.4,0.1,0.8,0,1.2c-1.6,0.6-3.7,1.5-6.4,2.6c-2.6,1.1-5.6,2.3-8.8,3.6s-6.5,2.6-9.8,4
				c-3.3,1.3-6.5,2.6-9.5,3.7c-3,1.2-5.6,2.1-7.8,2.9c-0.7,0.3-1.1,0.6-1.2,1.1c-0.1,0.4-0.1,1.1,0,1.8
				C672.8,167.9,672.5,168.4,671.7,168.8z M749.7,166.8c-0.8,1.2-2.6,1.7-5.2,1.5c-2.6-0.2-5.5-1.3-8.7-3.5c-3-2.1-6-4.6-8.9-7.7
				c-2.9-3.1-5.6-6.8-8-11.3s-4.5-9.9-6.1-16.3c-1.7-6.4-2.8-14-3.5-22.8c-3.5,0-6.9,0-10.2,0s-6.5,0-9.5,0c-4.9,0-9,0-12.3,0
				s-5.1,0-5.5,0c-3.3,0.1-6,0.2-7.9,0.5l-0.9-4.1c2.3,0.3,5.2,0.5,8.7,0.7h37.4c-0.1-1.9-0.1-3.7-0.2-5.6c-0.1-1.9-0.1-3.8-0.2-5.8
				c0-2.8-0.1-4.9-0.3-6.3s-0.5-2.5-0.9-3.2c-0.1-0.4-0.1-0.8,0.1-1c0.2-0.3,0.5-0.4,0.9-0.3c0.9,0.1,2.1,0.2,3.7,0.5
				c1.5,0.3,3.1,0.5,4.6,0.9c1.5,0.3,2.7,0.6,3.6,0.9c0.7,0.2,1,0.6,0.9,1.3c-0.1,0.7-0.5,1.1-1.2,1.3c-0.8,0.1-1.4,0.2-1.7,0.4
				c-0.3,0.2-0.5,0.8-0.5,1.6c-0.1,2.8-0.2,5.4-0.2,8s0,5.1,0.1,7.5h16.7c0.8,0,1.4-0.3,1.8-0.8c0.3-0.3,0.6-0.8,1.2-1.5
				c0.5-0.7,1-1.4,1.5-2c0.5-0.7,0.9-1.1,1.1-1.4c0.5-0.6,1.2-0.7,2.1-0.3c0.7,0.4,1.6,1,2.7,1.8c1.1,0.8,2.1,1.6,3.1,2.5
				s1.7,1.6,2.2,2.1c0.5,0.6,0.7,1.1,0.5,1.7c-0.2,0.5-0.5,0.8-1.1,0.8h-31.7c0.5,9.2,1.8,17,3.8,23.3s4.4,11.4,7.3,15.4
				c2.9,3.9,6,7,9.2,9.1c1.7,1.2,3.1,0.9,4.2-0.8c0.4-0.6,0.9-1.6,1.5-2.9c0.6-1.3,1.3-2.7,1.9-4.2c0.6-1.5,1.3-2.9,1.8-4.2
				c0.6-1.3,1-2.3,1.3-2.9c0.9-0.4,1.5-0.3,1.9,0.4c-0.2,0.7-0.4,1.8-0.7,3.2s-0.6,2.9-1,4.5s-0.7,3.1-1,4.5s-0.5,2.5-0.7,3.2
				c-0.4,2,0,3.6,1.2,4.7c1,1,1.6,2.2,1.9,3.5C750.8,164.4,750.6,165.7,749.7,166.8z M735.3,99c-0.8,0.3-1.6,0.4-2.4,0.1
				c-0.8-0.3-1.4-0.8-1.7-1.7c-0.8-2.2-2-4.2-3.4-6.1s-3.1-3.3-5-4.4c-0.3-1,0-1.6,0.9-1.9c3.4,0.3,6.4,1.1,9,2.2
				c2.6,1.2,4.2,2.7,5,4.6c0.7,1.8,0.8,3.3,0.2,4.6C737.3,97.6,736.4,98.5,735.3,99z"/>
		</g>
	</g>
</g>
<g>
	<path class="st2" d="M219.9,53h-7.4c2.1,1.6,5.1,3,8.1,3.7c-0.6,0.6-1.5,1.7-1.9,2.5c-1.5-0.5-3.1-1.2-4.5-1.9v8.1h-3.2v-1.1h-13.8
		v1.1h-3.1v-8c-1.4,0.9-3,1.7-4.8,2.4c-0.4-0.8-1.3-1.8-1.8-2.4c3.3-1.2,5.8-2.7,7.7-4.4h-7v-2.5h9.3c0.3-0.5,0.6-1,0.9-1.5h-5.3
		v-9.7h22.3V49h-12.9c-0.1,0.1-0.4,0.2-0.7,0.3c-0.2,0.4-0.4,0.8-0.7,1.2h18.8L219.9,53L219.9,53z M196.6,39.1v-1.4h-8.1V35h8.1
		v-2.2l4.1,0.3c0,0.3-0.3,0.5-0.8,0.6V35h8.3v-2.2l4.1,0.3c0,0.3-0.3,0.5-0.9,0.6V35h8.4v2.7h-8.4v1.4h-3.2v-1.4h-8.3v1.4H196.6z
		 M196.2,41.4v1.8h15.9v-1.8H196.2z M196.2,45.2V47h15.9v-1.8H196.2z M211.1,58.6v-1.7h-13.8v1.7H211.1z M197.3,62.3h13.8v-1.7
		h-13.8V62.3z M199.2,53c-0.5,0.6-1.2,1.3-1.7,1.8h13.4c-0.7-0.6-1.3-1.2-1.8-1.8H199.2z"/>
	<path class="st2" d="M233,40.5c-0.1,0.4-0.4,0.5-0.9,0.6c-0.4,4.9-0.9,8.5-1.5,9.3l0,0c3.2-2.2,8.1-3.9,12.1-3.9
		c5.1,0,8.7,2.8,8.7,7.8c-0.1,6.6-5.2,9.6-18.9,10.2c-0.3-0.9-0.8-2.2-1.3-3.2c11.8-0.5,16.5-2.3,16.5-6.9c0-2.9-2-4.7-5.6-4.7
		c-5.4,0-11.2,3.3-12.3,5.4l-3.3-1.5c0.8-0.6,2-7.2,2-13.7L233,40.5z M233,33.5c4.5,0.5,10,1.5,13.5,2.9l-1.2,3.4
		c-3.6-1.5-9.1-2.5-13.4-3.1L233,33.5z"/>
	<path class="st2" d="M269.9,34.3c-0.1,0.4-0.4,0.7-1.1,0.8c-0.3,4.4-0.6,13.1-0.6,18.2c0,4.8,2.4,7.1,6.5,7.1
		c3.9,0,7.9-1.9,11.9-6.2c0.4,0.8,1.5,2.5,2,3c-4.3,4.5-9,6.7-13.9,6.7c-7.1,0-10.2-4-10.2-10.7c0-4.6,0.3-15,0.6-19.3L269.9,34.3z"
		/>
	<path class="st2" d="M319.9,45.9c-0.1,0-0.2,0-0.3,0c-0.3,0-0.6-0.1-0.8-0.2c-10.5,2.9-19,7.1-19,11.2c0,3,3.2,4.1,8.5,4.1
		c5.3,0,9.8-0.5,12.2-0.9l0.3,3.5c-2.5,0.4-7.1,0.7-12.7,0.7c-6.8,0-11.9-1.6-12-7.2c0-3.8,3.5-6.9,8.8-9.7
		c-1.3-2.3-1.6-6.3-1.6-13.9l5,0.4c-0.1,0.5-0.4,0.8-1.2,0.9c-0.1,5.5,0.1,9.1,1,11.1c3.1-1.4,6.7-2.7,10.4-4L319.9,45.9z"/>
	<path class="st2" d="M326.6,57.9c2.2-3.1,3.4-7.9,3.9-12.6l3.2,0.7c-0.5,4.7-1.5,10.4-4,13.7L326.6,57.9z M336.5,42.6l4.3,0.3
		c0,0.3-0.3,0.5-0.9,0.6V60c0,1.6,0.4,1.9,2.1,1.9h5.8c1.9,0,2.2-1.3,2.5-7.1c0.8,0.6,2.1,1.3,3.1,1.5c-0.4,6.7-1.4,8.6-5.3,8.6
		h-6.4c-4.1,0-5.2-1.2-5.2-4.9L336.5,42.6L336.5,42.6z M348.7,41.8c-2.7-2.1-7.7-4.7-11.9-6.4l2.1-2.5c4.2,1.5,9.2,4.1,12,6
		L348.7,41.8z M357,58.6c-0.8-3.6-3.3-9.1-6.2-13.1l3-1.5c3.1,4,5.7,9.2,6.6,13L357,58.6z"/>
	<path class="st2" d="M370.9,35.4c-0.1,0.4-0.4,0.6-1.2,0.6c-1.3,5.9-1.8,12.2-1.8,15.5c0,2.3,0.1,4.5,0.3,5.9
		c0.6-1.4,2-4.6,2.4-5.8l1.7,2.4c-1.3,3-2.4,4.9-2.9,6.5c-0.2,0.6-0.3,1.2-0.3,1.6c0,0.4,0.1,0.8,0.2,1.2l-3.5,0.6
		c-1.2-3.4-1.5-7.6-1.5-12.2s0.7-11,1.7-16.9L370.9,35.4z M392.5,61.1c-1.3,0.1-2.5,0.1-3.8,0.1c-2.3,0-4.6-0.1-6.3-0.4
		c-4.6-0.6-6.6-3.1-6.6-6c0-2.4,1.3-4.6,3.1-6.9l3.3,1.2c-1.6,1.6-2.8,3.4-2.8,5.2c0,3.2,4.4,3.5,8.3,3.5c1.5,0,3.3-0.1,4.7-0.3
		L392.5,61.1z M376.4,39.3c4.3-0.1,10.6-0.6,14.9-1.4l0.4,3.4c-4.3,0.8-11.1,1.2-15.2,1.3L376.4,39.3z"/>
	<path class="st2" d="M429,49.3v2.9h-5.5v9.6c0,3.2-1.3,3.5-7.5,3.5c-0.1-0.9-0.6-2.1-1-3c1.2,0,2.3,0.1,3.2,0.1c1.8,0,2,0,2-0.6
		v-9.6h-22.9v-2.9h4.6c-0.3-0.7-0.9-1.5-1.4-2c5.1-0.7,7.8-1.7,9.3-3.6h-7.7v-2.6h9c0.2-0.8,0.3-1.5,0.4-2.5h-10v3.8h-3.1v-6.7h12.9
		v-3.1l4.1,0.3c0,0.3-0.3,0.5-0.8,0.6v2.2h13.1v6.7h-3.2v-3.8H412l0,0l3.3,0.3c0,0.3-0.3,0.5-0.8,0.6c-0.1,0.6-0.2,1.2-0.3,1.6h9.7
		v2.6h-10.6l-0.1,0.3c3.8,0.9,8.3,2.3,10.9,3.7l-1.2,1.6H429z M415.5,61.8H405v1.4h-3v-9.3h13.6L415.5,61.8L415.5,61.8z M421.1,49.3
		c-2.5-1.2-6.2-2.4-9.4-3.2c-1.5,1.4-3.9,2.5-7.5,3.2H421.1z M412.4,56.5H405v2.9h7.4V56.5z"/>
	<path class="st2" d="M438.8,53.4c-0.7-2.1-1-5.1-1-7.1c0-2.9,0.3-6.7,1.1-11l4.5,0.7c-0.1,0.5-0.5,0.6-1,0.6
		c-0.7,2.7-1.3,7.1-1.3,9.7c0,0.5,0,0.9,0.1,1.3c0.7-1.6,1.9-3.8,2.7-5c0.4,0.6,1.3,1.7,1.6,2.2c-2,3.2-3.6,5.8-3.6,7.3
		c0,0.3,0,0.6,0.1,1L438.8,53.4z M458.3,34.4c0,0.4-0.3,0.7-0.9,0.8c0.3,2.9,0.6,7.7,0.6,11.9c0,6.8-2.3,13-13.1,17.4
		c-0.5-0.8-1.7-2.1-2.5-2.8c9.6-3.7,11.8-9.3,11.8-14.5c0-4.6-0.5-9.6-0.9-13.1L458.3,34.4z"/>
	<path class="st2" d="M468.4,42.5c2,0.8,4.6,2.1,5.9,3.3l-1.9,2.7c-1.3-1.2-3.8-2.6-5.8-3.6L468.4,42.5z M467.2,63.1
		c1.5-2.7,3.4-7.1,4.9-10.9l2.6,1.8c-1.4,3.6-3,7.5-4.3,10.1c0.2,0.2,0.3,0.5,0.3,0.7c0,0.1,0,0.3-0.1,0.4L467.2,63.1z M470,33
		c2,0.9,4.6,2.3,5.7,3.5l-2,2.6c-1.2-1.2-3.6-2.8-5.6-3.8L470,33z M475.4,42.1h7.7c0.5-1.2,0.9-2.4,1.2-3.7c-2.3,0.4-4.7,0.7-7,0.9
		c-0.1-0.8-0.6-2-1-2.7c6.5-0.7,13.7-1.9,17.7-3.8l3,2.6c-0.1,0.1-0.3,0.1-0.8,0.1c-2,0.9-4.7,1.5-7.7,2.1h0.1
		c-0.1,0.3-0.4,0.5-0.8,0.5c-0.3,1.4-0.7,2.7-1.2,4h12.4v3h-6.6c1.7,2.5,4.5,4.6,7.3,5.8c-0.8,0.6-1.7,1.8-2.2,2.6
		c-3.5-1.6-6.6-4.8-8.5-8.4h-3.5c-2,4-5.1,7.1-9.2,9c-0.4-0.7-1.4-1.9-2-2.5c3.2-1.5,5.7-3.6,7.6-6.6h-6.3v-2.9H475.4z M474.9,60.5
		c2.1-1.8,3.6-4.8,4.4-7.6l2.7,0.9c-0.9,3.1-2.1,6.5-4.6,8.6L474.9,60.5z M483.6,48.7l3.9,0.2c0,0.3-0.3,0.5-0.8,0.6v12.5
		c0,3.3-1.5,3.4-6.2,3.4c-0.1-0.9-0.5-2.1-0.9-3c0.9,0,1.8,0.1,2.5,0.1c1.4,0,1.5,0,1.5-0.6L483.6,48.7L483.6,48.7z M489.7,61.8
		c-0.3-2-1.3-5-2.3-7.4l2.5-0.9c1.2,2.2,2.1,5.2,2.5,7.3L489.7,61.8z M496.6,62.5c-0.8-2.5-2.8-6.2-4.8-8.8l2.5-1.3
		c2.2,2.6,4.3,6.2,5.1,8.6L496.6,62.5z"/>
	<path class="st2" d="M505,46.3c0.8-0.1,1.9-0.5,3.3-0.9c4.7-1.5,9.6-2.3,12.5-2.3c4.7,0,9.1,2.5,9.1,8.3c0,7.8-7.4,10.6-17.1,11.4
		c-0.2-0.8-0.7-2.4-1-3c8.3-0.6,14.7-2.8,14.7-8.1c0-3.9-2.7-5.6-6.1-5.6c-2.4,0-6.5,0.8-11.3,2.5c-0.8,0.3-1.6,0.6-2.2,0.8
		c-0.1,0.3-0.4,0.6-0.7,0.6L505,46.3z"/>
	<path class="st2" d="M558,41.2c-2.8,1-6.5,1.5-10.1,1.8c-1.4,7.6-3.6,15.6-6.2,21.4l-3.6-1.3c2.8-5.6,4.8-12.5,6.1-19.9
		c-0.5,0-1.1,0-1.5,0c-1.6,0-3.3,0-4.5,0v-3.3c1.2,0.1,2.9,0.1,4.6,0.1c0.6,0,1.3,0,2,0c0.3-2.1,0.6-4.6,0.8-6.6l4.7,0.5
		c-0.1,0.4-0.5,0.7-1,0.8c-0.2,1.4-0.5,3.3-0.8,5.1c3.1-0.3,6.2-0.9,8.8-1.8L558,41.2z M567.2,63.9c-1.1,0.1-2.1,0.1-3.3,0.1
		c-2.9,0-5.9-0.3-7.8-0.8c-2.8-0.7-4.3-2.6-4.3-5c0-2,1.1-3.9,2.2-5.1l2.9,1.2c-1.2,1.3-1.7,2.5-1.7,3.5c0,2.4,2.6,2.9,7.9,2.9
		c1.4,0,2.8,0,4.2-0.2L567.2,63.9z M553.8,46.6c3.5-1.2,8.4-1.8,12.6-1.7v3.3c-3.9-0.1-8.2,0.4-11.8,1.4L553.8,46.6z"/>
	<path class="st2" d="M602.6,44.8h-6.9v1.9c0,7-2.2,13.6-11,17.6c-0.6-0.8-1.6-1.7-2.5-2.4c8.4-3.7,10.1-9.5,10.1-15.1v-2h-10.2V53
		h-3.5v-8.2h-6.4v-3.4h6.4v-7.3l4.5,0.3c0,0.4-0.4,0.7-1,0.8v6.1h10.1v-7.6l4.5,0.4c0,0.4-0.3,0.6-1,0.8v6.7h6.9L602.6,44.8
		L602.6,44.8z"/>
	<path class="st2" d="M607.5,46.7h29.1v3.5h-27.7c-0.2,0.4-0.7,0.6-1.2,0.6L607.5,46.7z"/>
	<path class="st2" d="M662.3,59.6c1.6,0,5.4-0.3,7.6-0.6c0,1.2,0.1,2.4,0.1,3.5c-2.1,0.3-5.7,0.4-7.4,0.4h-8.2
		c-5.7,0-8.3-2.4-8.3-7.6V35l4.5,0.3c0,0.4-0.3,0.6-1,0.8v10.8c4.9-1.5,11.9-4.3,16.2-6.7l2.4,3.3c-0.1,0.1-0.3,0.1-0.5,0.1
		s-0.4,0-0.5-0.1c-3.8,1.8-11.6,4.8-17.5,6.6v5.2c0,3.2,1.5,4.4,4.9,4.4L662.3,59.6L662.3,59.6z M665.7,33.8
		c1.5,1.4,3.2,3.5,4.1,4.9L668,40c-0.9-1.5-2.7-3.8-4-5L665.7,33.8z M670.2,32c1.5,1.4,3.2,3.5,4.2,4.9l-1.7,1.3
		c-0.9-1.5-2.7-3.7-4.1-4.9L670.2,32z"/>
	<path class="st2" d="M702,37.5c-0.1,0.3-0.3,0.4-0.6,0.5c-1.9,4.5-3.9,7.9-6.7,11.7c3.6,2.9,9,7.8,12.2,11.2l-3.1,2.6
		c-2.9-3.4-8.1-8.5-11.3-11.2c-3.2,3.8-8.1,8.4-12.9,11.2c-0.6-0.8-1.7-2-2.5-2.7c9.1-4.9,16.5-14,19.7-21.5h-16.4v-3.3h18.3
		l0.6-0.1L702,37.5z"/>
	<path class="st2" d="M741.6,48.6c-0.1,0-0.1,0-0.2,0c-0.2,0-0.4-0.1-0.6-0.2c-2.6,0.8-6.2,2-9,3.2c0.1,0.8,0.1,1.6,0.1,2.6
		c0,1,0,2-0.1,3.1l-3.5,0.3c0.1-1.5,0.2-3.5,0.1-4.6c-3.3,1.6-5.8,3.7-5.8,5.3c0,1.7,2.1,2.6,6.5,2.6c3.2,0,6.5-0.1,8.7-0.4v3.2
		c-1.9,0.2-4.9,0.3-8.8,0.3c-6.7,0-9.9-1.5-9.9-5.5c0-2.9,3.9-6,8.9-8.6c-0.2-1.5-0.9-2.6-2.1-2.6c-2.4,0-4.9,1.4-7.9,4.6
		c-0.9,1-2.2,2.3-3.8,3.8l-2.4-2.3c1.6-1.5,3.5-3.1,4.6-4.6c1.5-1.9,3.1-5,3.9-7.6h-1.6c-1.4,0-3.9,0-5.6,0v-3.1
		c2,0.1,4.6,0.1,6,0.1h2.1c0.3-1.5,0.6-3,0.9-4.8l4.4,0.5c-0.1,0.4-0.4,0.6-0.9,0.6c-0.3,1.3-0.5,2.4-0.9,3.6
		c2.6-0.1,7.2-0.6,11.2-2l0.6,3.3c-3.9,1.2-8.9,1.6-12.8,1.7c-0.7,2.2-1.5,4-2.1,4.9l0,0c1.4-1.2,3.4-1.9,5.2-1.9
		c2.1,0,3.8,1.5,4.3,4.3c2.8-1.3,6.3-2.5,9-3.6L741.6,48.6z"/>
</g>
</svg>
