<?xml version="1.0" encoding="utf-8"?>
<!-- Generator: Adobe Illustrator 26.1.0, SVG Export Plug-In . SVG Version: 6.00 Build 0)  -->
<svg version="1.1" id="レイヤー_1" xmlns="http://www.w3.org/2000/svg" xmlns:xlink="http://www.w3.org/1999/xlink" x="0px"
	 y="0px" viewBox="0 0 800 200" style="enable-background:new 0 0 800 200;" xml:space="preserve">
<style type="text/css">
	.st0{fill:#C85554;}
	.st1{enable-background:new    ;}
	.st2{fill:#1E4164;}
</style>
<g id="ロゴ03">
	<path class="st0" d="M125.9,86.8c-4.2-12.8-16.1-21.5-29.6-21.5c-1.3-4-3.4-7.7-6.2-10.9c-0.4,0-0.8,0.1-1.3,0.1
		c0.4-0.1,0.8-0.1,1.3-0.1c-11.4-12.9-31-14.2-43.9-2.9c-4.2,3.7-7.3,8.5-9.1,13.7l0,0C20,65.3,6,79.2,6,96.5
		c0,9.9,4.8,19.3,12.8,25.2c-1.3,4-1.8,8.2-1.4,12.5l0,0c1.6,17.1,16.7,29.8,33.8,28.1c5.6-0.5,10.9-2.5,15.4-5.9
		c3.4,2.5,7.3,4.2,11.4,5.1l0,0c16.8,3.8,33.4-6.7,37.2-23.5c1.3-5.5,1-11.2-0.8-16.5C125.6,113.7,130.1,99.6,125.9,86.8z
		 M117.9,103.9L117.9,103.9L117.9,103.9z M117.1,103.1l-0.3-0.2L117.1,103.1z M116.3,102.3L116,102L116.3,102.3z M115.4,101.6
		c-0.1-0.1-0.1-0.1-0.3-0.2C115.3,101.5,115.3,101.5,115.4,101.6L115.4,101.6z M114.3,100.7L114.3,100.7L114.3,100.7z M113.4,100.1
		l-0.3-0.2L113.4,100.1z M112.5,99.4l-0.4-0.2L112.5,99.4z M111.5,98.9l-0.3-0.1L111.5,98.9z M110.1,98.2L110.1,98.2L110.1,98.2z
		 M109.2,97.7l-0.4-0.1L109.2,97.7z M108.2,97.3l-0.4-0.1L108.2,97.3z M107,96.9l-0.3-0.1L107,96.9z M105.6,96.5h-0.1H105.6z
		 M104.6,96.2l-0.4-0.1L104.6,96.2z M103.5,96l-0.4-0.1L103.5,96z M102.3,95.8l-0.4-0.1L102.3,95.8z M100.9,95.7h-0.1H100.9z
		 M99.8,95.6h-0.4H99.8z M98.7,95.6L98.7,95.6z M67.1,91.9L67.1,91.9L67.1,91.9L67.1,91.9L67.1,91.9c0.2,0.6,1.3,3.8,0,8.3v0.1v-0.1
		v0.1v-0.1C65.8,95.6,66.9,92.4,67.1,91.9L67.1,91.9z M71.7,103.6l0.1-0.1c3.9-2.7,7.3-2.6,8-2.6h0.1h-0.1h0.1h-0.1
		c-0.5,0.4-3.2,2.4-8,2.6L71.7,103.6L71.7,103.6L71.7,103.6z M79.6,70.2l0.5-0.3L79.6,70.2z M71.6,77.7c0.1-0.2,0.3-0.4,0.4-0.6
		C71.9,77.3,71.7,77.5,71.6,77.7L71.6,77.7z M72.6,76.3c0.1-0.1,0.2-0.3,0.4-0.4C72.9,76,72.8,76.1,72.6,76.3L72.6,76.3z M74,74.7
		l0.4-0.4L74,74.7z M75.2,73.6l0.5-0.4L75.2,73.6z M76.7,72.3l0.3-0.2L76.7,72.3z M78.2,71.1l0.4-0.4L78.2,71.1z M70.1,108.9
		L70.1,108.9c3.8,3,4.8,6.2,5,6.8l0.1,0.1h-0.1v0.1l-0.1-0.1c-0.5-0.4-3.3-2.3-4.9-6.8V108.9L70.1,108.9
		C70.1,108.9,70.1,108.9,70.1,108.9L70.1,108.9z M70.6,79c0.1-0.2,0.3-0.4,0.4-0.6C70.9,78.6,70.7,78.8,70.6,79L70.6,79z M78.1,141
		c-0.1,0.3-0.2,0.5-0.3,0.8C77.9,141.5,77.9,141.2,78.1,141L78.1,141z M77.4,142.7c-0.1,0.2-0.2,0.5-0.3,0.7
		C77.2,143.1,77.4,142.9,77.4,142.7L77.4,142.7z M76.7,144.3c-0.1,0.2-0.2,0.4-0.4,0.7C76.5,144.8,76.7,144.5,76.7,144.3z
		 M75.9,145.9c-0.1,0.2-0.2,0.4-0.4,0.6C75.7,146.3,75.8,146.1,75.9,145.9z M79.5,131.4c0-2-0.1-4-0.6-5.9l0,0
		C79.4,127.5,79.6,129.5,79.5,131.4L79.5,131.4z M79.5,131.8c0,0.4,0,0.8-0.1,1.2C79.5,132.6,79.5,132.2,79.5,131.8L79.5,131.8z
		 M79.5,133.5c0,0.4-0.1,0.8-0.1,1.1C79.5,134.2,79.5,133.8,79.5,133.5L79.5,133.5z M79.3,135.1c-0.1,0.4-0.1,0.7-0.1,1.1
		C79.3,135.9,79.3,135.4,79.3,135.1L79.3,135.1z M79.1,136.8c-0.1,0.4-0.1,0.7-0.2,1.1C79,137.5,79,137.1,79.1,136.8L79.1,136.8z
		 M78.8,138.3c-0.1,0.6-0.3,1.2-0.5,1.8C78.5,139.5,78.6,139,78.8,138.3L78.8,138.3z M82.2,125.2c0-0.1-0.1-0.1-0.1-0.1
		C82.1,125.1,82.2,125.2,82.2,125.2L82.2,125.2z M81.4,69.1l0.1-0.1L81.4,69.1z M83,68.2l0.5-0.2L83,68.2z M84.6,67.5l0.5-0.2
		L84.6,67.5z M97.4,95.6H97H97.4z M95.9,95.7L95.9,95.7L95.9,95.7z M94.8,96c-0.1,0-0.2,0.1-0.4,0.1C94.6,96,94.6,96,94.8,96
		L94.8,96z M93.6,96.2l-0.4,0.1L93.6,96.2z M92.4,96.5l-0.4,0.1L92.4,96.5z M94.1,63.7c-2.7,0.2-5.3,0.7-7.8,1.6
		c-7.6,2.5-14,7.7-18.1,14.6c-0.4,0-0.7-0.1-1-0.1C67.3,67.3,77.1,57,89.6,56C91.4,58.4,93,61,94.1,63.7L94.1,63.7z M87.7,54.6
		l0.8-0.1L87.7,54.6z M74.5,60.6l0.1-0.1L74.5,60.6z M75.5,59.9l0.1-0.1L75.5,59.9z M76.4,59.2l0.2-0.1L76.4,59.2z M77.4,58.4
		l0.3-0.1L77.4,58.4z M78.4,57.8c0.1-0.1,0.2-0.1,0.3-0.1C78.6,57.7,78.5,57.7,78.4,57.8L78.4,57.8z M79.5,57.2l0.4-0.1L79.5,57.2z
		 M80.5,56.8c0.1-0.1,0.3-0.1,0.4-0.1C80.8,56.6,80.7,56.7,80.5,56.8L80.5,56.8z M81.7,56.3c0.1-0.1,0.3-0.1,0.5-0.1
		C82,56.1,81.8,56.2,81.7,56.3L81.7,56.3z M82.8,55.8l0.6-0.1L82.8,55.8z M84,55.4l0.6-0.1L84,55.4z M85.2,55.1
		c0.2-0.1,0.4-0.1,0.6-0.1C85.6,55,85.4,55.1,85.2,55.1L85.2,55.1z M86.4,54.9l0.7-0.1L86.4,54.9z M72.8,62.2L72.8,62.2L72.8,62.2z
		 M73.7,61.3L73.7,61.3L73.7,61.3z M71.9,63.1L71.9,63.1z M54.5,101L54.5,101c0.6,0,4.1-0.1,8,2.6l0.1,0.1h-0.1l0.1,0.1l-0.1-0.1
		C57.8,103.5,55,101.5,54.5,101L54.5,101L54.5,101L54.5,101z M53.5,126.3c-0.1,0.1-0.1,0.1-0.1,0.3
		C53.5,126.4,53.5,126.4,53.5,126.3L53.5,126.3z M19.7,124.2c5.2,3.2,11.2,5,17.3,5c5.2,0,10.4-1.3,14.9-3.7
		c-0.3,0.4-0.6,0.8-0.8,1.2c-4.6,6.3-11.8,10-19.6,10c-4.4,0-8.9-1.3-12.7-3.6C18.8,130.1,19,127.1,19.7,124.2L19.7,124.2z
		 M41.7,127.2c-0.4,0.1-0.8,0.1-1.3,0.1C40.9,127.3,41.3,127.3,41.7,127.2L41.7,127.2z M40.1,127.4c-0.4,0-0.8,0.1-1.1,0.1
		C39.4,127.5,39.8,127.5,40.1,127.4L40.1,127.4z M38.6,127.5c-0.5,0-1,0.1-1.5,0.1s-1,0-1.4-0.1C36.7,127.5,37.7,127.5,38.6,127.5
		L38.6,127.5z M49.4,125.1c-0.9,0.4-1.8,0.7-2.7,1.1C47.5,125.8,48.4,125.4,49.4,125.1z M46.3,126.1c-0.4,0.1-0.8,0.2-1.2,0.4
		C45.6,126.4,45.9,126.3,46.3,126.1L46.3,126.1z M44.9,126.6c-0.4,0.1-0.8,0.2-1.3,0.3C44,126.8,44.4,126.7,44.9,126.6L44.9,126.6z
		 M43.4,126.9c-0.5,0.1-1,0.2-1.5,0.3C42.5,127.1,42.9,127,43.4,126.9L43.4,126.9z M35.3,127.5c-0.4,0-0.8-0.1-1.1-0.1
		C34.6,127.5,35,127.5,35.3,127.5L35.3,127.5z M33.9,127.3c-0.5-0.1-1-0.1-1.4-0.2C32.9,127.3,33.4,127.3,33.9,127.3L33.9,127.3z
		 M32.4,127.2c-0.5-0.1-1-0.1-1.5-0.3C31.4,127.1,31.9,127.1,32.4,127.2L32.4,127.2z M30.5,126.8c-0.4-0.1-0.7-0.1-1.1-0.3
		C29.8,126.7,30.1,126.7,30.5,126.8L30.5,126.8z M29,126.4c-0.5-0.1-1-0.3-1.5-0.4C28,126.2,28.5,126.4,29,126.4L29,126.4z
		 M26.5,85.8c0.3,0.6,0.6,1.2,0.9,1.8C27,87,26.7,86.4,26.5,85.8L26.5,85.8z M26.4,125.6c-0.8-0.3-1.6-0.6-2.3-0.9
		C24.8,125,25.5,125.4,26.4,125.6L26.4,125.6z M51,124.3c0.4-0.2,0.8-0.4,1.2-0.6C51.8,123.9,51.3,124.1,51,124.3z M49.6,124.9
		c0.4-0.1,0.8-0.4,1.1-0.6C50.4,124.6,49.9,124.8,49.6,124.9L49.6,124.9z M44,96.1c-1.3-1.3-2.4-2.8-3.4-4.4
		C41.6,93.3,42.7,94.8,44,96.1z M37.2,84.7c-0.1-0.3-0.1-0.6-0.3-0.8C37,84.2,37.2,84.5,37.2,84.7z M40.4,91.5
		c-0.2-0.4-0.4-0.7-0.6-1.1C40,90.8,40.2,91.1,40.4,91.5L40.4,91.5z M39.6,90.2c-0.6-1.1-1.1-2.1-1.6-3.2
		C38.5,88.1,39.1,89.1,39.6,90.2L39.6,90.2z M37.8,86.3c-0.1-0.3-0.2-0.6-0.4-0.8C37.6,85.7,37.7,86,37.8,86.3z M36.7,82.9
		c-0.1-0.2-0.1-0.4-0.1-0.6C36.5,82.6,36.6,82.7,36.7,82.9L36.7,82.9z M36.2,80.8c-0.1-0.2-0.1-0.4-0.1-0.6
		C36.1,80.4,36.1,80.6,36.2,80.8L36.2,80.8z M35.9,79c0-0.2-0.1-0.4-0.1-0.6C35.8,78.6,35.9,78.8,35.9,79L35.9,79z M35.7,77.2
		c0-0.2,0-0.4-0.1-0.6C35.7,76.9,35.7,77.1,35.7,77.2L35.7,77.2z M26.2,69c2.8-1.1,5.8-1.8,8.8-2c-2.7,11,0.4,22.7,8.4,30.8L43.3,98
		c-0.4-0.1-0.7-0.2-1-0.3C30.3,93.8,23.2,81.3,26.2,69L26.2,69z M22.9,124.2c-0.7-0.4-1.4-0.8-2.1-1.2
		C21.5,123.4,22.2,123.7,22.9,124.2L22.9,124.2z M18.7,134.9l-0.3-0.1L18.7,134.9z M19.5,135.3l0.3,0.1L19.5,135.3z M20.7,135.9
		l0.1,0.1L20.7,135.9z M21.8,136.4l0.3,0.1L21.8,136.4z M22.9,136.9l0.4,0.1L22.9,136.9z M24.1,137.2l0.2,0.1L24.1,137.2z
		 M25.3,137.6l0.3,0.1L25.3,137.6z M30,138.3h0.4H30z M26.4,137.8l0.4,0.1L26.4,137.8z M27.6,138.1l0.3,0.1L27.6,138.1z M29,138.2
		h0.3H29z M31.2,138.3L31.2,138.3z M48.4,132.2c0.3-0.3,0.6-0.6,0.9-0.8C49,131.6,48.7,131.9,48.4,132.2L48.4,132.2z M31.9,138.3h1
		H31.9z M33.4,138.3c0.3,0,0.6-0.1,0.9-0.1C34.1,138.2,33.7,138.3,33.4,138.3L33.4,138.3z M34.8,138.2c0.4-0.1,0.7-0.1,1.1-0.1
		C35.5,138.1,35.2,138.1,34.8,138.2L34.8,138.2z M36.1,138c0.4-0.1,0.9-0.1,1.3-0.3C37.1,137.8,36.6,137.8,36.1,138L36.1,138z
		 M37.8,137.6c0.4-0.1,0.7-0.1,1-0.3C38.5,137.4,38.2,137.5,37.8,137.6L37.8,137.6z M39.3,137.2c0.3-0.1,0.6-0.2,0.8-0.3
		C39.9,137,39.6,137.1,39.3,137.2L39.3,137.2z M40.6,136.8c0.3-0.1,0.6-0.2,0.9-0.4C41.3,136.5,41,136.6,40.6,136.8L40.6,136.8z
		 M41.9,136.2c0.4-0.2,0.8-0.4,1.3-0.6C42.7,135.9,42.3,136,41.9,136.2L41.9,136.2z M43.4,135.5c0.4-0.1,0.6-0.4,1-0.6
		C44.1,135.2,43.7,135.4,43.4,135.5L43.4,135.5z M44.8,134.7c0.3-0.1,0.6-0.4,0.8-0.5C45.3,134.5,45.1,134.6,44.8,134.7L44.8,134.7z
		 M46,134c0.3-0.2,0.6-0.4,0.8-0.6C46.5,133.6,46.3,133.8,46,134L46,134z M47.1,133.2c0.4-0.3,0.7-0.6,1.1-0.8
		C47.9,132.6,47.5,132.9,47.1,133.2L47.1,133.2z M49.6,131.1c0.2-0.2,0.5-0.4,0.7-0.7C50.1,130.6,49.9,130.8,49.6,131.1L49.6,131.1z
		 M51.3,129.2c-0.2,0.3-0.4,0.6-0.6,0.8C50.9,129.7,51.1,129.5,51.3,129.2L51.3,129.2z M51.6,128.9c0.3-0.4,0.6-0.8,0.9-1.2l0,0
		C52.3,128.1,52,128.5,51.6,128.9L51.6,128.9z M64.3,109.1c-1.6,4.4-4.4,6.4-4.9,6.8l-0.1,0.1c0,0,0,0,0-0.1h-0.1l0.1-0.1
		C59.5,115.3,60.5,112,64.3,109.1V109C64.3,109,64.3,109,64.3,109.1L64.3,109.1L64.3,109.1z M64.7,105.1c0-1.3,1.1-2.5,2.5-2.5
		s2.5,1.1,2.5,2.5c0,1.3-1.1,2.5-2.5,2.5l0,0C65.8,107.5,64.7,106.4,64.7,105.1L64.7,105.1z M73.6,149.5L73.6,149.5
		c-1.2,1.7-2.6,3.2-4.1,4.6C71,152.8,72.4,151.2,73.6,149.5L73.6,149.5z M75,147.6l-0.3,0.6L75,147.6z M77.7,159.9
		c-3-0.8-5.7-1.9-8.3-3.5c8.8-7.4,13.1-18.9,11.3-30.3c0.4,0.4,0.6,0.8,0.9,1.2C89.1,137.4,87.4,151.7,77.7,159.9L77.7,159.9z
		 M87.2,147.3c-0.2,0.8-0.4,1.6-0.6,2.3C86.7,148.8,87,148.1,87.2,147.3c0.2-0.8,0.4-1.6,0.4-2.4C87.5,145.7,87.4,146.5,87.2,147.3
		L87.2,147.3z M103.2,106c0.2,0.1,0.4,0.4,0.7,0.5C103.7,106.3,103.4,106.1,103.2,106z M91.4,100.8c1.8,0.4,3.6,0.9,5.3,1.6
		C95,101.7,93.2,101.2,91.4,100.8z M96.8,102.4c0.4,0.1,0.8,0.4,1.1,0.5C97.5,102.7,97.2,102.6,96.8,102.4L96.8,102.4z M98.2,103
		c0.4,0.1,0.7,0.4,1.1,0.6C98.9,103.4,98.6,103.2,98.2,103L98.2,103z M99.4,103.6c0.6,0.4,1.3,0.7,2,1.1
		C100.8,104.4,100.1,104,99.4,103.6L99.4,103.6z M101.9,105.1l0.8,0.6L101.9,105.1z M104.7,107c0.2,0.1,0.4,0.3,0.6,0.4
		C105,107.3,104.9,107.2,104.7,107z M106.4,108.6l0.4,0.4L106.4,108.6z M110.3,113c0.5,0.7,1,1.3,1.4,2
		C111.2,114.3,110.7,113.6,110.3,113L110.3,113z M107.6,109.8c0.1,0.1,0.3,0.3,0.4,0.4C107.9,110.1,107.7,109.9,107.6,109.8
		L107.6,109.8z M108.9,111.1c0.1,0.1,0.2,0.3,0.4,0.4C109.1,111.4,108.9,111.3,108.9,111.1L108.9,111.1z M115.4,119
		c-4.2-10.3-13.3-17.8-24.2-19.9c0-0.2-0.1-0.4-0.1-0.6l0.3-0.1c12.1-3.9,25.1,2.1,29.9,13.8C119.7,114.8,117.8,117,115.4,119
		L115.4,119z M118.7,104.8l0.2,0.3L118.7,104.8z M119.4,105.6c0.1,0.1,0.1,0.2,0.2,0.3C119.5,105.8,119.5,105.8,119.4,105.6
		L119.4,105.6z M120.1,106.6l0.2,0.3L120.1,106.6z M120.9,107.8L120.9,107.8z M122.6,110.9c0.1,0.1,0.1,0.2,0.1,0.4
		C122.6,111.1,122.6,111,122.6,110.9L122.6,110.9z M121.5,108.8c0.1,0.1,0.1,0.2,0.1,0.3C121.6,109,121.5,108.9,121.5,108.8
		L121.5,108.8z M122,109.9l0.2,0.4L122,109.9z"/>
	<g class="st1">
		<path class="st2" d="M192.8,146.5c-1.5,0-2.2-0.6-2.2-1.8c0-0.4,0-1.6,0.1-3.7c0.1-2.1,0.2-4.6,0.3-7.6s0.2-6,0.3-9.2
			s0.1-6,0.1-8.5c-1.9,1.4-3.9,2.8-5.9,4c-2,1.3-4,2.4-6,3.5c-0.9-0.2-1.3-0.7-1.1-1.6c4.1-3,8.4-6.5,12.9-10.6
			c-0.1-2.1-0.2-3.7-0.3-4.9c-0.1-1.2-0.3-2.1-0.6-2.8c-0.1-0.5,0-0.9,0.2-1.1c0.3-0.3,0.7-0.4,1.2-0.2c0.7,0.3,1.6,0.6,2.7,1.1
			c1.1,0.5,2.2,0.9,3.2,1.4c1.4-1.5,2.8-3,4.2-4.5s2.6-3.1,3.9-4.7c-1.6,0-3.2,0-4.7,0s-2.9,0-4.3,0c-2.2,0-4.1,0-5.6,0s-2.5,0-3,0
			c-3.3,0.1-6,0.2-7.8,0.5l-1-4.2c2.4,0.4,5.3,0.6,8.8,0.8h10.3v-15c-0.8,0-1.6,0-2.4,0s-1.5,0-2.1,0c-1,0-1.9,0-2.7,0
			c-0.7,0-1.2,0-1.5,0c-2.8,0.1-5.1,0.2-7,0.5l-1-4.2c2.3,0.5,4.9,0.7,7.9,0.9h8.7v-9.4c0-2.4-0.2-3.9-0.7-4.5
			c-0.3-0.4-0.3-0.8,0-1.1s0.6-0.4,1-0.4c0.8,0.1,1.8,0.2,3.2,0.4s2.7,0.4,4.1,0.7c1.4,0.3,2.5,0.5,3.2,0.7c0.7,0.2,1,0.7,0.9,1.4
			c-0.1,0.6-0.5,1-1.3,1.2c-0.6,0.1-1.2,0.2-1.7,0.5s-0.8,0.8-0.8,1.6v8.9h0.9c0.5,0,1-0.2,1.4-0.7c0.3-0.4,0.8-1,1.3-1.8
			c0.5-0.7,0.9-1.3,1.2-1.6c0.4-0.6,1-0.6,1.7-0.1c0.8,0.6,1.7,1.4,2.7,2.3c1,1,1.9,1.8,2.5,2.5c0.6-1.2,1.1-2.6,1.6-4.2
			c0.5-1.5,0.9-3,1.3-4.3c0.4-1.4,0.5-2.3,0.4-3c0-0.4,0.1-0.7,0.4-0.9s0.7-0.2,1.1,0c0.8,0.3,1.9,0.8,3.1,1.4
			c1.3,0.6,2.5,1.2,3.7,1.8c1.2,0.6,2.2,1.2,3,1.7c0.3,0.1,0.5,0.3,0.5,0.6c0,0.3,0,0.6-0.1,0.8c-0.3,0.7-0.7,0.9-1.4,0.7
			c-0.8-0.1-1.5,0-1.9,0.2c-0.5,0.3-0.8,0.8-1.2,1.6c-1.8,3.8-3.8,7.4-5.8,10.9c-2.1,3.4-4.3,6.7-6.7,9.8h4c0.7,0,1.3-0.2,1.6-0.7
			c0.3-0.4,0.9-1.2,1.8-2.3c0.9-1.1,1.5-1.8,1.8-2.2c0.5-0.6,1.1-0.7,1.8-0.1c0.6,0.4,1.3,1,2.1,1.7c0.8,0.7,1.7,1.5,2.5,2.3
			s1.4,1.4,1.8,1.9s0.6,1,0.4,1.5s-0.5,0.7-1,0.7h-19.2c-1.5,1.9-3.1,3.7-4.8,5.4c-1.6,1.7-3.3,3.4-5.1,5H214c0.5,0,0.9-0.2,1.3-0.6
			c0.3-0.3,0.7-0.7,1.2-1.3c0.5-0.5,0.9-1,1.2-1.4c0.5-0.6,1.2-0.6,1.9-0.2c0.9,0.5,2.1,1.2,3.7,2.1c1.6,1,2.8,1.8,3.6,2.5
			c0.5,0.4,0.7,0.8,0.6,1.4c-0.1,0.5-0.5,0.9-1.1,1.3c-0.3,0.1-0.5,0.3-0.8,0.4s-0.6,0.3-0.8,0.4c-0.6,0.4-0.9,1.1-0.9,2.1
			c0,1.9,0,4.2,0.1,6.7s0.1,5.1,0.2,7.6c0.1,2.6,0.1,5,0.2,7.2c0.1,2.3,0.1,4.1,0.2,5.6s0.1,2.3,0.1,2.6c0,0.7-0.7,1.4-2,2.1
			s-2.9,1-4.7,1c-0.7,0-1.3-0.1-1.6-0.4c-0.4-0.3-0.6-0.7-0.6-1.4v-2.8h-16.4v3.1c0,0.8-0.7,1.5-2.1,2.1
			C196,146.2,194.4,146.5,192.8,146.5z M199.4,121.1h16.4v-12.6h-15.4c-0.2,0.2-0.4,0.4-0.6,0.5c-0.2,0.2-0.4,0.3-0.5,0.4v11.7
			H199.4z M199.4,137.5h16.4V124h-16.4V137.5z M206.4,92.3h1.5c1.7-2.4,3.4-4.8,4.9-7.3s2.9-5.1,4.2-7.6h-10.6V92.3z M235.6,146.5
			c-1.4,0-2.1-0.6-2.1-1.9c0-0.4,0-2,0.1-4.8s0.2-6.6,0.3-11.3c0.1-4.7,0.2-10.2,0.3-16.4c0.1-6.2,0.1-12.9,0.1-20.1
			c0-7,0-12.4-0.1-16.3s-0.2-6.8-0.3-8.6c-0.1-1.8-0.4-3.1-0.7-3.8c-0.1-0.4-0.1-0.8,0.2-1c0.3-0.3,0.6-0.3,1.1-0.2
			c0.6,0.2,1.4,0.5,2.5,1s2.2,1,3.3,1.5c1.1,0.5,2.1,1,2.8,1.5h9c0.5,0,0.9-0.2,1.3-0.6c0.1-0.1,0.5-0.6,1.2-1.3
			c0.7-0.7,1-1.2,1.1-1.5c0.5-0.6,1.1-0.7,1.7-0.4s1.6,0.8,2.8,1.5c1.2,0.7,2.4,1.4,3.7,2.2c1.3,0.8,2.3,1.4,3,2
			c0.6,0.5,0.8,1,0.6,1.7c-0.2,0.6-0.7,1-1.5,1.1c-0.9,0.1-1.5,0.2-1.9,0.5s-0.9,0.9-1.4,1.8c-0.9,1.3-2,3-3.2,5
			c-1.2,2.1-2.4,4.2-3.7,6.4c-1.2,2.2-2.3,4.2-3.2,5.9c-0.9,1.7-1.6,3-1.9,3.7c-0.5,1.1-0.3,1.9,0.6,2.4c2.8,1.5,5.5,3.5,8,5.8
			c2.5,2.4,4.5,5,6,7.8c1.5,2.9,2.3,5.9,2.3,9.1c0,5.7-1.4,10-4.2,12.7c-2.8,2.7-6.5,4.4-11.2,5.1c-0.5-2.4-1-4.2-1.7-5.5
			s-1.6-2.2-2.8-2.8c-1.2-0.6-2.8-1-4.9-1.3c-0.5-0.8-0.4-1.5,0.4-2c1.2,0.1,2.7,0.3,4.3,0.4c1.6,0.1,3.2,0.2,4.6,0.2
			c4.3,0,6.5-3,6.5-9c0-4.1-0.9-7.9-2.8-11.3s-4.2-6.1-7.1-8c-0.5-0.4-0.9-0.8-1.1-1.3s-0.2-1.1,0.1-2c0.3-0.8,0.6-2.1,1-3.8
			c0.4-1.7,0.9-3.6,1.4-5.7s1-4.3,1.4-6.4c0.5-2.2,0.9-4.1,1.3-5.8s0.7-3,0.9-3.9H242v74.4c0,0.8-0.6,1.4-1.9,2
			C238.8,146.2,237.3,146.5,235.6,146.5z"/>
		<path class="st2" d="M284.8,146.2c-0.8,0.3-1.3,0.1-1.5-0.5c-0.4-0.8-1-2-2-3.6c-0.9-1.6-1.9-3.2-2.8-4.9
			c-0.9-1.6-1.6-2.8-2.1-3.5c-0.2-0.3-0.2-0.6,0.1-0.9c0.2-0.2,0.5-0.3,1.1-0.3c0.4-0.1,1-0.1,1.7-0.1s1.5-0.1,2.4-0.1
			c2.1-0.2,4.3-0.5,6.7-0.9V74.9c0-3.8-0.1-6.7-0.3-8.6c-0.2-1.9-0.5-3.3-0.8-4.2c-0.2-0.3-0.1-0.6,0.2-1c0.3-0.3,0.6-0.3,1.1-0.1
			c0.8,0.3,1.8,0.7,3,1.2s2.5,1.1,3.8,1.7s2.5,1.2,3.4,1.7h43.8c0.6,0,1-0.2,1.3-0.7c0.3-0.4,0.7-0.9,1.2-1.5
			c0.4-0.6,0.9-1.2,1.3-1.6c0.4-0.6,1.1-0.7,1.8-0.3c0.7,0.3,1.6,0.7,2.7,1.3s2.1,1.2,3.2,1.8c1.1,0.6,1.9,1.1,2.7,1.6
			c0.5,0.3,0.8,0.7,0.8,1.3c0,0.6-0.3,1.1-1,1.4c-0.3,0.1-0.6,0.3-0.9,0.4s-0.6,0.3-0.9,0.5c-0.8,0.5-1.3,1.4-1.3,2.7
			c0,1.9,0.1,4.1,0.2,6.5s0.3,4.6,0.4,6.4c0.1,1.9,0.2,3,0.2,3.5c0,0.9-0.9,1.6-2.6,2.2c-1.7,0.5-3.4,0.8-5.1,0.8
			c-1.5,0-2.3-0.7-2.3-2v-2.5h-18.8c0.1,2.8,0.3,5.5,0.6,8c0.3,2.5,0.7,4.9,1.1,7.1h19.6c0.8,0,1.4-0.2,1.8-0.7
			c0.3-0.3,0.7-0.8,1.3-1.5c0.6-0.7,1.2-1.4,1.8-2.1c0.6-0.7,1-1.2,1.2-1.4c0.6-0.6,1.4-0.7,2.1-0.3c0.7,0.4,1.6,1,2.7,1.8
			s2.2,1.7,3.2,2.5s1.8,1.5,2.2,1.9c0.5,0.6,0.7,1.2,0.5,1.7s-0.5,0.9-1.1,0.9h-34.7c1.5,5.6,3.4,10.3,5.8,14s5.1,6.6,8,8.8
			c3,2.2,6,3.9,9,5c1.1,0.5,2,0.6,2.8,0.4c0.7-0.2,1.4-0.8,2.1-1.8c0.4-0.6,0.9-1.6,1.5-2.9c0.6-1.3,1.2-2.6,1.9-4.1
			c0.6-1.4,1.2-2.7,1.7-3.9c0.5-1.2,0.8-2,1-2.5c1-0.4,1.6-0.3,1.9,0.5c-0.1,0.5-0.2,1.4-0.5,2.8c-0.3,1.3-0.5,2.8-0.8,4.4
			s-0.5,3.1-0.8,4.5c-0.3,1.4-0.4,2.4-0.5,3c-0.1,1.1-0.1,1.9,0,2.4s0.6,1.1,1.4,1.8c1,0.9,1.7,1.9,1.9,3.1c0.2,1.2,0,2.2-0.6,3.1
			c-0.6,1-1.9,1.7-3.8,1.9s-4.2-0.1-6.9-0.9c-3-1-6.1-2.4-9.4-4.2s-6.6-4.2-9.8-7.2c-3.2-3-6.1-6.8-8.6-11.4
			c-2.6-4.6-4.6-10.2-6.1-16.8h-21.5V130c3.6-0.6,7.2-1.2,10.8-1.8c3.6-0.6,7-1.3,10-1.8c3.1-0.6,5.6-1.1,7.6-1.4
			c0.3,0.1,0.5,0.4,0.7,0.8c0.1,0.4,0.1,0.8-0.1,1.2c-1.7,0.6-3.9,1.5-6.5,2.5s-5.5,2.1-8.5,3.3c-3.1,1.2-6.2,2.3-9.2,3.5
			c-3.1,1.2-5.9,2.2-8.5,3.2s-4.8,1.8-6.6,2.4c-1.2,0.4-1.7,1.4-1.4,3.1C285.7,145.4,285.4,145.8,284.8,146.2z M297.3,84.4H344V68.5
			h-46.7V84.4z M297.3,102.5h20.9c-0.5-2.3-0.8-4.6-1.1-7.2c-0.3-2.5-0.5-5.2-0.6-8h-19.2L297.3,102.5L297.3,102.5z"/>
		<path class="st2" d="M413.7,139.8c-0.8-0.8-0.9-1.5-0.3-2.3c4.4-0.7,8.5-2,12.5-3.9c3.9-1.9,7.4-4.3,10.4-7.2
			c3-2.9,5.4-6.3,7.1-10.2c1.7-3.9,2.6-8.2,2.6-12.9c0-6.2-1.2-11.6-3.5-16.1c-2.4-4.5-5.6-8-9.8-10.4c-4.2-2.4-9.1-3.7-14.8-3.7
			c0.6,1.4,1.1,3,1.3,4.6c0.2,1.7,0.3,3.4,0.2,5.1c-0.3,5.8-1.1,11.3-2.6,16.7c-1.4,5.3-3.3,10.1-5.4,14.3
			c-2.2,4.2-4.4,7.8-6.7,10.5c-2.3,2.8-4.5,4.5-6.5,5.3c-1.7,0.8-3.4,1.2-5.3,1s-3.6-1.3-5.2-3.2c-1.3-1.5-2.5-3.2-3.8-4.9
			c-1.2-1.7-2.2-3.7-3-6s-1.2-5.1-1.3-8.4c-0.1-4.8,0.8-9.5,2.7-14.1c1.9-4.6,4.5-8.7,7.9-12.4c3.4-3.7,7.4-6.6,12.1-8.8
			c4.6-2.2,9.7-3.4,15.2-3.5c5.3-0.1,10.3,0.6,14.9,2.3c4.6,1.6,8.6,4,12.1,7.1c3.4,3.1,6.1,6.8,8,11.1c1.9,4.2,2.8,8.9,2.8,14.1
			c0,5.4-1.1,10.3-3.2,14.6c-2.1,4.3-5.1,8-8.9,11.1s-8.2,5.5-13.2,7.2C424.9,138.4,419.5,139.5,413.7,139.8z M396.1,120.4
			c1.7-0.5,3.5-2,5.5-4.5s3.9-5.6,5.8-9.4s3.4-7.9,4.7-12.4c1.3-4.5,2-9,2.2-13.5c0-0.3,0-0.6,0-0.9s0-0.6,0-0.8c0-1.1,0-2.1,0-3
			s0-1.8-0.1-2.7c-5.2,0.6-9.9,2.5-14,5.7c-4.1,3.3-7.3,7.4-9.6,12.5c-2.3,5.1-3.4,10.6-3.2,16.8c0.1,5,1,8.4,2.8,10.3
			C391.9,120.4,393.9,121,396.1,120.4z"/>
		<path class="st2" d="M500.8,136.7c-1.4,0.5-2.6,0.4-3.6-0.1s-1.6-1.6-1.9-3.2c-0.1-0.9-0.7-1.9-2-3s-2.8-2.1-4.6-2.9
			c-1.3,1.3-2.3,2.4-3.1,3.4c-1,1.2-2.3,1.8-3.8,1.8c-1.5,0.1-2.8-0.6-3.9-1.9c-0.8-1-1.7-1.9-2.5-2.6c-0.8-0.7-1.3-1.6-1.4-2.7
			c-0.1-1,0.4-1.9,1.4-2.6c1.1-0.7,2.5-1.1,4.3-1.1c0.6,0,1.3,0,2,0.1s1.4,0.2,2.1,0.3c1.8-1.1,4-2.5,6.6-4.2s5.4-3.5,8.5-5.3
			c-0.1-0.6-0.1-1.3-0.1-1.8s0-1.2,0-1.7c0-2.3,0-4.5,0-6.8s0.1-4.4,0.1-6.6c-3,0.6-6,1-9,1.2c-2.3,0.1-4.3-0.3-5.9-1.3
			c-1.6-1-2.8-2.3-3.7-4c-0.9-1.6-1.3-3.4-1.4-5.3c0.3-0.4,0.6-0.6,1-0.7s0.7,0,1,0.2c0.5,1.7,1.6,2.9,3.2,3.6
			c1.6,0.6,3.6,0.9,5.8,0.8c1.3-0.1,2.7-0.3,4.3-0.6c1.6-0.3,3.2-0.7,4.9-1.2c0.1-2.6,0.3-5,0.4-7.1c0.2-2.1,0.3-3.8,0.3-4.9
			c0.3-1.9,0-3.2-0.7-3.9c-0.3-0.3-0.8-0.5-1.4-0.6c-0.6-0.1-1.1-0.1-1.6,0c-0.7-0.7-0.7-1.4-0.1-2c1.1-0.3,2.3-0.5,3.8-0.5
			c1.4,0,2.7,0.1,4,0.4c2.1,0.5,3.6,1.4,4.5,2.8s0.9,2.8-0.2,4.2c-0.6,0.7-1.2,1.9-1.5,3.6c-0.4,1.7-0.7,3.7-1.1,6
			c0.7-0.3,1.4-0.5,1.9-0.8c0.6-0.3,1.1-0.5,1.5-0.8s0.9-0.3,1.5-0.1c0.5,0.2,1.2,0.5,2.1,0.9c0.3,0.1,0.4,0.2,0.6,0.3
			c1.7,0.8,2.7,1.9,2.9,3.2c0.2,1.3-0.5,2.3-2.2,2.8c-1.2,0.5-2.6,0.9-4.2,1.3c-1.5,0.4-3.2,0.9-4.8,1.3c-0.1,2.1-0.2,4.3-0.3,6.7
			c-0.1,2.3-0.1,4.7-0.1,7.1v1c3.6-1.9,7.4-3.5,11.4-4.8c4-1.4,8-2,12.1-2c4.3,0,8,0.7,11.1,2.2s5.5,3.5,7.1,6
			c1.7,2.5,2.5,5.4,2.5,8.6s-0.9,6.1-2.6,8.6c-1.7,2.5-4,4.5-6.9,5.9s-6.1,2.1-9.8,2.1c-4.6,0-8.2-1.5-10.8-4.4s-3.9-6.6-3.8-11.2
			c0.6-0.8,1.2-0.9,1.9-0.3c0.8,3,2.3,5.1,4.2,6.5c2,1.4,4.6,2,7.9,2c2.5,0,4.8-0.9,6.8-2.6s3-4,3-6.9c0.1-3.6-1-6.4-3-8.5
			c-2.1-2.1-5.1-3.1-9.1-3.1c-3.9,0-7.8,0.7-11.5,2s-7.2,2.9-10.5,4.9c0.3,3.9,0.6,7,1.1,9.6c0.5,2.5,0.7,4.1,0.7,4.7
			c0,1.6-0.4,3.2-1.3,4.6C504.5,134.9,503,136,500.8,136.7z M497,127.1c1.5,0.9,2.2,0.5,2.2-1.2c0-0.6,0-1.6,0-2.9s0-2.9,0-4.7
			c-2.9,2.1-5.3,4.1-7.3,6c1,0.5,1.9,0.9,2.8,1.4C495.5,126.1,496.3,126.6,497,127.1z M541.8,94.1c-0.4-0.1-0.7-0.3-0.9-0.6
			c-0.2-0.3-0.3-0.6-0.2-1c0.6-0.7,1.3-1.4,2-2.2c0.7-0.8,1.4-1.4,1.9-1.9c-0.4-0.8-1.1-1.5-2-2.1c-1-0.6-2.2-0.9-3.7-1
			c-3.2-0.1-5.9,0.4-8.4,1.4c-2.4,1.1-4.7,2.7-6.7,4.8c-1,0-1.4-0.4-1.4-1.4c1-1.7,2.4-3.4,4.2-5.1s3.9-3.1,6.4-4.2
			c2.4-1.1,5.1-1.6,7.9-1.5c2.7,0,5.1,0.5,7.1,1.5s3.6,2.3,4.7,3.8c1.1,1.5,1.7,3.2,1.6,4.8c-0.1,1.5-0.6,2.6-1.7,3.2
			c-1.1,0.6-2.2,0.7-3.4,0.3c-1.4-0.4-2.7-0.5-3.9-0.2C544.1,93.2,542.9,93.6,541.8,94.1z"/>
		<path class="st2" d="M620.7,147.1c-1.5,0-2.2-0.7-2.2-2v-18h-17.8c-1.2,4.7-3.4,8.4-6.6,11.1c-3.2,2.7-6.9,4.7-11.3,5.9
			c-4.4,1.3-9,2.1-13.9,2.6c-0.3-0.3-0.5-0.6-0.6-1s0-0.7,0.2-1c5.7-1,10.7-3,14.9-6s7-6.9,8.4-11.6h-17.6c-2.8,0.1-5,0.2-6.7,0.4
			l-1-4c2.1,0.3,4.6,0.5,7.6,0.7h18.2c0-0.2,0-0.4,0-0.6s0-0.4,0-0.7c0.2-2.3,0.3-3.9,0.2-5.1c-0.1-1.1-0.3-2-0.6-2.6
			c-0.2-0.4-0.2-0.7,0-1.1c0.2-0.3,0.5-0.4,1-0.4c0.8,0.1,1.9,0.4,3.4,0.7c1.5,0.3,3.1,0.6,4.6,1c1.6,0.3,2.7,0.6,3.4,0.9
			c0.7,0.2,1,0.7,0.9,1.4c-0.1,0.6-0.5,1-1.3,1.2c-0.6,0.1-1.2,0.2-1.7,0.4c-0.5,0.2-0.8,0.7-0.8,1.5c-0.1,0.6-0.1,1.1-0.1,1.7
			c0,0.5-0.1,1.1-0.2,1.6h17.2v-1.6c0-1.7-0.1-3-0.2-4c-0.2-1-0.4-1.7-0.6-2.2c-0.2-0.4-0.2-0.7,0-1.1c0.2-0.3,0.5-0.4,1-0.4
			c0.8,0.1,1.9,0.2,3.5,0.5c1.5,0.3,3.1,0.5,4.6,0.8s2.7,0.5,3.4,0.7c0.6,0.1,1,0.6,1,1.4c-0.1,0.7-0.5,1.1-1.3,1.3
			c-0.6,0.1-1.2,0.2-1.7,0.5s-0.8,0.8-0.8,1.5v2.7h11.6c0.8,0,1.4-0.3,1.7-0.8c0.4-0.5,1-1.3,1.8-2.4s1.4-1.9,1.7-2.3
			c0.5-0.6,1.2-0.7,2-0.3c0.6,0.4,1.5,1,2.5,1.8s2,1.7,2.9,2.5s1.6,1.5,2.1,2s0.7,1,0.5,1.6c-0.2,0.5-0.5,0.8-1.1,0.8h-25.7
			c0,2.1,0,4.4,0.1,6.9s0.2,4.7,0.3,6.6c0.1,1.9,0.1,3.1,0.1,3.6c0,0.8-0.8,1.5-2.4,2.1C623.9,146.9,622.3,147.1,620.7,147.1z
			 M594.4,80.5c-0.7,0-1.3-0.1-1.7-0.4s-0.6-0.7-0.6-1.4c0-0.4,0-1.3,0-2.5s0.1-2.5,0.1-4h-16.6c-3.3,0.1-5.9,0.3-7.8,0.6l-1-4.2
			c2.4,0.4,5.3,0.6,8.8,0.8h16.7c0-0.7,0-1.3,0-1.9c0-0.5,0-1,0-1.5c0-2.7-0.3-4.5-0.8-5.4c-0.2-0.4-0.2-0.7,0-1.1
			c0.2-0.3,0.5-0.4,1-0.4c0.8,0.1,1.9,0.2,3.4,0.4s2.9,0.5,4.4,0.8s2.6,0.5,3.3,0.7s1,0.6,0.9,1.4c-0.1,0.8-0.5,1.2-1.3,1.2
			c-0.6,0.1-1.2,0.2-1.7,0.5s-0.7,0.8-0.7,1.6v3.7h16.3V66c0-2.7-0.3-4.5-0.8-5.4c-0.2-0.4-0.2-0.7,0-1.1c0.2-0.3,0.5-0.4,1-0.3
			c0.8,0.1,1.9,0.2,3.4,0.4s2.9,0.5,4.4,0.7c1.4,0.3,2.6,0.5,3.3,0.7s1,0.6,0.9,1.4c-0.1,0.7-0.5,1.1-1.3,1.3
			c-0.6,0.1-1.2,0.2-1.7,0.5c-0.5,0.3-0.7,0.8-0.7,1.5v3.7h12.7c0.7,0,1.3-0.2,1.6-0.7c0.3-0.3,0.6-0.7,1.2-1.4
			c0.5-0.6,1-1.3,1.5-1.9s0.9-1.1,1.1-1.3c0.5-0.7,1.2-0.8,2-0.4c0.6,0.3,1.5,0.9,2.6,1.7c1.1,0.8,2.1,1.6,3,2.4c1,0.8,1.6,1.5,2,2
			c0.5,0.5,0.7,1,0.5,1.6c-0.2,0.5-0.5,0.8-1,0.8h-27.2c0.1,1.4,0.1,2.5,0.1,3.6c0,1,0,1.6,0,1.8c0,0.7-0.7,1.3-2,1.9
			c-1.4,0.5-2.9,0.8-4.5,0.8c-1.5,0-2.2-0.6-2.2-1.9v-6.2h-16.3v5.7c0,0.7-0.7,1.3-2,1.8C597.6,80.3,596.1,80.5,594.4,80.5z
			 M569.1,121.8c-0.8-0.4-1-1.1-0.6-1.8c3-1.3,6-2.7,9-4.3c3-1.6,5.9-3.5,8.6-5.6c-0.1-0.1-0.1-0.3-0.2-0.5
			c-0.1-0.2-0.2-0.4-0.3-0.6c-0.5-1.3-1-2.5-1.5-3.6c-0.6-1.1-1.3-2.1-2.1-2.9c-3.9,2.8-8,5.2-12.5,7.2c-0.4-0.1-0.7-0.4-0.9-0.7
			c-0.2-0.3-0.2-0.6-0.1-1c4-2.8,7.6-6.1,11-9.9c3.3-3.8,6.2-7.9,8.5-12.2c-1.2,0-2.2,0-3.2,0s-1.9,0-2.7,0c-1.3,0-2.3,0-3.1,0
			s-1.3,0-1.5,0c-2.8,0.1-5,0.2-6.7,0.4l-1-4c2.1,0.3,4.6,0.5,7.5,0.7h58.1c0.6,0,1.2-0.3,1.6-0.8c0.3-0.4,0.9-1.2,1.7-2.2
			s1.4-1.7,1.7-2.2c0.5-0.6,1.1-0.7,1.9-0.2c0.6,0.4,1.3,1,2.2,1.7s1.8,1.5,2.6,2.2s1.4,1.3,1.8,1.8c0.5,0.6,0.7,1.1,0.5,1.7
			c-0.2,0.5-0.5,0.8-1.1,0.8H623v11.3c2.1-0.8,4.2-1.9,6.4-3.2c2.2-1.3,4.1-2.7,5.7-4.1c0.5-0.3,0.8-0.6,1-0.9s0.4-0.6,0.6-0.8
			c0.3-0.4,0.6-0.7,0.9-0.7c0.3,0,0.5,0.1,0.9,0.4c0.5,0.4,1.2,1,2.2,1.8c0.9,0.8,1.9,1.6,2.8,2.4c0.9,0.8,1.6,1.4,2,1.8
			c0.5,0.4,0.5,0.9,0,1.5c-0.4,0.5-0.9,0.5-1.4,0.3s-0.9-0.3-1.4-0.4s-1.1,0.1-1.9,0.4c-3,0.9-6,1.7-9,2.3c-3.1,0.6-6,1.1-8.7,1.5
			v4.2c0,0.9,0.2,1.5,0.6,1.9c0.4,0.4,1.2,0.6,2.5,0.8c1.2,0.1,2.8,0.1,4.8,0.1s3.9,0,5.9-0.1s3.5-0.3,4.7-0.6
			c1.6-0.3,2.7-1.3,3.4-2.8c0.5-1,0.9-2.3,1.4-4c0.5-1.6,1-3.2,1.4-4.6c0.4-1.5,0.7-2.5,0.8-3c0.3-0.3,0.7-0.3,1.1-0.2
			c0.4,0.1,0.7,0.3,0.9,0.6c0,0.7,0,1.8-0.1,3.3s-0.2,2.9-0.3,4.3s-0.1,2.4-0.1,2.9c-0.1,1.1,0.4,1.8,1.3,2c2.1,0.8,3.2,2,3.2,3.7
			c0,1.1-0.4,2-1.1,2.8c-0.7,0.8-2.1,1.3-4,1.6c-1.9,0.3-4.1,0.6-6.6,0.8c-2.5,0.2-5.1,0.3-7.8,0.4s-5.2,0.1-7.6,0
			c-2.4,0-4.4-0.1-6-0.2c-2.1-0.1-3.7-0.6-4.6-1.4c-1-0.8-1.4-2.1-1.4-3.9V85.9h-16.8c-1.5,2.3-3.1,4.3-4.7,6.2h6.6
			c0.6,0,1-0.1,1.4-0.4c0.3-0.3,0.8-0.7,1.5-1.4c0.7-0.6,1.2-1.1,1.5-1.4c0.6-0.5,1.3-0.5,1.8,0c0.4,0.3,1.1,0.8,2,1.5
			s1.7,1.4,2.6,2.1c0.8,0.7,1.4,1.3,1.8,1.6c0.5,0.5,0.6,1.1,0.3,1.8c-0.4,0.5-0.9,0.8-1.4,0.8c-0.9-0.1-1.6,0-2,0.2
			c-0.5,0.2-1,0.7-1.5,1.4c-5.1,6.4-11,11.4-17.7,15C583.5,117.1,576.4,119.9,569.1,121.8z M591.6,105.3c1.6-1.5,3.1-3.1,4.6-4.8
			c1.4-1.7,2.8-3.6,4.2-5.6h-9.6c-1.9,1.9-3.8,3.6-5.7,5.1c1.6,0.5,3,1.1,4.1,1.9C590.3,102.8,591.1,103.9,591.6,105.3z"/>
		<path class="st2" d="M671.7,146.4c-0.7,0.3-1.3,0.2-1.6-0.4c-0.3-0.5-0.7-1.3-1.4-2.4s-1.3-2.2-2.1-3.5c-0.7-1.3-1.4-2.5-2.1-3.7
			c-0.6-1.2-1.1-2.1-1.4-2.7c-0.3-0.4-0.3-0.7-0.1-1.1c0.1-0.1,0.5-0.3,1.1-0.4c0.6,0,1.2,0,2-0.1c0.7-0.1,1.6-0.2,2.5-0.3
			c1.8-0.2,3.8-0.5,6.1-0.9s4.7-0.8,7.3-1.3v-25.2c-0.9,0-1.8,0-2.6,0s-1.6,0-2.4,0c-1.2,0-2.3,0-3.1,0s-1.4,0-1.7,0
			c-1.5,0-2.8,0-3.8,0.1c-1.1,0.1-2.1,0.2-3,0.4l-1-4.1c1.9,0.3,4.5,0.5,7.8,0.7h22.6c0.7,0,1.3-0.2,1.7-0.7
			c0.3-0.3,0.7-0.8,1.2-1.5s1.1-1.4,1.6-2c0.5-0.7,0.9-1.1,1.1-1.4c0.5-0.7,1.2-0.8,1.9-0.3c1.1,0.6,2.4,1.6,3.9,3s2.6,2.4,3.3,3.3
			c0.5,0.6,0.7,1.1,0.5,1.7c-0.2,0.5-0.6,0.8-1.2,0.8h-17.9V128c5-0.9,9.7-1.8,14.1-2.8c4.4-0.9,7.9-1.7,10.2-2.2
			c0.3,0.1,0.6,0.4,0.7,0.8c0.2,0.4,0.1,0.8,0,1.2c-1.6,0.6-3.7,1.5-6.4,2.6c-2.6,1.1-5.6,2.3-8.8,3.6s-6.5,2.6-9.8,4
			c-3.3,1.3-6.5,2.6-9.5,3.7c-3,1.2-5.6,2.1-7.8,2.9c-0.7,0.3-1.1,0.6-1.2,1.1c-0.1,0.4-0.1,1.1,0,1.8
			C672.8,145.5,672.5,146,671.7,146.4z M749.7,144.4c-0.8,1.2-2.6,1.7-5.2,1.5c-2.6-0.2-5.5-1.3-8.7-3.5c-3-2.1-6-4.6-8.9-7.7
			c-2.9-3.1-5.6-6.8-8-11.3s-4.5-9.9-6.1-16.3c-1.7-6.4-2.8-14-3.5-22.8c-3.5,0-6.9,0-10.2,0s-6.5,0-9.5,0c-4.9,0-9,0-12.3,0
			s-5.1,0-5.5,0c-3.3,0.1-6,0.2-7.9,0.5l-0.9-4.1c2.3,0.3,5.2,0.5,8.7,0.7h37.4c-0.1-1.9-0.1-3.7-0.2-5.6c-0.1-1.9-0.1-3.8-0.2-5.8
			c0-2.8-0.1-4.9-0.3-6.3c-0.2-1.4-0.5-2.5-0.9-3.2c-0.1-0.4-0.1-0.8,0.1-1c0.2-0.3,0.5-0.4,0.9-0.3c0.9,0.1,2.1,0.2,3.7,0.5
			c1.5,0.3,3.1,0.5,4.6,0.9c1.5,0.3,2.7,0.6,3.6,0.9c0.7,0.2,1,0.6,0.9,1.3s-0.5,1.1-1.2,1.3c-0.8,0.1-1.4,0.2-1.7,0.4
			c-0.3,0.2-0.5,0.8-0.5,1.6c-0.1,2.8-0.2,5.4-0.2,8s0,5.1,0.1,7.5h16.7c0.8,0,1.4-0.3,1.8-0.8c0.3-0.3,0.6-0.8,1.2-1.5
			c0.5-0.7,1-1.4,1.5-2c0.5-0.7,0.9-1.1,1.1-1.4c0.5-0.6,1.2-0.7,2.1-0.3c0.7,0.4,1.6,1,2.7,1.8c1.1,0.8,2.1,1.6,3.1,2.5
			s1.7,1.6,2.2,2.1c0.5,0.6,0.7,1.1,0.5,1.7c-0.2,0.5-0.5,0.8-1.1,0.8h-31.7c0.5,9.2,1.8,17,3.8,23.3s4.4,11.4,7.3,15.4
			c2.9,3.9,6,7,9.2,9.1c1.7,1.2,3.1,0.9,4.2-0.8c0.4-0.6,0.9-1.6,1.5-2.9c0.6-1.3,1.3-2.7,1.9-4.2c0.6-1.5,1.3-2.9,1.8-4.2
			c0.6-1.3,1-2.3,1.3-2.9c0.9-0.4,1.5-0.3,1.9,0.4c-0.2,0.7-0.4,1.8-0.7,3.2c-0.3,1.4-0.6,2.9-1,4.5s-0.7,3.1-1,4.5
			s-0.5,2.5-0.7,3.2c-0.4,2,0,3.6,1.2,4.7c1,1,1.6,2.2,1.9,3.5C750.8,142,750.6,143.3,749.7,144.4z M735.3,76.6
			c-0.8,0.3-1.6,0.4-2.4,0.1c-0.8-0.3-1.4-0.8-1.7-1.7c-0.8-2.2-2-4.2-3.4-6.1s-3.1-3.3-5-4.4c-0.3-1,0-1.6,0.9-1.9
			c3.4,0.3,6.4,1.1,9,2.2c2.6,1.2,4.2,2.7,5,4.6c0.7,1.8,0.8,3.3,0.2,4.6C737.3,75.2,736.4,76.1,735.3,76.6z"/>
	</g>
</g>
</svg>
