<?xml version="1.0" encoding="utf-8"?>
<!-- Generator: Adobe Illustrator 26.1.0, SVG Export Plug-In . SVG Version: 6.00 Build 0)  -->
<svg version="1.1" id="レイヤー_1" xmlns="http://www.w3.org/2000/svg" xmlns:xlink="http://www.w3.org/1999/xlink" x="0px"
	 y="0px" viewBox="0 0 620 130" style="enable-background:new 0 0 620 130;" xml:space="preserve">
<style type="text/css">
	.st0{fill:#FFFFFF;}
	.st1{enable-background:new    ;}
</style>
<g id="ロゴ03">
	<path class="st0" d="M138.3,47.6c-4.5-13.7-17.2-23-31.7-23c-1.4-4.3-3.6-8.2-6.6-11.6c-0.5,0-0.9,0.1-1.4,0.1
		c0.5,0,0.9-0.1,1.4-0.1C87.9-0.9,66.8-2.3,53,9.8c-4.5,3.9-7.9,9-9.7,14.7l0,0C24.9,24.6,10,39.5,10,57.9
		c0,10.7,5.1,20.7,13.7,26.9c-1.4,4.3-1.9,8.8-1.5,13.3l0,0c1.7,18.3,17.9,31.8,36.2,30.1c6-0.5,11.7-2.7,16.5-6.2
		c3.7,2.7,7.8,4.5,12.2,5.5l0,0c17.9,4.1,35.8-7.2,39.8-25.1c1.3-5.9,1-12-0.8-17.7C137.9,76.3,142.7,61.3,138.3,47.6z M129.7,65.9
		L129.7,65.9L129.7,65.9z M128.8,65l-0.3-0.3L128.8,65z M128,64.2l-0.3-0.3L128,64.2z M127,63.4c-0.1-0.1-0.2-0.2-0.3-0.2
		C126.8,63.2,126.9,63.3,127,63.4L127,63.4z M125.8,62.4L125.8,62.4L125.8,62.4z M124.9,61.8l-0.3-0.2L124.9,61.8z M123.8,61.1
		l-0.4-0.2L123.8,61.1z M122.8,60.5l-0.3-0.2L122.8,60.5z M121.4,59.8L121.4,59.8L121.4,59.8z M120.3,59.3l-0.4-0.1L120.3,59.3z
		 M119.2,58.8l-0.4-0.1L119.2,58.8z M118.1,58.4l-0.3-0.1L118.1,58.4z M116.6,58h-0.1H116.6z M115.4,57.7l-0.4-0.1L115.4,57.7z
		 M114.3,57.4l-0.4-0.1L114.3,57.4z M113,57.3l-0.3-0.1L113,57.3z M111.5,57.1h-0.1H111.5z M110.3,57h-0.4H110.3z M109.1,57
		L109.1,57z M75.3,53L75.3,53L75.3,53L75.3,53L75.3,53c0.2,0.6,1.4,4,0,8.9V62V62V62v-0.2C73.9,57,75.1,53.6,75.3,53L75.3,53z
		 M80.3,65.5l0.1,0c4.2-2.8,7.8-2.8,8.5-2.8H89h0H89h-0.1c-0.5,0.4-3.4,2.6-8.5,2.8L80.3,65.5L80.3,65.5L80.3,65.5z M88.7,29.9
		l0.5-0.3L88.7,29.9z M80.1,37.8c0.2-0.2,0.3-0.4,0.5-0.6C80.4,37.4,80.3,37.6,80.1,37.8L80.1,37.8z M81.3,36.4
		c0.1-0.2,0.3-0.3,0.4-0.5C81.5,36,81.4,36.2,81.3,36.4L81.3,36.4z M82.8,34.7l0.5-0.5L82.8,34.7z M84,33.5l0.5-0.5L84,33.5z
		 M85.6,32.1l0.3-0.3L85.6,32.1z M87.2,30.9l0.5-0.3L87.2,30.9z M78.5,71.3l0.1,0.1c4,3.1,5.1,6.6,5.2,7.2l0.1,0.1h0v0l-0.1-0.1
		c-0.5-0.3-3.5-2.4-5.2-7.2L78.5,71.3L78.5,71.3C78.5,71.3,78.5,71.3,78.5,71.3L78.5,71.3z M79.1,39.2c0.1-0.2,0.3-0.4,0.4-0.6
		C79.4,38.8,79.2,39,79.1,39.2L79.1,39.2z M87,105.6c-0.1,0.3-0.2,0.5-0.3,0.8C86.8,106.1,86.9,105.8,87,105.6L87,105.6z
		 M86.4,107.4c-0.1,0.3-0.2,0.5-0.3,0.8C86.2,107.8,86.3,107.6,86.4,107.4L86.4,107.4z M85.6,109.1c-0.1,0.2-0.2,0.5-0.3,0.7
		C85.4,109.5,85.5,109.3,85.6,109.1z M84.8,110.8c-0.1,0.2-0.2,0.4-0.4,0.7C84.5,111.2,84.6,111,84.8,110.8z M88.7,95.4
		c0-2.1-0.2-4.3-0.6-6.4l0,0C88.5,91.1,88.7,93.2,88.7,95.4L88.7,95.4z M88.7,95.7c0,0.4,0,0.9-0.1,1.3
		C88.7,96.6,88.7,96.1,88.7,95.7L88.7,95.7z M88.6,97.5c0,0.4-0.1,0.8-0.1,1.2C88.5,98.3,88.6,97.9,88.6,97.5L88.6,97.5z M88.4,99.3
		c0,0.4-0.1,0.8-0.2,1.1C88.3,100,88.4,99.7,88.4,99.3L88.4,99.3z M88.2,101c-0.1,0.4-0.1,0.8-0.2,1.1C88,101.8,88.1,101.4,88.2,101
		L88.2,101z M87.8,102.7c-0.1,0.6-0.3,1.3-0.5,1.9C87.5,104,87.7,103.4,87.8,102.7L87.8,102.7z M91.4,88.6c0,0-0.1-0.1-0.1-0.1
		C91.4,88.6,91.4,88.6,91.4,88.6L91.4,88.6z M90.6,28.7l0.2-0.1L90.6,28.7z M92.4,27.8l0.5-0.2L92.4,27.8z M94.1,27l0.5-0.2L94.1,27
		z M107.7,57h-0.4H107.7z M106.2,57.2h-0.1H106.2z M104.9,57.3c-0.1,0-0.3,0-0.4,0.1C104.7,57.4,104.8,57.4,104.9,57.3L104.9,57.3z
		 M103.7,57.6l-0.4,0.1L103.7,57.6z M102.5,57.9l-0.4,0.1L102.5,57.9z M104.2,22.9c-2.9,0.2-5.7,0.7-8.4,1.6
		c-8.2,2.7-15,8.2-19.4,15.6c-0.4,0-0.7-0.1-1.1-0.1c0.2-13.4,10.5-24.4,23.9-25.5C101.3,17.1,103,19.9,104.2,22.9L104.2,22.9z
		 M97.3,13.2l0.9-0.1L97.3,13.2z M83.3,19.6l0.1-0.1L83.3,19.6z M84.2,18.8l0.2-0.1L84.2,18.8z M85.3,18l0.2-0.2L85.3,18z
		 M86.3,17.3l0.3-0.2L86.3,17.3z M87.4,16.6c0.1-0.1,0.2-0.1,0.3-0.2C87.7,16.5,87.5,16.5,87.4,16.6L87.4,16.6z M88.6,16l0.4-0.2
		L88.6,16z M89.7,15.4c0.1-0.1,0.3-0.1,0.4-0.2C90,15.3,89.9,15.3,89.7,15.4L89.7,15.4z M90.9,14.9c0.2-0.1,0.3-0.1,0.5-0.2
		C91.3,14.8,91.1,14.8,90.9,14.9L90.9,14.9z M92.1,14.4l0.6-0.2L92.1,14.4z M93.4,14l0.6-0.2L93.4,14z M94.7,13.7
		c0.2-0.1,0.4-0.1,0.7-0.1C95.1,13.6,94.9,13.6,94.7,13.7L94.7,13.7z M96,13.4l0.7-0.1L96,13.4z M81.4,21.3L81.4,21.3L81.4,21.3z
		 M82.4,20.4L82.4,20.4L82.4,20.4z M80.5,22.3L80.5,22.3z M61.8,62.8L61.8,62.8c0.7,0,4.4-0.1,8.6,2.8l0.1,0h-0.1l0.1,0l-0.1,0
		C65.3,65.4,62.4,63.2,61.8,62.8L61.8,62.8L61.8,62.8L61.8,62.8z M60.8,89.8c-0.1,0.1-0.1,0.2-0.2,0.3C60.7,90,60.8,89.9,60.8,89.8
		L60.8,89.8z M24.7,87.5c5.6,3.5,12,5.3,18.6,5.3c5.6,0,11.1-1.4,16-3.9c-0.3,0.5-0.6,0.9-0.9,1.3C53.5,97,45.7,101,37.4,101
		c-4.8,0-9.5-1.3-13.5-3.8C23.7,93.9,23.9,90.7,24.7,87.5L24.7,87.5z M48.3,90.8c-0.4,0.1-0.9,0.1-1.4,0.2
		C47.4,90.9,47.8,90.9,48.3,90.8L48.3,90.8z M46.5,91c-0.4,0-0.8,0.1-1.2,0.1C45.7,91.1,46.1,91.1,46.5,91L46.5,91z M44.9,91.1
		c-0.5,0-1.1,0-1.6,0c-0.5,0-1,0-1.5,0C42.8,91.2,43.9,91.2,44.9,91.1L44.9,91.1z M56.4,88.5c-1,0.4-2,0.8-3,1.1
		C54.4,89.3,55.4,88.9,56.4,88.5z M53.1,89.7c-0.4,0.1-0.8,0.2-1.2,0.4C52.3,89.9,52.7,89.8,53.1,89.7L53.1,89.7z M51.6,90.1
		c-0.4,0.1-0.9,0.2-1.3,0.3C50.6,90.4,51.1,90.3,51.6,90.1L51.6,90.1z M50,90.5c-0.5,0.1-1,0.2-1.6,0.3C49,90.7,49.5,90.6,50,90.5
		L50,90.5z M41.4,91.1c-0.4,0-0.8-0.1-1.2-0.1C40.6,91.1,41,91.1,41.4,91.1L41.4,91.1z M39.8,91c-0.5-0.1-1-0.1-1.5-0.2
		C38.7,90.9,39.2,90.9,39.8,91L39.8,91z M38.2,90.8c-0.5-0.1-1-0.2-1.6-0.3C37.1,90.6,37.6,90.7,38.2,90.8L38.2,90.8z M36.2,90.4
		c-0.4-0.1-0.8-0.2-1.1-0.3C35.4,90.2,35.8,90.3,36.2,90.4L36.2,90.4z M34.6,90c-0.5-0.1-1-0.3-1.5-0.5C33.5,89.7,34,89.9,34.6,90
		L34.6,90z M31.9,46.5c0.3,0.6,0.6,1.3,1,1.9C32.5,47.8,32.2,47.2,31.9,46.5L31.9,46.5z M31.8,89.1c-0.8-0.3-1.7-0.6-2.4-1
		C30.1,88.5,30.9,88.8,31.8,89.1L31.8,89.1z M58.1,87.7c0.4-0.2,0.9-0.4,1.3-0.7C58.9,87.3,58.5,87.5,58.1,87.7z M56.6,88.4
		c0.4-0.2,0.8-0.4,1.2-0.6C57.4,88,57,88.2,56.6,88.4L56.6,88.4z M50.6,57.5c-1.4-1.5-2.6-3-3.6-4.7C48,54.5,49.3,56.1,50.6,57.5z
		 M43.4,45.4c-0.1-0.3-0.2-0.6-0.3-0.8C43.2,44.8,43.3,45.1,43.4,45.4z M46.8,52.6c-0.2-0.4-0.5-0.7-0.7-1.1
		C46.3,51.8,46.6,52.2,46.8,52.6L46.8,52.6z M46,51.2c-0.6-1.1-1.2-2.3-1.7-3.5C44.8,48.9,45.3,50.1,46,51.2L46,51.2z M44,47.1
		c-0.1-0.3-0.2-0.6-0.3-0.9C43.8,46.5,43.9,46.8,44,47.1z M42.8,43.5c-0.1-0.2-0.1-0.4-0.2-0.6C42.7,43,42.7,43.2,42.8,43.5
		L42.8,43.5z M42.2,41.1c0-0.2-0.1-0.4-0.1-0.6C42.2,40.7,42.2,40.9,42.2,41.1L42.2,41.1z M41.9,39.3c0-0.2-0.1-0.4-0.1-0.7
		C41.9,38.8,41.9,39.1,41.9,39.3L41.9,39.3z M41.7,37.3c0-0.2,0-0.4,0-0.6C41.7,36.9,41.8,37.1,41.7,37.3L41.7,37.3z M31.6,28.5
		c3-1.2,6.2-1.9,9.5-2.2c-3,11.8,0.4,24.3,8.9,33l-0.1,0.3c-0.4-0.1-0.7-0.2-1.1-0.3C35.9,55.1,28.4,41.7,31.6,28.5L31.6,28.5z
		 M28.1,87.5c-0.8-0.4-1.5-0.8-2.3-1.3C26.6,86.7,27.3,87.1,28.1,87.5L28.1,87.5z M23.6,99l-0.3-0.2L23.6,99z M24.4,99.4l0.3,0.2
		L24.4,99.4z M25.7,100.1l0.1,0.1L25.7,100.1z M26.9,100.7l0.3,0.1L26.9,100.7z M28,101.1l0.4,0.1L28,101.1z M29.3,101.5l0.2,0.1
		L29.3,101.5z M30.7,101.9L31,102L30.7,101.9z M35.7,102.7h0.4H35.7z M31.8,102.2l0.4,0.1L31.8,102.2z M33.1,102.4l0.3,0L33.1,102.4
		z M34.5,102.6h0.3H34.5z M37,102.7L37,102.7z M55.3,96.2c0.3-0.3,0.7-0.6,1-0.9C56,95.5,55.7,95.8,55.3,96.2L55.3,96.2z
		 M37.7,102.7l1.1,0L37.7,102.7z M39.3,102.7c0.3,0,0.7-0.1,1-0.1C40,102.6,39.7,102.6,39.3,102.7L39.3,102.7z M40.8,102.5
		c0.4,0,0.7-0.1,1.1-0.2C41.5,102.4,41.2,102.5,40.8,102.5L40.8,102.5z M42.2,102.3c0.5-0.1,1-0.2,1.4-0.3
		C43.2,102.1,42.7,102.2,42.2,102.3L42.2,102.3z M44,101.9c0.4-0.1,0.7-0.2,1.1-0.3C44.8,101.7,44.4,101.8,44,101.9L44,101.9z
		 M45.6,101.5c0.3-0.1,0.6-0.2,0.9-0.3C46.2,101.3,45.9,101.4,45.6,101.5L45.6,101.5z M47,101c0.3-0.1,0.7-0.3,1-0.4
		C47.7,100.7,47.4,100.9,47,101L47,101z M48.4,100.4c0.4-0.2,0.9-0.4,1.3-0.6C49.3,100,48.9,100.2,48.4,100.4L48.4,100.4z M50,99.7
		c0.3-0.2,0.7-0.4,1-0.6C50.7,99.3,50.4,99.5,50,99.7L50,99.7z M51.4,98.9c0.3-0.2,0.6-0.3,0.9-0.5C52.1,98.5,51.8,98.7,51.4,98.9
		L51.4,98.9z M52.7,98.1c0.3-0.2,0.6-0.4,0.9-0.6C53.4,97.7,53.1,97.9,52.7,98.1L52.7,98.1z M54,97.2c0.4-0.3,0.8-0.6,1.2-0.9
		C54.8,96.6,54.4,96.9,54,97.2L54,97.2z M56.7,94.9c0.3-0.2,0.5-0.5,0.7-0.7C57.2,94.4,57,94.6,56.7,94.9L56.7,94.9z M58.5,93
		c-0.2,0.3-0.5,0.6-0.7,0.8C58.1,93.5,58.3,93.2,58.5,93L58.5,93z M58.8,92.6c0.3-0.4,0.6-0.8,1-1.2l0,0
		C59.5,91.7,59.2,92.2,58.8,92.6L58.8,92.6z M72.4,71.5c-1.7,4.8-4.7,6.9-5.2,7.2l-0.1,0.1c0,0,0,0,0-0.1l0,0l0.1-0.1
		C67.2,78,68.3,74.5,72.4,71.5l0-0.1C72.4,71.3,72.4,71.4,72.4,71.5l0.1-0.1L72.4,71.5z M72.7,67.2c0-1.5,1.2-2.6,2.6-2.6
		s2.6,1.2,2.6,2.6c0,1.5-1.2,2.6-2.6,2.6l0,0C73.9,69.8,72.8,68.6,72.7,67.2L72.7,67.2z M82.3,114.7L82.3,114.7
		c-1.3,1.8-2.8,3.4-4.4,4.9C79.5,118.1,81,116.5,82.3,114.7L82.3,114.7z M83.7,112.6l-0.3,0.6L83.7,112.6z M86.7,125.8
		c-3.1-0.8-6.1-2.1-8.9-3.8c9.5-7.9,14-20.2,12.1-32.4c0.3,0.4,0.7,0.8,1,1.3C98.8,101.7,97,116.9,86.7,125.8L86.7,125.8z
		 M96.8,112.3c-0.2,0.8-0.4,1.7-0.7,2.5C96.4,114,96.6,113.1,96.8,112.3c0.2-0.8,0.4-1.7,0.5-2.5C97.2,110.6,97,111.4,96.8,112.3
		L96.8,112.3z M114,68.1c0.2,0.2,0.5,0.3,0.7,0.5C114.5,68.4,114.2,68.3,114,68.1z M101.3,62.5c1.9,0.4,3.8,1,5.7,1.7
		C105.2,63.5,103.3,62.9,101.3,62.5z M107.1,64.3c0.4,0.2,0.8,0.3,1.2,0.5C107.9,64.6,107.5,64.4,107.1,64.3L107.1,64.3z
		 M108.6,64.9c0.4,0.2,0.8,0.4,1.1,0.6C109.4,65.3,109,65.1,108.6,64.9L108.6,64.9z M109.9,65.6c0.7,0.4,1.4,0.8,2.1,1.2
		C111.3,66.4,110.6,66,109.9,65.6L109.9,65.6z M112.5,67.1l0.8,0.6L112.5,67.1z M115.5,69.3c0.2,0.2,0.4,0.3,0.6,0.5
		C115.9,69.6,115.7,69.4,115.5,69.3z M117.4,70.9l0.4,0.4L117.4,70.9z M121.5,75.5c0.5,0.7,1,1.5,1.5,2.2
		C122.5,77,122,76.3,121.5,75.5L121.5,75.5z M118.7,72.2c0.2,0.2,0.3,0.3,0.4,0.5C119,72.5,118.8,72.3,118.7,72.2L118.7,72.2z
		 M120,73.6c0.1,0.2,0.3,0.3,0.4,0.4C120.2,73.9,120.1,73.8,120,73.6L120,73.6z M127,82c-4.4-11-14.2-19-25.9-21.3
		c0-0.2-0.1-0.4-0.1-0.7l0.3-0.1c12.9-4.2,26.8,2.3,32,14.8C131.6,77.5,129.5,80,127,82L127,82z M130.5,66.8l0.2,0.3L130.5,66.8z
		 M131.3,67.7c0.1,0.1,0.2,0.2,0.3,0.3C131.4,67.9,131.3,67.8,131.3,67.7L131.3,67.7z M132,68.7l0.2,0.3L132,68.7z M132.9,70
		L132.9,70z M134.7,73.4c0.1,0.1,0.1,0.2,0.2,0.4C134.7,73.6,134.7,73.5,134.7,73.4L134.7,73.4z M133.5,71.1
		c0.1,0.1,0.1,0.2,0.2,0.3C133.6,71.3,133.5,71.2,133.5,71.1L133.5,71.1z M134.1,72.2l0.2,0.4L134.1,72.2z"/>
	<g class="st1">
		<path class="st0" d="M189.1,100c-1.1,0-1.7-0.5-1.7-1.4c0-0.3,0-1.2,0.1-2.8c0-1.6,0.1-3.5,0.2-5.7c0.1-2.2,0.2-4.6,0.2-7
			c0-2.4,0.1-4.6,0.1-6.4c-1.5,1.1-2.9,2.1-4.4,3c-1.5,0.9-3,1.8-4.5,2.7c-0.7-0.1-0.9-0.6-0.8-1.2c3.1-2.2,6.4-4.9,9.8-8
			c0-1.6-0.1-2.8-0.2-3.7c-0.1-0.9-0.2-1.6-0.4-2.1c0-0.4,0-0.7,0.1-0.8c0.2-0.2,0.5-0.3,0.9-0.1c0.5,0.2,1.2,0.5,2,0.8
			c0.8,0.3,1.6,0.7,2.4,1.1c1.1-1.1,2.1-2.3,3.1-3.4c1-1.2,2-2.4,2.9-3.6c-1.2,0-2.4,0-3.5,0c-1.1,0-2.2,0-3.2,0c-1.7,0-3.1,0-4.2,0
			c-1.2,0-1.9,0-2.3,0c-2.5,0-4.5,0.2-5.9,0.4l-0.7-3.1c1.8,0.3,4,0.5,6.6,0.6h7.8V47.9c-0.6,0-1.2,0-1.8,0c-0.6,0-1.1,0-1.6,0
			c-0.8,0-1.4,0-2,0c-0.6,0-0.9,0-1.1,0c-2.1,0-3.8,0.2-5.2,0.4l-0.7-3.2c1.7,0.3,3.7,0.6,6,0.7h6.6v-7.1c0-1.8-0.2-2.9-0.5-3.4
			c-0.2-0.3-0.2-0.6,0-0.8c0.2-0.2,0.4-0.3,0.7-0.3c0.6,0,1.4,0.1,2.4,0.3c1,0.1,2.1,0.3,3.1,0.5c1,0.2,1.9,0.4,2.4,0.5
			c0.5,0.1,0.8,0.5,0.7,1.1c0,0.5-0.4,0.8-0.9,0.9c-0.5,0-0.9,0.2-1.3,0.4c-0.4,0.2-0.6,0.6-0.6,1.2v6.7h0.7c0.4,0,0.7-0.2,1-0.5
			c0.2-0.3,0.6-0.8,1-1.3c0.4-0.6,0.7-1,0.9-1.2c0.3-0.4,0.8-0.5,1.3-0.1c0.6,0.4,1.3,1,2,1.7c0.8,0.7,1.4,1.4,1.9,1.9
			c0.4-0.9,0.8-2,1.2-3.1c0.4-1.2,0.7-2.3,1-3.3c0.3-1,0.4-1.8,0.3-2.3c0-0.3,0.1-0.5,0.3-0.7c0.2-0.1,0.5-0.1,0.8,0
			c0.6,0.2,1.4,0.6,2.4,1c0.9,0.4,1.9,0.9,2.8,1.4c0.9,0.5,1.7,0.9,2.3,1.3c0.2,0.1,0.4,0.3,0.4,0.5c0,0.2,0,0.4-0.1,0.6
			c-0.2,0.5-0.6,0.7-1.1,0.5c-0.6-0.1-1.1,0-1.5,0.2c-0.3,0.2-0.6,0.6-0.9,1.2c-1.4,2.9-2.8,5.6-4.4,8.2c-1.6,2.6-3.3,5.1-5.1,7.4h3
			c0.5,0,0.9-0.2,1.2-0.5c0.2-0.3,0.7-0.9,1.3-1.7c0.7-0.8,1.1-1.3,1.3-1.6c0.4-0.5,0.8-0.5,1.4-0.1c0.4,0.3,1,0.7,1.6,1.3
			c0.6,0.6,1.2,1.1,1.9,1.7c0.6,0.6,1.1,1.1,1.3,1.5c0.3,0.4,0.4,0.8,0.3,1.1c-0.1,0.4-0.4,0.5-0.8,0.5h-14.5
			c-1.2,1.4-2.4,2.8-3.6,4c-1.2,1.3-2.5,2.5-3.8,3.7h7.8c0.4,0,0.7-0.1,0.9-0.4c0.2-0.2,0.5-0.6,0.9-0.9c0.4-0.4,0.7-0.8,0.9-1.1
			c0.4-0.4,0.9-0.5,1.5-0.1c0.7,0.3,1.6,0.9,2.8,1.6c1.2,0.7,2.1,1.4,2.7,1.9c0.4,0.3,0.5,0.6,0.4,1c-0.1,0.4-0.4,0.7-0.8,0.9
			c-0.2,0.1-0.4,0.2-0.6,0.3c-0.2,0.1-0.4,0.2-0.6,0.3c-0.4,0.3-0.7,0.8-0.7,1.6c0,1.5,0,3.1,0.1,5c0,1.9,0.1,3.8,0.1,5.8
			c0,1.9,0.1,3.8,0.1,5.5c0,1.7,0.1,3.1,0.1,4.2c0,1.1,0.1,1.8,0.1,2c0,0.5-0.5,1.1-1.5,1.6c-1,0.5-2.2,0.8-3.6,0.8
			c-0.5,0-0.9-0.1-1.2-0.3c-0.3-0.2-0.4-0.6-0.4-1.1v-2.1h-12.4v2.3c0,0.6-0.5,1.2-1.6,1.6C191.6,99.8,190.4,100,189.1,100z
			 M194.2,80.9h12.4v-9.5H195c-0.1,0.1-0.3,0.3-0.4,0.4c-0.1,0.1-0.3,0.2-0.4,0.3V80.9z M194.2,93.3h12.4V83.1h-12.4V93.3z
			 M199.4,59.2h1.2c1.3-1.8,2.5-3.6,3.7-5.5c1.2-1.9,2.2-3.8,3.1-5.8h-8V59.2z M221.5,100c-1.1,0-1.6-0.5-1.6-1.5
			c0-0.3,0-1.5,0.1-3.6c0.1-2.1,0.1-5,0.2-8.5c0.1-3.6,0.1-7.7,0.2-12.4c0.1-4.7,0.1-9.7,0.1-15.2c0-5.2,0-9.3-0.1-12.3
			c0-2.9-0.1-5.1-0.2-6.5c-0.1-1.4-0.3-2.3-0.5-2.9c-0.1-0.3,0-0.6,0.1-0.7c0.2-0.2,0.5-0.2,0.8-0.1c0.4,0.1,1.1,0.4,1.9,0.8
			c0.8,0.4,1.6,0.8,2.5,1.2c0.8,0.4,1.6,0.8,2.1,1.1h6.8c0.4,0,0.7-0.1,0.9-0.4c0.1-0.1,0.4-0.4,0.9-1c0.5-0.6,0.8-0.9,0.8-1.1
			c0.4-0.4,0.8-0.5,1.3-0.3c0.5,0.2,1.2,0.6,2.1,1.2c0.9,0.5,1.8,1.1,2.8,1.7c0.9,0.6,1.7,1.1,2.3,1.5c0.5,0.3,0.6,0.8,0.4,1.3
			c-0.1,0.5-0.5,0.8-1.2,0.8c-0.7,0-1.2,0.2-1.5,0.4c-0.3,0.2-0.7,0.7-1.1,1.3c-0.7,1-1.5,2.2-2.4,3.8c-0.9,1.6-1.8,3.2-2.8,4.8
			c-0.9,1.7-1.7,3.1-2.4,4.4c-0.7,1.3-1.2,2.2-1.4,2.8c-0.3,0.8-0.2,1.4,0.4,1.8c2.1,1.2,4.1,2.6,6,4.4c1.9,1.8,3.4,3.7,4.5,5.9
			c1.1,2.2,1.7,4.5,1.7,6.9c0,4.3-1.1,7.5-3.2,9.6c-2.1,2.1-4.9,3.3-8.5,3.8c-0.3-1.8-0.8-3.2-1.3-4.1c-0.5-0.9-1.2-1.6-2.1-2.1
			c-0.9-0.4-2.1-0.8-3.7-0.9c-0.4-0.6-0.3-1.1,0.3-1.5c0.9,0.1,2,0.2,3.2,0.3c1.2,0.1,2.4,0.1,3.5,0.1c3.3,0,4.9-2.3,4.9-6.8
			c0-3.1-0.7-5.9-2.1-8.5c-1.4-2.6-3.2-4.6-5.4-6c-0.4-0.3-0.7-0.6-0.8-1c-0.1-0.4-0.1-0.9,0.1-1.5c0.2-0.6,0.4-1.6,0.8-2.8
			c0.3-1.3,0.7-2.7,1-4.3c0.4-1.6,0.7-3.2,1.1-4.8c0.4-1.6,0.7-3.1,1-4.4c0.3-1.3,0.5-2.3,0.7-2.9h-8.6v56.1c0,0.6-0.5,1.1-1.5,1.5
			C223.9,99.8,222.7,100,221.5,100z"/>
		<path class="st0" d="M258.5,99.8c-0.6,0.2-1,0.1-1.2-0.4c-0.3-0.6-0.8-1.5-1.5-2.7c-0.7-1.2-1.4-2.4-2.1-3.7
			c-0.7-1.2-1.2-2.1-1.6-2.7c-0.1-0.2-0.1-0.5,0.1-0.7c0.1-0.1,0.4-0.2,0.8-0.2c0.3,0,0.8-0.1,1.3-0.1c0.5,0,1.1-0.1,1.8-0.1
			c1.6-0.1,3.2-0.4,5-0.7V46.1c0-2.9-0.1-5-0.2-6.5c-0.1-1.5-0.3-2.5-0.6-3.2c-0.1-0.2-0.1-0.5,0.1-0.7c0.2-0.2,0.5-0.2,0.8-0.1
			c0.6,0.2,1.3,0.5,2.3,0.9c0.9,0.4,1.9,0.8,2.9,1.3c1,0.5,1.9,0.9,2.6,1.3h33.1c0.4,0,0.8-0.2,0.9-0.5c0.2-0.3,0.5-0.7,0.9-1.2
			c0.3-0.5,0.7-0.9,0.9-1.2c0.3-0.4,0.8-0.5,1.4-0.2c0.5,0.2,1.2,0.5,2,1c0.8,0.5,1.6,0.9,2.4,1.4c0.8,0.5,1.5,0.9,2,1.2
			c0.4,0.2,0.6,0.5,0.6,1c0,0.5-0.2,0.8-0.7,1.1c-0.2,0.1-0.5,0.2-0.7,0.3c-0.2,0.1-0.4,0.2-0.7,0.4c-0.6,0.4-0.9,1.1-0.9,2
			c0,1.5,0,3.1,0.1,4.9c0.1,1.8,0.2,3.4,0.3,4.8c0.1,1.4,0.1,2.3,0.1,2.6c0,0.7-0.6,1.2-1.9,1.6c-1.3,0.4-2.6,0.6-3.8,0.6
			c-1.2,0-1.7-0.5-1.7-1.5v-1.9H289c0.1,2.1,0.3,4.1,0.5,6c0.2,1.9,0.5,3.7,0.8,5.4h14.8c0.6,0,1-0.2,1.4-0.5
			c0.2-0.2,0.5-0.6,0.9-1.1c0.4-0.5,0.9-1,1.3-1.6c0.5-0.5,0.8-0.9,0.9-1.1c0.5-0.5,1-0.6,1.6-0.2c0.5,0.3,1.2,0.8,2,1.4
			c0.8,0.6,1.6,1.3,2.4,1.9c0.8,0.6,1.3,1.1,1.7,1.5c0.4,0.4,0.5,0.9,0.4,1.3c-0.1,0.4-0.4,0.7-0.8,0.7h-26.1
			c1.1,4.2,2.6,7.7,4.4,10.5c1.8,2.8,3.8,5,6,6.7c2.2,1.7,4.5,2.9,6.8,3.8c0.8,0.3,1.5,0.4,2.1,0.3c0.6-0.1,1.1-0.6,1.6-1.4
			c0.3-0.5,0.7-1.2,1.1-2.2c0.5-1,0.9-2,1.4-3.1c0.5-1.1,0.9-2.1,1.3-2.9c0.4-0.9,0.6-1.5,0.8-1.9c0.7-0.3,1.2-0.2,1.5,0.4
			c0,0.4-0.2,1.1-0.4,2.1c-0.2,1-0.4,2.1-0.6,3.3c-0.2,1.2-0.4,2.3-0.6,3.4c-0.2,1-0.3,1.8-0.4,2.3c-0.1,0.8-0.1,1.4,0,1.8
			c0.1,0.4,0.4,0.8,1.1,1.3c0.8,0.7,1.2,1.5,1.4,2.4c0.2,0.9,0,1.7-0.5,2.4c-0.5,0.8-1.4,1.2-2.8,1.4c-1.4,0.2-3.1-0.1-5.2-0.7
			c-2.2-0.7-4.6-1.8-7.1-3.1c-2.5-1.4-5-3.2-7.4-5.5c-2.4-2.3-4.6-5.2-6.5-8.6c-1.9-3.5-3.5-7.7-4.6-12.6H268v18.6
			c2.7-0.4,5.4-0.9,8.2-1.4c2.7-0.5,5.2-0.9,7.6-1.4c2.3-0.4,4.2-0.8,5.8-1.1c0.2,0.1,0.4,0.3,0.5,0.6c0.1,0.3,0.1,0.6-0.1,0.9
			c-1.3,0.5-2.9,1.1-4.9,1.9c-2,0.8-4.1,1.6-6.4,2.5c-2.3,0.9-4.6,1.7-7,2.6c-2.3,0.9-4.5,1.7-6.4,2.4c-2,0.8-3.6,1.3-5,1.8
			c-0.9,0.3-1.3,1.1-1.1,2.3C259.2,99.2,259,99.6,258.5,99.8z M268,53.2h35.2V41.3H268V53.2z M268,66.9h15.7
			c-0.3-1.7-0.6-3.5-0.8-5.4c-0.2-1.9-0.3-3.9-0.4-6H268V66.9z"/>
		<path class="st0" d="M355.7,95c-0.6-0.6-0.7-1.2-0.2-1.7c3.3-0.5,6.4-1.5,9.4-2.9c3-1.4,5.6-3.2,7.9-5.4c2.3-2.2,4.1-4.8,5.4-7.7
			c1.3-2.9,2-6.2,2-9.7c0-4.7-0.9-8.8-2.7-12.2c-1.8-3.4-4.2-6-7.4-7.9c-3.2-1.8-6.9-2.8-11.1-2.8c0.5,1.1,0.8,2.2,0.9,3.5
			c0.1,1.3,0.2,2.5,0.1,3.9c-0.2,4.4-0.8,8.6-1.9,12.6c-1.1,4-2.5,7.6-4.1,10.8c-1.6,3.2-3.3,5.9-5.1,7.9c-1.7,2.1-3.4,3.4-4.9,4
			c-1.3,0.6-2.6,0.9-4,0.7c-1.4-0.1-2.7-0.9-3.9-2.4c-1-1.2-1.9-2.4-2.8-3.7c-0.9-1.3-1.7-2.8-2.3-4.5c-0.6-1.7-0.9-3.8-1-6.4
			c0-3.6,0.6-7.2,2-10.6c1.4-3.4,3.4-6.6,6-9.3c2.6-2.8,5.6-5,9.1-6.7c3.5-1.7,7.3-2.6,11.4-2.7c4-0.1,7.8,0.5,11.2,1.7
			c3.5,1.2,6.5,3,9.1,5.4c2.6,2.4,4.6,5.1,6,8.3c1.4,3.2,2.1,6.7,2.1,10.6c0,4.1-0.8,7.7-2.4,11c-1.6,3.3-3.8,6-6.7,8.3
			c-2.9,2.3-6.2,4.1-10,5.4C364.3,94,360.2,94.8,355.7,95z M342.5,80.4c1.3-0.4,2.6-1.5,4.1-3.4c1.5-1.9,3-4.2,4.4-7.1
			c1.4-2.8,2.6-5.9,3.6-9.3c1-3.4,1.5-6.8,1.7-10.2c0-0.2,0-0.5,0-0.7c0-0.2,0-0.4,0-0.6c0-0.8,0-1.6,0-2.3c0-0.7,0-1.4-0.1-2
			c-3.9,0.4-7.5,1.9-10.6,4.3c-3.1,2.5-5.5,5.6-7.2,9.4c-1.7,3.8-2.5,8-2.4,12.6c0.1,3.7,0.8,6.3,2.1,7.8
			C339.4,80.4,340.8,80.9,342.5,80.4z"/>
		<path class="st0" d="M421.5,92.7c-1.1,0.3-2,0.3-2.7-0.1c-0.8-0.4-1.2-1.2-1.4-2.4c0-0.7-0.6-1.4-1.5-2.3c-1-0.8-2.1-1.6-3.5-2.2
			c-1,1-1.7,1.8-2.3,2.5c-0.8,0.9-1.7,1.3-2.8,1.4c-1.1,0-2.1-0.4-2.9-1.5c-0.6-0.8-1.3-1.4-1.9-1.9c-0.6-0.5-1-1.2-1.1-2
			c-0.1-0.8,0.3-1.4,1.1-2c0.8-0.5,1.9-0.8,3.3-0.8c0.5,0,1,0,1.5,0.1c0.5,0,1,0.1,1.6,0.2c1.4-0.8,3-1.9,5-3.2
			c1.9-1.3,4.1-2.6,6.4-4c0-0.5-0.1-0.9-0.1-1.4c0-0.4,0-0.9,0-1.3c0-1.7,0-3.4,0-5.1c0-1.7,0.1-3.3,0.1-5c-2.3,0.4-4.5,0.7-6.8,0.9
			c-1.7,0.1-3.2-0.2-4.4-1c-1.2-0.8-2.1-1.7-2.8-3c-0.7-1.2-1-2.6-1.1-4c0.2-0.3,0.4-0.5,0.7-0.5c0.3,0,0.5,0,0.7,0.1
			c0.4,1.3,1.2,2.2,2.4,2.7c1.2,0.5,2.7,0.7,4.4,0.6c1,0,2.1-0.2,3.3-0.4c1.2-0.2,2.5-0.5,3.7-0.9c0.1-2,0.2-3.8,0.3-5.4
			c0.1-1.6,0.2-2.8,0.3-3.7c0.2-1.5,0-2.4-0.5-2.9c-0.2-0.2-0.6-0.4-1-0.4c-0.4,0-0.8,0-1.2,0c-0.5-0.5-0.6-1-0.1-1.5
			c0.8-0.2,1.8-0.4,2.8-0.4c1.1,0,2.1,0.1,3,0.3c1.6,0.3,2.7,1,3.4,2.1c0.7,1.1,0.6,2.1-0.2,3.1c-0.5,0.5-0.9,1.4-1.2,2.7
			c-0.3,1.3-0.6,2.8-0.8,4.5c0.5-0.2,1-0.4,1.5-0.6c0.4-0.2,0.8-0.4,1.2-0.6c0.3-0.2,0.7-0.2,1.1-0.1c0.4,0.1,0.9,0.4,1.6,0.7
			c0.2,0.1,0.3,0.2,0.4,0.2c1.3,0.6,2.1,1.4,2.2,2.4c0.2,1-0.4,1.7-1.6,2.1c-0.9,0.3-2,0.7-3.1,1c-1.2,0.3-2.4,0.6-3.6,1
			c-0.1,1.6-0.2,3.3-0.2,5c0,1.7-0.1,3.5-0.1,5.4V72c2.7-1.4,5.6-2.6,8.6-3.6c3-1,6-1.5,9.1-1.5c3.3,0,6,0.6,8.4,1.7
			c2.3,1.1,4.1,2.6,5.4,4.6c1.3,1.9,1.9,4.1,1.9,6.5c0,2.4-0.6,4.6-1.9,6.5c-1.3,1.9-3,3.4-5.2,4.5c-2.2,1.1-4.6,1.6-7.4,1.6
			c-3.4,0-6.2-1.1-8.2-3.3c-2-2.2-2.9-5-2.8-8.4c0.4-0.6,0.9-0.7,1.5-0.2c0.6,2.2,1.7,3.9,3.2,4.9c1.5,1,3.5,1.5,6,1.5
			c1.9,0,3.6-0.7,5.1-2c1.5-1.3,2.3-3,2.3-5.2c0-2.7-0.7-4.9-2.3-6.4c-1.6-1.6-3.9-2.3-6.9-2.3c-3,0-5.9,0.5-8.7,1.5
			c-2.8,1-5.5,2.2-7.9,3.7c0.2,2.9,0.5,5.3,0.8,7.2c0.3,1.9,0.5,3.1,0.5,3.6c0,1.2-0.3,2.4-1,3.5C424.3,91.3,423.1,92.1,421.5,92.7z
			 M418.6,85.5c1.1,0.7,1.7,0.4,1.7-0.9c0-0.5,0-1.2,0-2.2c0-1,0-2.2,0-3.5c-2.2,1.6-4,3.1-5.5,4.5c0.7,0.3,1.4,0.7,2.1,1
			C417.4,84.7,418,85.1,418.6,85.5z M452.4,60.6c-0.3-0.1-0.5-0.3-0.7-0.5c-0.2-0.2-0.2-0.5-0.2-0.8c0.5-0.5,1-1.1,1.5-1.7
			c0.5-0.6,1-1.1,1.5-1.5c-0.3-0.6-0.8-1.1-1.5-1.6c-0.7-0.5-1.7-0.7-2.8-0.8c-2.4-0.1-4.5,0.3-6.3,1.1c-1.8,0.8-3.5,2-5.1,3.6
			c-0.7,0-1.1-0.3-1.1-1c0.8-1.3,1.8-2.6,3.2-3.9c1.4-1.3,3-2.3,4.8-3.1c1.8-0.8,3.8-1.2,6-1.2c2,0,3.8,0.4,5.4,1.1
			c1.5,0.8,2.7,1.7,3.6,2.9c0.8,1.2,1.2,2.4,1.2,3.6c0,1.2-0.5,2-1.3,2.4c-0.8,0.5-1.7,0.5-2.6,0.3c-1.1-0.3-2.1-0.4-2.9-0.1
			C454.1,59.9,453.2,60.2,452.4,60.6z"/>
		<path class="st0" d="M511.9,100.5c-1.1,0-1.7-0.5-1.7-1.5V85.5h-13.4c-0.9,3.5-2.6,6.3-5,8.4c-2.4,2-5.2,3.5-8.5,4.5
			c-3.3,0.9-6.8,1.6-10.5,1.9c-0.2-0.2-0.4-0.4-0.5-0.7c-0.1-0.3,0-0.5,0.2-0.7c4.3-0.8,8.1-2.3,11.2-4.6c3.2-2.3,5.3-5.2,6.3-8.8
			h-13.3c-2.1,0-3.8,0.1-5,0.3l-0.7-3c1.6,0.2,3.5,0.4,5.8,0.5h13.7c0-0.1,0-0.3,0-0.4c0-0.1,0-0.3,0-0.5c0.1-1.7,0.2-3,0.1-3.8
			c0-0.8-0.2-1.5-0.4-1.9c-0.1-0.3-0.1-0.6,0-0.8c0.1-0.2,0.4-0.3,0.7-0.3c0.6,0.1,1.4,0.3,2.6,0.5c1.1,0.2,2.3,0.5,3.5,0.7
			c1.2,0.2,2.1,0.5,2.6,0.7c0.5,0.1,0.8,0.5,0.7,1.1c0,0.5-0.4,0.8-0.9,0.9c-0.5,0-0.9,0.2-1.3,0.3c-0.4,0.2-0.6,0.5-0.6,1.1
			c0,0.4-0.1,0.9-0.1,1.3c0,0.4-0.1,0.8-0.2,1.2h13V82c0-1.3-0.1-2.3-0.2-3c-0.1-0.8-0.3-1.3-0.5-1.6c-0.1-0.3-0.1-0.6,0-0.8
			c0.1-0.2,0.4-0.3,0.7-0.3c0.6,0,1.5,0.2,2.6,0.4c1.2,0.2,2.3,0.4,3.5,0.6c1.2,0.2,2,0.4,2.5,0.5c0.5,0.1,0.7,0.4,0.7,1
			c0,0.5-0.4,0.8-0.9,0.9c-0.5,0-0.9,0.2-1.3,0.4c-0.4,0.2-0.6,0.6-0.6,1.2v2h8.7c0.6,0,1.1-0.2,1.3-0.6c0.3-0.4,0.7-1,1.3-1.8
			c0.6-0.8,1-1.4,1.3-1.7c0.4-0.5,0.9-0.6,1.5-0.2c0.5,0.3,1.1,0.8,1.9,1.4c0.8,0.6,1.5,1.3,2.2,1.9c0.7,0.6,1.2,1.1,1.6,1.5
			c0.4,0.4,0.5,0.8,0.4,1.2c-0.1,0.4-0.4,0.6-0.8,0.6h-19.4c0,1.6,0,3.3,0.1,5.2c0.1,1.9,0.1,3.5,0.2,5c0.1,1.4,0.1,2.3,0.1,2.7
			c0,0.6-0.6,1.2-1.8,1.6C514.3,100.3,513.1,100.5,511.9,100.5z M492,50.3c-0.5,0-1-0.1-1.3-0.3c-0.3-0.2-0.5-0.6-0.5-1.1
			c0-0.3,0-1,0-1.9c0-0.9,0.1-1.9,0.1-3h-12.5c-2.5,0-4.4,0.2-5.9,0.4l-0.7-3.2c1.8,0.3,4,0.5,6.6,0.6h12.6c0-0.5,0-1,0-1.4
			c0-0.4,0-0.8,0-1.1c0-2-0.2-3.4-0.6-4.1c-0.1-0.3-0.1-0.6,0-0.8c0.1-0.2,0.4-0.3,0.7-0.3c0.6,0,1.4,0.2,2.5,0.3
			c1.1,0.2,2.2,0.4,3.3,0.6c1.1,0.2,1.9,0.4,2.5,0.5c0.5,0.1,0.8,0.5,0.7,1c0,0.6-0.4,0.9-0.9,0.9c-0.5,0-0.9,0.2-1.3,0.4
			c-0.4,0.2-0.5,0.6-0.5,1.2v2.8h12.3v-2.5c0-2-0.2-3.4-0.6-4.1c-0.1-0.3-0.1-0.6,0-0.8c0.1-0.2,0.4-0.3,0.7-0.2
			c0.6,0,1.4,0.2,2.5,0.3c1.1,0.2,2.2,0.4,3.3,0.5c1.1,0.2,1.9,0.4,2.5,0.5c0.5,0.1,0.8,0.5,0.7,1c0,0.5-0.4,0.8-0.9,0.9
			c-0.5,0-0.9,0.2-1.3,0.4c-0.4,0.2-0.5,0.6-0.5,1.2v2.8h9.6c0.5,0,0.9-0.2,1.2-0.5c0.2-0.2,0.5-0.5,0.9-1c0.4-0.5,0.8-1,1.2-1.5
			c0.4-0.5,0.7-0.8,0.8-0.9c0.4-0.5,0.9-0.6,1.5-0.3c0.5,0.2,1.1,0.7,1.9,1.3c0.8,0.6,1.6,1.2,2.3,1.8c0.7,0.6,1.2,1.1,1.5,1.5
			c0.4,0.4,0.5,0.8,0.4,1.2c-0.1,0.4-0.4,0.6-0.8,0.6h-20.5c0,1,0.1,1.9,0.1,2.7c0,0.8,0,1.2,0,1.4c0,0.5-0.5,1-1.5,1.4
			c-1,0.4-2.2,0.6-3.4,0.6c-1.1,0-1.7-0.5-1.7-1.5V44H497v4.3c0,0.5-0.5,1-1.5,1.4C494.4,50.1,493.3,50.3,492,50.3z M473,81.5
			c-0.6-0.3-0.8-0.8-0.4-1.4c2.3-1,4.6-2.1,6.8-3.3c2.3-1.2,4.4-2.6,6.5-4.2c0-0.1-0.1-0.2-0.2-0.4c-0.1-0.1-0.2-0.3-0.3-0.4
			c-0.3-1-0.7-1.9-1.2-2.7c-0.4-0.8-1-1.6-1.6-2.2c-2.9,2.1-6,3.9-9.4,5.5c-0.3-0.1-0.5-0.3-0.7-0.5c-0.1-0.2-0.2-0.5-0.1-0.7
			c3-2.1,5.8-4.6,8.3-7.5c2.5-2.9,4.6-5.9,6.4-9.2c-0.9,0-1.7,0-2.4,0c-0.8,0-1.4,0-2,0c-1,0-1.7,0-2.3,0c-0.6,0-1,0-1.2,0
			c-2.1,0-3.8,0.1-5,0.3l-0.7-3c1.6,0.2,3.4,0.4,5.7,0.5h43.8c0.5,0,0.9-0.2,1.2-0.6c0.2-0.3,0.7-0.9,1.3-1.6
			c0.6-0.8,1.1-1.3,1.3-1.6c0.3-0.5,0.8-0.5,1.5-0.1c0.4,0.3,1,0.7,1.7,1.3c0.7,0.6,1.3,1.1,2,1.7c0.6,0.6,1.1,1,1.4,1.3
			c0.4,0.4,0.5,0.9,0.4,1.3c-0.1,0.4-0.4,0.6-0.8,0.6h-19.4v8.5c1.6-0.6,3.2-1.4,4.8-2.4c1.7-1,3.1-2,4.3-3.1
			c0.3-0.2,0.6-0.5,0.8-0.7c0.2-0.2,0.3-0.4,0.5-0.6c0.2-0.3,0.5-0.5,0.7-0.5c0.2,0,0.4,0.1,0.7,0.3c0.4,0.3,0.9,0.7,1.6,1.3
			c0.7,0.6,1.4,1.2,2.1,1.8c0.7,0.6,1.2,1,1.5,1.4c0.4,0.3,0.4,0.7,0,1.2c-0.3,0.3-0.7,0.4-1.1,0.2c-0.3-0.1-0.7-0.2-1-0.3
			c-0.3,0-0.8,0-1.5,0.3c-2.2,0.7-4.5,1.3-6.8,1.7c-2.3,0.5-4.5,0.8-6.6,1.1v3.1c0,0.7,0.2,1.2,0.5,1.5c0.3,0.3,0.9,0.5,1.9,0.6
			c0.9,0,2.1,0.1,3.6,0.1c1.5,0,3,0,4.4-0.1c1.5-0.1,2.7-0.2,3.5-0.4c1.2-0.2,2.1-0.9,2.5-2.1c0.3-0.8,0.7-1.8,1.1-3
			c0.4-1.2,0.7-2.4,1.1-3.5c0.3-1.1,0.5-1.9,0.6-2.3c0.2-0.2,0.5-0.3,0.8-0.2c0.3,0.1,0.5,0.2,0.7,0.5c0,0.5,0,1.4-0.1,2.5
			c-0.1,1.1-0.1,2.2-0.2,3.2c-0.1,1-0.1,1.8-0.1,2.2c0,0.8,0.3,1.3,0.9,1.5c1.6,0.6,2.4,1.5,2.4,2.8c0,0.8-0.3,1.5-0.8,2.1
			c-0.6,0.6-1.6,1-3,1.2c-1.4,0.2-3.1,0.4-5,0.6c-1.9,0.1-3.8,0.2-5.9,0.3c-2,0-3.9,0.1-5.8,0c-1.8,0-3.3-0.1-4.6-0.2
			c-1.6-0.1-2.8-0.4-3.5-1.1c-0.7-0.6-1.1-1.6-1.1-2.9V54.4H495c-1.1,1.7-2.3,3.3-3.6,4.7h5c0.4,0,0.8-0.1,1-0.3
			c0.2-0.2,0.6-0.5,1.1-1c0.6-0.5,0.9-0.8,1.1-1c0.5-0.4,0.9-0.4,1.4,0c0.3,0.2,0.8,0.6,1.5,1.2c0.7,0.5,1.3,1.1,1.9,1.6
			c0.6,0.5,1.1,0.9,1.4,1.2c0.4,0.4,0.5,0.8,0.2,1.4c-0.3,0.4-0.7,0.6-1.1,0.6c-0.7,0-1.2,0-1.5,0.2c-0.3,0.2-0.7,0.5-1.2,1.1
			c-3.8,4.9-8.3,8.6-13.4,11.3C483.8,77.9,478.5,80,473,81.5z M489.9,69c1.2-1.1,2.4-2.3,3.5-3.6c1.1-1.3,2.1-2.7,3.2-4.2h-7.2
			c-1.4,1.4-2.8,2.7-4.3,3.9c1.2,0.3,2.2,0.8,3.1,1.4C489,67.1,489.6,67.9,489.9,69z"/>
		<path class="st0" d="M550.4,100c-0.5,0.2-0.9,0.1-1.2-0.3c-0.2-0.4-0.5-1-1-1.8c-0.5-0.8-1-1.7-1.6-2.7c-0.6-1-1.1-1.9-1.6-2.8
			c-0.5-0.9-0.8-1.6-1.1-2c-0.2-0.3-0.2-0.6-0.1-0.8c0.1-0.1,0.4-0.2,0.8-0.3c0.4,0,0.9,0,1.5-0.1c0.6,0,1.2-0.1,1.9-0.2
			c1.4-0.1,2.9-0.4,4.6-0.7c1.7-0.3,3.6-0.6,5.5-0.9v-19c-0.7,0-1.3,0-2,0c-0.6,0-1.2,0-1.8,0c-0.9,0-1.7,0-2.3,0
			c-0.6,0-1.1,0-1.3,0c-1.1,0-2.1,0-2.9,0.1c-0.8,0-1.6,0.1-2.3,0.3l-0.7-3.1c1.4,0.2,3.4,0.4,5.9,0.5h17c0.5,0,1-0.2,1.3-0.5
			c0.2-0.2,0.5-0.6,0.9-1.1c0.4-0.5,0.8-1,1.2-1.5c0.4-0.5,0.7-0.9,0.8-1.1c0.4-0.5,0.9-0.6,1.5-0.2c0.8,0.5,1.8,1.2,2.9,2.3
			c1.1,1,1.9,1.8,2.5,2.5c0.4,0.4,0.5,0.9,0.4,1.3c-0.1,0.4-0.4,0.6-0.9,0.6h-13.5v17.8c3.7-0.7,7.3-1.4,10.6-2.1
			c3.3-0.7,5.9-1.2,7.7-1.6c0.2,0.1,0.4,0.3,0.5,0.6c0.1,0.3,0.1,0.6,0,0.9c-1.2,0.5-2.8,1.1-4.8,2c-2,0.8-4.2,1.7-6.6,2.7
			c-2.4,1-4.9,2-7.4,3c-2.5,1-4.9,1.9-7.1,2.8c-2.3,0.9-4.2,1.6-5.9,2.2c-0.5,0.2-0.8,0.5-0.9,0.8c-0.1,0.3-0.1,0.8,0,1.4
			C551.2,99.3,551,99.7,550.4,100z M609.2,98.5c-0.6,0.9-1.9,1.2-3.9,1.1c-2-0.1-4.2-1-6.6-2.7c-2.3-1.6-4.5-3.5-6.7-5.8
			c-2.2-2.3-4.2-5.1-6-8.5c-1.8-3.4-3.4-7.5-4.6-12.3c-1.3-4.8-2.1-10.6-2.6-17.2c-2.6,0-5.2,0-7.7,0c-2.5,0-4.9,0-7.1,0
			c-3.7,0-6.8,0-9.2,0s-3.9,0-4.1,0c-2.5,0-4.5,0.2-6,0.4l-0.7-3.1c1.7,0.2,3.9,0.4,6.6,0.5h28.2c0-1.4-0.1-2.8-0.1-4.3
			c0-1.4-0.1-2.9-0.1-4.4c0-2.1-0.1-3.7-0.3-4.8c-0.2-1.1-0.4-1.9-0.7-2.4c-0.1-0.3-0.1-0.6,0.1-0.7c0.1-0.2,0.4-0.3,0.7-0.2
			c0.7,0,1.6,0.2,2.8,0.4c1.2,0.2,2.3,0.4,3.5,0.7c1.1,0.2,2.1,0.5,2.7,0.7c0.5,0.1,0.8,0.5,0.7,0.9c0,0.5-0.3,0.8-0.9,0.9
			c-0.6,0-1.1,0.2-1.3,0.3c-0.2,0.2-0.4,0.6-0.4,1.2c-0.1,2.1-0.1,4.1-0.1,6c0,1.9,0,3.8,0.1,5.7h12.6c0.6,0,1.1-0.2,1.4-0.6
			c0.2-0.2,0.5-0.6,0.9-1.1c0.4-0.5,0.8-1,1.2-1.5c0.4-0.5,0.7-0.9,0.8-1.1c0.4-0.5,0.9-0.6,1.6-0.2c0.5,0.3,1.2,0.7,2,1.3
			c0.8,0.6,1.6,1.2,2.3,1.9c0.8,0.7,1.3,1.2,1.6,1.6c0.4,0.4,0.5,0.9,0.4,1.3c-0.1,0.4-0.4,0.6-0.8,0.6h-23.9
			c0.4,6.9,1.3,12.8,2.8,17.5c1.5,4.8,3.3,8.6,5.5,11.6c2.2,3,4.5,5.2,6.9,6.8c1.3,0.9,2.4,0.7,3.1-0.6c0.3-0.5,0.7-1.2,1.2-2.2
			c0.5-1,1-2.1,1.5-3.2c0.5-1.1,0.9-2.2,1.4-3.2c0.4-1,0.8-1.7,0.9-2.2c0.7-0.3,1.2-0.2,1.5,0.3c-0.1,0.5-0.3,1.3-0.5,2.4
			c-0.2,1.1-0.5,2.2-0.7,3.4c-0.3,1.2-0.5,2.3-0.7,3.4c-0.2,1.1-0.4,1.9-0.5,2.4c-0.3,1.5,0,2.7,0.9,3.6c0.7,0.8,1.2,1.6,1.5,2.6
			C610,96.7,609.8,97.6,609.2,98.5z M598.4,47.3c-0.6,0.2-1.2,0.3-1.8,0.1c-0.6-0.2-1-0.6-1.3-1.3c-0.6-1.6-1.5-3.2-2.6-4.6
			c-1.1-1.4-2.3-2.5-3.7-3.3c-0.2-0.7,0-1.2,0.7-1.5c2.6,0.2,4.8,0.8,6.8,1.7c1.9,0.9,3.2,2,3.8,3.5c0.5,1.4,0.6,2.5,0.1,3.5
			C599.8,46.3,599.2,47,598.4,47.3z"/>
	</g>
</g>
</svg>
