<?xml version="1.0" encoding="utf-8"?>
<!-- Generator: Adobe Illustrator 26.1.0, SVG Export Plug-In . SVG Version: 6.00 Build 0)  -->
<svg version="1.1" id="レイヤー_1" xmlns="http://www.w3.org/2000/svg" xmlns:xlink="http://www.w3.org/1999/xlink" x="0px"
	 y="0px" viewBox="0 0 800 200" style="enable-background:new 0 0 800 200;" xml:space="preserve">
<style type="text/css">
	.st0{fill:#C85554;}
	.st1{enable-background:new    ;}
	.st2{fill:#1E4164;}
</style>
<g id="ロゴ03">
	<path class="st0" d="M172.3,76.9c-5.9-18.2-22.9-30.5-42-30.5c-1.8-5.7-4.8-10.9-8.8-15.4c-0.6,0-1.2,0.1-1.8,0.1
		c0.6-0.1,1.2-0.1,1.8-0.1c-16.1-18.3-44-20.2-62.3-4.1c-6,5.2-10.4,12-12.9,19.5l0,0C22,46.4,2.2,66.2,2.2,90.6
		c0,14.1,6.8,27.4,18.2,35.7c-1.8,5.7-2.5,11.7-2,17.7l0,0c2.2,24.3,23.7,42.2,48,39.9c7.9-0.7,15.5-3.6,21.9-8.3
		c4.8,3.5,10.4,6,16.2,7.3l0,0c23.8,5.4,47.4-9.5,52.8-33.3c1.8-7.8,1.4-15.9-1.1-23.4C171.8,115,178.2,95.1,172.3,76.9z
		 M160.9,101.2L160.9,101.2L160.9,101.2z M159.8,100l-0.4-0.3L159.8,100z M158.6,98.9l-0.4-0.4L158.6,98.9z M157.4,97.9
		c-0.1-0.1-0.2-0.2-0.4-0.3C157.2,97.7,157.2,97.8,157.4,97.9L157.4,97.9z M155.8,96.6L155.8,96.6L155.8,96.6z M154.5,95.7l-0.4-0.3
		L154.5,95.7z M153.2,94.8l-0.5-0.3L153.2,94.8z M151.8,94l-0.4-0.2L151.8,94z M149.9,93.1l-0.1-0.1L149.9,93.1z M148.5,92.4
		l-0.5-0.2L148.5,92.4z M147.1,91.8l-0.5-0.2L147.1,91.8z M145.5,91.3l-0.4-0.2L145.5,91.3z M143.5,90.7h-0.2H143.5z M142,90.3
		l-0.5-0.1L142,90.3z M140.5,90l-0.5-0.1L140.5,90z M138.8,89.7l-0.5-0.1L138.8,89.7z M136.8,89.5h-0.2H136.8z M135.2,89.4h-0.5
		H135.2z M133.6,89.4L133.6,89.4z M88.9,84.1v-0.1V84.1v-0.1V84.1c0.3,0.8,1.9,5.4,0,11.8v0.2V96v0.1v-0.2
		C87,89.4,88.5,84.8,88.9,84.1L88.9,84.1z M95.4,100.7l0.2-0.1c5.6-3.8,10.4-3.7,11.3-3.7h0.1h-0.1h0.1h-0.1
		c-0.7,0.5-4.5,3.4-11.3,3.7L95.4,100.7L95.4,100.7L95.4,100.7z M106.6,53.4l0.7-0.4L106.6,53.4z M95.2,64c0.2-0.3,0.4-0.5,0.6-0.8
		C95.6,63.4,95.4,63.7,95.2,64L95.2,64z M96.7,62c0.2-0.2,0.3-0.4,0.5-0.6C97.1,61.6,96.9,61.8,96.7,62L96.7,62z M98.7,59.8l0.6-0.6
		L98.7,59.8z M100.4,58.2l0.7-0.6L100.4,58.2z M102.4,56.4l0.4-0.3L102.4,56.4z M104.6,54.7l0.6-0.5L104.6,54.7z M93.1,108.3
		l0.1,0.1c5.3,4.1,6.7,8.7,7,9.6l0.1,0.1h-0.1v0.1l-0.1-0.1c-0.7-0.5-4.7-3.2-7-9.6L93.1,108.3l0,0.1
		C93.1,108.3,93.1,108.3,93.1,108.3L93.1,108.3z M93.8,65.8c0.2-0.3,0.4-0.5,0.6-0.8C94.2,65.3,94,65.5,93.8,65.8L93.8,65.8z
		 M104.4,153.8c-0.1,0.4-0.3,0.7-0.4,1.1C104.1,154.5,104.2,154.1,104.4,153.8L104.4,153.8z M103.5,156.2c-0.1,0.3-0.3,0.7-0.4,1
		C103.2,156.8,103.4,156.5,103.5,156.2L103.5,156.2z M102.5,158.4c-0.2,0.3-0.3,0.6-0.5,1C102.2,159.1,102.4,158.7,102.5,158.4z
		 M101.4,160.7c-0.2,0.3-0.3,0.6-0.5,0.9C101,161.3,101.2,161,101.4,160.7z M106.5,140.2c0-2.8-0.2-5.7-0.8-8.4l0,0
		C106.3,134.6,106.6,137.4,106.5,140.2L106.5,140.2z M106.5,140.7c0,0.6,0,1.1-0.1,1.7C106.5,141.8,106.5,141.3,106.5,140.7
		L106.5,140.7z M106.4,143.1c0,0.5-0.1,1.1-0.1,1.6C106.4,144.1,106.4,143.6,106.4,143.1L106.4,143.1z M106.2,145.4
		c-0.1,0.5-0.1,1-0.2,1.5C106.1,146.5,106.1,145.9,106.2,145.4L106.2,145.4z M105.9,147.8c-0.1,0.5-0.2,1-0.3,1.5
		C105.7,148.8,105.8,148.3,105.9,147.8L105.9,147.8z M105.4,150c-0.2,0.8-0.4,1.7-0.7,2.5C105,151.7,105.2,150.9,105.4,150
		L105.4,150z M110.2,131.3c0-0.1-0.1-0.1-0.1-0.2C110.1,131.2,110.2,131.3,110.2,131.3L110.2,131.3z M109.1,51.8l0.2-0.1L109.1,51.8
		z M111.4,50.6l0.7-0.3L111.4,50.6z M113.7,49.6l0.7-0.3L113.7,49.6z M131.8,89.4h-0.5H131.8z M129.7,89.6h-0.1H129.7z M128.1,89.9
		c-0.2,0-0.3,0.1-0.5,0.1C127.8,89.9,127.9,89.9,128.1,89.9L128.1,89.9z M126.5,90.2l-0.6,0.1L126.5,90.2z M124.8,90.6l-0.5,0.1
		L124.8,90.6z M127.2,44.2c-3.8,0.3-7.5,1-11.1,2.2c-10.8,3.5-19.9,10.9-25.7,20.7c-0.5,0-1-0.1-1.4-0.1c0.2-17.8,14-32.4,31.7-33.8
		C123.3,36.6,125.6,40.3,127.2,44.2L127.2,44.2z M118,31.3l1.1-0.1L118,31.3z M99.4,39.8l0.2-0.1L99.4,39.8z M100.7,38.7l0.2-0.2
		L100.7,38.7z M102,37.7l0.3-0.2L102,37.7z M103.4,36.7l0.4-0.2L103.4,36.7z M104.9,35.8c0.1-0.1,0.3-0.2,0.4-0.2
		C105.2,35.7,105,35.7,104.9,35.8L104.9,35.8z M106.4,35l0.5-0.2L106.4,35z M107.9,34.3c0.2-0.1,0.4-0.2,0.6-0.2
		C108.3,34.1,108.1,34.2,107.9,34.3L107.9,34.3z M109.5,33.6c0.2-0.1,0.4-0.2,0.7-0.2C110,33.4,109.7,33.5,109.5,33.6L109.5,33.6z
		 M111.1,33l0.8-0.2L111.1,33z M112.8,32.4l0.8-0.2L112.8,32.4z M114.5,32c0.3-0.1,0.6-0.1,0.9-0.2C115.1,31.8,114.8,31.9,114.5,32
		L114.5,32z M116.2,31.6l1-0.2L116.2,31.6z M97,42L97,42L97,42z M98.2,40.8l-0.1,0.1L98.2,40.8z M95.7,43.3L95.7,43.3z M71,97l0.1,0
		c0.8,0,5.7-0.1,11.3,3.7l0.2,0.1h-0.1l0.1,0.1l-0.2-0.1C75.6,100.6,71.7,97.7,71,97L71,97L71,97L71,97z M69.6,132.9
		c-0.1,0.1-0.1,0.2-0.2,0.4C69.5,133.1,69.5,133,69.6,132.9L69.6,132.9z M21.7,129.9c7.4,4.6,15.9,7.1,24.6,7.1
		c7.4,0,14.7-1.8,21.2-5.2c-0.4,0.6-0.8,1.2-1.2,1.7c-6.5,8.9-16.8,14.2-27.8,14.2c-6.3,0-12.6-1.8-18-5.1
		C20.3,138.3,20.7,134.1,21.7,129.9L21.7,129.9z M52.9,134.2c-0.6,0.1-1.2,0.2-1.8,0.2C51.7,134.4,52.3,134.3,52.9,134.2L52.9,134.2
		z M50.6,134.5c-0.5,0-1.1,0.1-1.6,0.1C49.5,134.6,50.1,134.6,50.6,134.5L50.6,134.5z M48.5,134.6c-0.7,0-1.4,0.1-2.1,0.1
		c-0.7,0-1.4,0-2-0.1C45.7,134.7,47.1,134.7,48.5,134.6L48.5,134.6z M63.7,131.2c-1.3,0.5-2.6,1-3.9,1.5
		C61.1,132.2,62.4,131.7,63.7,131.2z M59.4,132.7c-0.6,0.2-1.1,0.3-1.7,0.5C58.3,133.1,58.8,132.9,59.4,132.7L59.4,132.7z
		 M57.3,133.3c-0.6,0.2-1.2,0.3-1.8,0.4C56.1,133.6,56.7,133.5,57.3,133.3L57.3,133.3z M55.3,133.8c-0.7,0.1-1.4,0.3-2.1,0.4
		C53.9,134.1,54.6,133.9,55.3,133.8L55.3,133.8z M43.8,134.6c-0.5,0-1.1-0.1-1.6-0.1C42.7,134.6,43.3,134.6,43.8,134.6L43.8,134.6z
		 M41.7,134.4c-0.7-0.1-1.4-0.2-2-0.3C40.3,134.3,41,134.4,41.7,134.4L41.7,134.4z M39.6,134.2c-0.7-0.1-1.4-0.2-2.1-0.4
		C38.2,134,38.9,134.1,39.6,134.2L39.6,134.2z M37,133.6c-0.5-0.1-1-0.2-1.5-0.4C35.9,133.5,36.4,133.5,37,133.6L37,133.6z
		 M34.8,133.1c-0.7-0.2-1.4-0.4-2.1-0.6C33.4,132.8,34.1,133,34.8,133.1L34.8,133.1z M31.3,75.5c0.4,0.8,0.8,1.7,1.3,2.5
		C32,77.2,31.6,76.4,31.3,75.5L31.3,75.5z M31.1,131.9c-1.1-0.4-2.2-0.9-3.2-1.3C28.9,131.1,29.9,131.6,31.1,131.9L31.1,131.9z
		 M66,130.1c0.6-0.3,1.2-0.6,1.7-0.9C67.1,129.5,66.5,129.8,66,130.1z M64,131c0.5-0.2,1.1-0.5,1.6-0.8
		C65.1,130.5,64.5,130.8,64,131L64,131z M56.1,90.1c-1.8-1.9-3.4-4-4.8-6.2C52.7,86.1,54.3,88.2,56.1,90.1z M46.5,74
		c-0.1-0.4-0.2-0.8-0.4-1.1C46.2,73.2,46.4,73.6,46.5,74z M51,83.6c-0.3-0.5-0.6-1-0.9-1.5C50.4,82.6,50.7,83,51,83.6L51,83.6z
		 M49.9,81.7c-0.8-1.5-1.6-3-2.3-4.6C48.3,78.7,49.1,80.2,49.9,81.7L49.9,81.7z M47.3,76.2c-0.2-0.4-0.3-0.8-0.5-1.2
		C47,75.4,47.1,75.8,47.3,76.2z M45.7,71.4c-0.1-0.3-0.2-0.6-0.2-0.8C45.5,70.9,45.6,71.1,45.7,71.4L45.7,71.4z M45,68.4
		c-0.1-0.3-0.1-0.6-0.1-0.8C44.9,67.8,44.9,68.1,45,68.4L45,68.4z M44.6,65.9c0-0.3-0.1-0.6-0.1-0.9C44.5,65.3,44.6,65.6,44.6,65.9
		L44.6,65.9z M44.3,63.3c0-0.3,0-0.5-0.1-0.8C44.3,62.8,44.3,63.1,44.3,63.3L44.3,63.3z M30.8,51.7c4-1.6,8.2-2.6,12.5-2.9
		C39.4,64.4,43.9,81,55.2,92.5l-0.1,0.3c-0.5-0.1-1-0.3-1.4-0.4C36.6,86.9,26.6,69.1,30.8,51.7L30.8,51.7z M26.2,129.9
		c-1-0.5-2-1.1-3-1.7C24.2,128.8,25.2,129.3,26.2,129.9L26.2,129.9z M20.2,145.1l-0.4-0.2L20.2,145.1z M21.3,145.7l0.4,0.2
		L21.3,145.7z M23,146.5l0.2,0.1L23,146.5z M24.6,147.3l0.4,0.2L24.6,147.3z M26.1,147.9l0.5,0.2L26.1,147.9z M27.8,148.4l0.3,0.1
		L27.8,148.4z M29.6,148.9L30,149L29.6,148.9z M36.3,150h0.5H36.3z M31.2,149.3l0.5,0.1L31.2,149.3z M32.9,149.6l0.4,0.1L32.9,149.6
		z M34.8,149.8h0.4H34.8z M38,150L38,150z M62.3,141.3c0.4-0.4,0.9-0.8,1.3-1.2C63.2,140.5,62.8,140.9,62.3,141.3L62.3,141.3z
		 M38.9,150l1.4,0L38.9,150z M41,149.9c0.4,0,0.9-0.1,1.3-0.1C42,149.8,41.5,149.9,41,149.9L41,149.9z M43,149.8
		c0.5-0.1,1-0.1,1.5-0.2C44,149.6,43.6,149.7,43,149.8L43,149.8z M44.9,149.5c0.6-0.1,1.3-0.2,1.9-0.4
		C46.3,149.2,45.6,149.3,44.9,149.5L44.9,149.5z M47.3,149c0.5-0.1,1-0.2,1.4-0.4C48.3,148.7,47.8,148.8,47.3,149L47.3,149z
		 M49.4,148.4c0.4-0.1,0.8-0.3,1.2-0.4C50.3,148.1,49.9,148.2,49.4,148.4L49.4,148.4z M51.3,147.8c0.4-0.2,0.9-0.3,1.3-0.5
		C52.2,147.4,51.8,147.6,51.3,147.8L51.3,147.8z M53.1,147c0.6-0.3,1.2-0.5,1.8-0.8C54.3,146.5,53.7,146.7,53.1,147L53.1,147z
		 M55.2,146c0.5-0.2,0.9-0.5,1.4-0.8C56.2,145.5,55.7,145.8,55.2,146L55.2,146z M57.2,144.9c0.4-0.2,0.8-0.5,1.1-0.7
		C58,144.5,57.6,144.7,57.2,144.9L57.2,144.9z M58.9,143.8c0.4-0.3,0.8-0.5,1.1-0.8C59.7,143.3,59.3,143.6,58.9,143.8L58.9,143.8z
		 M60.5,142.7c0.5-0.4,1-0.8,1.6-1.2C61.6,141.8,61.1,142.3,60.5,142.7L60.5,142.7z M64.1,139.7c0.3-0.3,0.7-0.6,1-1
		C64.8,139,64.5,139.3,64.1,139.7L64.1,139.7z M66.5,137.1c-0.3,0.4-0.6,0.8-0.9,1.1C65.9,137.8,66.2,137.4,66.5,137.1L66.5,137.1z
		 M66.9,136.6c0.4-0.5,0.9-1.1,1.3-1.7l0,0C67.8,135.5,67.4,136,66.9,136.6L66.9,136.6z M84.9,108.6c-2.3,6.3-6.2,9.1-7,9.6
		l-0.1,0.1c0,0,0,0,0-0.1l-0.1,0l0.1-0.1C78.1,117.3,79.5,112.7,84.9,108.6l0-0.2C84.9,108.4,84.9,108.4,84.9,108.6l0.1-0.1
		L84.9,108.6z M85.4,102.9c0-1.9,1.6-3.5,3.5-3.5c1.9,0,3.5,1.6,3.5,3.5c0,1.9-1.6,3.5-3.5,3.5l0,0C87,106.3,85.4,104.7,85.4,102.9
		L85.4,102.9z M98.1,165.9L98.1,165.9c-1.7,2.4-3.7,4.5-5.8,6.5C94.4,170.5,96.4,168.3,98.1,165.9L98.1,165.9z M100,163.1l-0.4,0.8
		L100,163.1z M103.9,180.6c-4.2-1.1-8.1-2.7-11.8-5c12.5-10.5,18.6-26.8,16-43c0.5,0.6,0.9,1.1,1.3,1.7
		C120,148.7,117.6,168.9,103.9,180.6L103.9,180.6z M117.3,162.7c-0.3,1.1-0.6,2.2-0.9,3.3C116.7,164.9,117.1,163.8,117.3,162.7
		c0.3-1.1,0.5-2.2,0.6-3.4C117.8,160.5,117.6,161.6,117.3,162.7L117.3,162.7z M140.1,104.1c0.3,0.2,0.6,0.5,1,0.7
		C140.8,104.6,140.4,104.3,140.1,104.1z M123.3,96.7c2.6,0.5,5.1,1.3,7.5,2.3C128.4,98,125.9,97.3,123.3,96.7z M131,99
		c0.5,0.2,1.1,0.5,1.6,0.7C132,99.5,131.5,99.3,131,99L131,99z M133,99.9c0.5,0.2,1,0.5,1.5,0.8C134,100.4,133.5,100.2,133,99.9
		L133,99.9z M134.7,100.8c0.9,0.5,1.9,1,2.8,1.6C136.6,101.8,135.6,101.3,134.7,100.8L134.7,100.8z M138.2,102.8l1.1,0.8
		L138.2,102.8z M142.2,105.6c0.3,0.2,0.5,0.4,0.8,0.6C142.6,106,142.4,105.8,142.2,105.6z M144.6,107.8l0.5,0.5L144.6,107.8z
		 M150.1,114c0.7,1,1.4,1.9,2,2.9C151.4,115.9,150.7,114.9,150.1,114L150.1,114z M146.3,109.5c0.2,0.2,0.4,0.4,0.6,0.6
		C146.7,109.9,146.5,109.7,146.3,109.5L146.3,109.5z M148.1,111.4c0.2,0.2,0.3,0.4,0.5,0.6C148.4,111.8,148.2,111.6,148.1,111.4
		L148.1,111.4z M157.4,122.6c-5.9-14.6-18.8-25.2-34.3-28.2c0-0.3-0.1-0.6-0.2-0.9l0.4-0.2c17.1-5.6,35.6,3,42.4,19.6
		C163.5,116.6,160.7,119.8,157.4,122.6L157.4,122.6z M162,102.4l0.3,0.4L162,102.4z M163,103.6c0.1,0.1,0.2,0.3,0.3,0.4
		C163.2,103.9,163.1,103.8,163,103.6L163,103.6z M164,105l0.3,0.4L164,105z M165.2,106.7L165.2,106.7z M167.5,111.1
		c0.1,0.2,0.1,0.3,0.2,0.5C167.6,111.4,167.5,111.3,167.5,111.1L167.5,111.1z M166,108.1c0.1,0.1,0.2,0.3,0.2,0.4
		C166.1,108.4,166,108.3,166,108.1L166,108.1z M166.7,109.6l0.3,0.5L166.7,109.6z"/>
	<g class="st1">
		<path class="st2" d="M239.8,146.5c-1.5,0-2.2-0.6-2.2-1.8c0-0.4,0-1.6,0.1-3.7c0.1-2.1,0.2-4.6,0.3-7.6c0.1-3,0.2-6,0.3-9.2
			c0.1-3.2,0.1-6,0.1-8.5c-1.9,1.4-3.9,2.8-5.9,4c-2,1.3-4,2.4-6,3.5c-0.9-0.2-1.3-0.7-1.1-1.6c4.1-3,8.4-6.5,12.9-10.6
			c-0.1-2.1-0.2-3.7-0.3-4.9c-0.1-1.2-0.3-2.1-0.6-2.8c-0.1-0.5,0-0.9,0.2-1.1c0.3-0.3,0.7-0.4,1.2-0.2c0.7,0.3,1.6,0.6,2.7,1.1
			c1.1,0.5,2.2,0.9,3.2,1.4c1.4-1.5,2.8-3,4.2-4.5c1.4-1.5,2.6-3.1,3.9-4.7c-1.6,0-3.2,0-4.7,0c-1.5,0-2.9,0-4.3,0
			c-2.2,0-4.1,0-5.6,0c-1.5,0-2.5,0-3,0c-3.3,0.1-6,0.2-7.8,0.5l-1-4.2c2.4,0.4,5.3,0.6,8.8,0.8h10.3v-15c-0.8,0-1.6,0-2.4,0
			s-1.5,0-2.1,0c-1,0-1.9,0-2.7,0c-0.7,0-1.2,0-1.5,0c-2.8,0.1-5.1,0.2-7,0.5l-1-4.2c2.3,0.5,4.9,0.7,7.9,0.9h8.7v-9.4
			c0-2.4-0.2-3.9-0.7-4.5c-0.3-0.4-0.3-0.8,0-1.1c0.3-0.3,0.6-0.4,1-0.4c0.8,0.1,1.8,0.2,3.2,0.4c1.4,0.2,2.7,0.4,4.1,0.7
			c1.4,0.3,2.5,0.5,3.2,0.7c0.7,0.2,1,0.7,0.9,1.4c-0.1,0.6-0.5,1-1.3,1.2c-0.6,0.1-1.2,0.2-1.7,0.5c-0.5,0.3-0.8,0.8-0.8,1.6v8.9
			h0.9c0.5,0,1-0.2,1.4-0.7c0.3-0.4,0.8-1,1.3-1.8c0.5-0.7,0.9-1.3,1.2-1.6c0.4-0.6,1-0.6,1.7-0.1c0.8,0.6,1.7,1.4,2.7,2.3
			c1,1,1.9,1.8,2.5,2.5c0.6-1.2,1.1-2.6,1.6-4.2c0.5-1.5,0.9-3,1.3-4.3c0.4-1.4,0.5-2.3,0.4-3c0-0.4,0.1-0.7,0.4-0.9
			c0.3-0.2,0.7-0.2,1.1,0c0.8,0.3,1.9,0.8,3.1,1.4c1.3,0.6,2.5,1.2,3.7,1.8c1.2,0.6,2.2,1.2,3,1.7c0.3,0.1,0.5,0.3,0.5,0.6
			c0,0.3,0,0.6-0.1,0.8c-0.3,0.7-0.7,0.9-1.4,0.7c-0.8-0.1-1.5,0-1.9,0.2c-0.5,0.3-0.8,0.8-1.2,1.6c-1.8,3.8-3.8,7.4-5.8,10.9
			c-2.1,3.4-4.3,6.7-6.7,9.8h4c0.7,0,1.3-0.2,1.6-0.7c0.3-0.4,0.9-1.2,1.8-2.3c0.9-1.1,1.5-1.8,1.8-2.2c0.5-0.6,1.1-0.7,1.8-0.1
			c0.6,0.4,1.3,1,2.1,1.7c0.8,0.7,1.7,1.5,2.5,2.3c0.8,0.8,1.4,1.4,1.8,1.9c0.4,0.5,0.6,1,0.4,1.5c-0.2,0.5-0.5,0.7-1,0.7h-19.2
			c-1.5,1.9-3.1,3.7-4.8,5.4c-1.6,1.7-3.3,3.4-5.1,5h10.3c0.5,0,0.9-0.2,1.3-0.6c0.3-0.3,0.7-0.7,1.2-1.3c0.5-0.5,0.9-1,1.2-1.4
			c0.5-0.6,1.2-0.6,1.9-0.2c0.9,0.5,2.1,1.2,3.7,2.1c1.6,1,2.8,1.8,3.6,2.5c0.5,0.4,0.7,0.8,0.6,1.4c-0.1,0.5-0.5,0.9-1.1,1.3
			c-0.3,0.1-0.5,0.3-0.8,0.4c-0.3,0.1-0.6,0.3-0.8,0.4c-0.6,0.4-0.9,1.1-0.9,2.1c0,1.9,0,4.2,0.1,6.7c0.1,2.5,0.1,5.1,0.2,7.6
			c0.1,2.6,0.1,5,0.2,7.2c0.1,2.3,0.1,4.1,0.2,5.6c0.1,1.5,0.1,2.3,0.1,2.6c0,0.7-0.7,1.4-2,2.1s-2.9,1-4.7,1
			c-0.7,0-1.3-0.1-1.6-0.4c-0.4-0.3-0.6-0.7-0.6-1.4v-2.8h-16.4v3.1c0,0.8-0.7,1.5-2.1,2.1C243,146.2,241.4,146.5,239.8,146.5z
			 M246.4,121.1h16.4v-12.6h-15.4c-0.2,0.2-0.4,0.4-0.6,0.5c-0.2,0.2-0.4,0.3-0.5,0.4V121.1z M246.4,137.5h16.4V124h-16.4V137.5z
			 M253.4,92.3h1.5c1.7-2.4,3.4-4.8,4.9-7.3c1.5-2.5,2.9-5.1,4.2-7.6h-10.6V92.3z M282.6,146.5c-1.4,0-2.1-0.6-2.1-1.9
			c0-0.4,0-2,0.1-4.8s0.2-6.6,0.3-11.3c0.1-4.7,0.2-10.2,0.3-16.4c0.1-6.2,0.1-12.9,0.1-20.1c0-7,0-12.4-0.1-16.3
			c-0.1-3.9-0.2-6.8-0.3-8.6c-0.1-1.8-0.4-3.1-0.7-3.8c-0.1-0.4-0.1-0.8,0.2-1c0.3-0.3,0.6-0.3,1.1-0.2c0.6,0.2,1.4,0.5,2.5,1
			s2.2,1,3.3,1.5c1.1,0.5,2.1,1,2.8,1.5h9c0.5,0,0.9-0.2,1.3-0.6c0.1-0.1,0.5-0.6,1.2-1.3c0.7-0.7,1-1.2,1.1-1.5
			c0.5-0.6,1.1-0.7,1.7-0.4c0.6,0.3,1.6,0.8,2.8,1.5c1.2,0.7,2.4,1.4,3.7,2.2c1.3,0.8,2.3,1.4,3,2c0.6,0.5,0.8,1,0.6,1.7
			c-0.2,0.6-0.7,1-1.5,1.1c-0.9,0.1-1.5,0.2-1.9,0.5c-0.4,0.3-0.9,0.9-1.4,1.8c-0.9,1.3-2,3-3.2,5c-1.2,2.1-2.4,4.2-3.7,6.4
			c-1.2,2.2-2.3,4.2-3.2,5.9c-0.9,1.7-1.6,3-1.9,3.7c-0.5,1.1-0.3,1.9,0.6,2.4c2.8,1.5,5.5,3.5,8,5.8c2.5,2.4,4.5,5,6,7.8
			c1.5,2.9,2.3,5.9,2.3,9.1c0,5.7-1.4,10-4.2,12.7c-2.8,2.7-6.5,4.4-11.2,5.1c-0.5-2.4-1-4.2-1.7-5.5c-0.7-1.3-1.6-2.2-2.8-2.8
			c-1.2-0.6-2.8-1-4.9-1.3c-0.5-0.8-0.4-1.5,0.4-2c1.2,0.1,2.7,0.3,4.3,0.4c1.6,0.1,3.2,0.2,4.6,0.2c4.3,0,6.5-3,6.5-9
			c0-4.1-0.9-7.9-2.8-11.3c-1.9-3.4-4.2-6.1-7.1-8c-0.5-0.4-0.9-0.8-1.1-1.3c-0.2-0.5-0.2-1.1,0.1-2c0.3-0.8,0.6-2.1,1-3.8
			c0.4-1.7,0.9-3.6,1.4-5.7c0.5-2.1,1-4.3,1.4-6.4c0.5-2.2,0.9-4.1,1.3-5.8s0.7-3,0.9-3.9H289v74.4c0,0.8-0.6,1.4-1.9,2
			C285.8,146.2,284.3,146.5,282.6,146.5z"/>
		<path class="st2" d="M331.8,146.2c-0.8,0.3-1.3,0.1-1.5-0.5c-0.4-0.8-1-2-2-3.6c-0.9-1.6-1.9-3.2-2.8-4.9
			c-0.9-1.6-1.6-2.8-2.1-3.5c-0.2-0.3-0.2-0.6,0.1-0.9c0.2-0.2,0.5-0.3,1.1-0.3c0.4-0.1,1-0.1,1.7-0.1c0.7,0,1.5-0.1,2.4-0.1
			c2.1-0.2,4.3-0.5,6.7-0.9V74.9c0-3.8-0.1-6.7-0.3-8.6c-0.2-1.9-0.5-3.3-0.8-4.2c-0.2-0.3-0.1-0.6,0.2-1c0.3-0.3,0.6-0.3,1.1-0.1
			c0.8,0.3,1.8,0.7,3,1.2c1.2,0.5,2.5,1.1,3.8,1.7c1.3,0.6,2.5,1.2,3.4,1.7h43.8c0.6,0,1-0.2,1.3-0.7c0.3-0.4,0.7-0.9,1.2-1.5
			c0.4-0.6,0.9-1.2,1.3-1.6c0.4-0.6,1.1-0.7,1.8-0.3c0.7,0.3,1.6,0.7,2.7,1.3c1.1,0.6,2.1,1.2,3.2,1.8c1.1,0.6,1.9,1.1,2.7,1.6
			c0.5,0.3,0.8,0.7,0.8,1.3c0,0.6-0.3,1.1-1,1.4c-0.3,0.1-0.6,0.3-0.9,0.4c-0.3,0.1-0.6,0.3-0.9,0.5c-0.8,0.5-1.3,1.4-1.3,2.7
			c0,1.9,0.1,4.1,0.2,6.5c0.1,2.4,0.3,4.6,0.4,6.4c0.1,1.9,0.2,3,0.2,3.5c0,0.9-0.9,1.6-2.6,2.2c-1.7,0.5-3.4,0.8-5.1,0.8
			c-1.5,0-2.3-0.7-2.3-2v-2.5h-18.8c0.1,2.8,0.3,5.5,0.6,8c0.3,2.5,0.7,4.9,1.1,7.1h19.6c0.8,0,1.4-0.2,1.8-0.7
			c0.3-0.3,0.7-0.8,1.3-1.5c0.6-0.7,1.2-1.4,1.8-2.1c0.6-0.7,1-1.2,1.2-1.4c0.6-0.6,1.4-0.7,2.1-0.3c0.7,0.4,1.6,1,2.7,1.8
			c1.1,0.8,2.2,1.7,3.2,2.5c1,0.8,1.8,1.5,2.2,1.9c0.5,0.6,0.7,1.2,0.5,1.7s-0.5,0.9-1.1,0.9h-34.7c1.5,5.6,3.4,10.3,5.8,14
			c2.4,3.7,5.1,6.6,8,8.8c3,2.2,6,3.9,9,5c1.1,0.5,2,0.6,2.8,0.4c0.7-0.2,1.4-0.8,2.1-1.8c0.4-0.6,0.9-1.6,1.5-2.9
			c0.6-1.3,1.2-2.6,1.9-4.1c0.6-1.4,1.2-2.7,1.7-3.9c0.5-1.2,0.8-2,1-2.5c1-0.4,1.6-0.3,1.9,0.5c-0.1,0.5-0.2,1.4-0.5,2.8
			c-0.3,1.3-0.5,2.8-0.8,4.4c-0.3,1.6-0.5,3.1-0.8,4.5c-0.3,1.4-0.4,2.4-0.5,3c-0.1,1.1-0.1,1.9,0,2.4c0.1,0.5,0.6,1.1,1.4,1.8
			c1,0.9,1.7,1.9,1.9,3.1c0.2,1.2,0,2.2-0.6,3.1c-0.6,1-1.9,1.7-3.8,1.9c-1.9,0.2-4.2-0.1-6.9-0.9c-3-1-6.1-2.4-9.4-4.2
			c-3.3-1.8-6.6-4.2-9.8-7.2c-3.2-3-6.1-6.8-8.6-11.4c-2.6-4.6-4.6-10.2-6.1-16.8h-21.5V130c3.6-0.6,7.2-1.2,10.8-1.8
			c3.6-0.6,7-1.3,10-1.8c3.1-0.6,5.6-1.1,7.6-1.4c0.3,0.1,0.5,0.4,0.7,0.8c0.1,0.4,0.1,0.8-0.1,1.2c-1.7,0.6-3.9,1.5-6.5,2.5
			c-2.6,1-5.5,2.1-8.5,3.3c-3.1,1.2-6.2,2.3-9.2,3.5c-3.1,1.2-5.9,2.2-8.5,3.2c-2.6,1-4.8,1.8-6.6,2.4c-1.2,0.4-1.7,1.4-1.4,3.1
			C332.7,145.4,332.4,145.8,331.8,146.2z M344.3,84.4H391V68.5h-46.7V84.4z M344.3,102.5h20.9c-0.5-2.3-0.8-4.6-1.1-7.2
			c-0.3-2.5-0.5-5.2-0.6-8h-19.2V102.5z"/>
		<path class="st2" d="M460.7,139.8c-0.8-0.8-0.9-1.5-0.3-2.3c4.4-0.7,8.5-2,12.5-3.9c3.9-1.9,7.4-4.3,10.4-7.2
			c3-2.9,5.4-6.3,7.1-10.2c1.7-3.9,2.6-8.2,2.6-12.9c0-6.2-1.2-11.6-3.5-16.1c-2.4-4.5-5.6-8-9.8-10.4c-4.2-2.4-9.1-3.7-14.8-3.7
			c0.6,1.4,1.1,3,1.3,4.6c0.2,1.7,0.3,3.4,0.2,5.1c-0.3,5.8-1.1,11.3-2.6,16.7c-1.4,5.3-3.3,10.1-5.4,14.3
			c-2.2,4.2-4.4,7.8-6.7,10.5c-2.3,2.8-4.5,4.5-6.5,5.3c-1.7,0.8-3.4,1.2-5.3,1c-1.9-0.2-3.6-1.3-5.2-3.2c-1.3-1.5-2.5-3.2-3.8-4.9
			c-1.2-1.7-2.2-3.7-3-6c-0.8-2.3-1.2-5.1-1.3-8.4c-0.1-4.8,0.8-9.5,2.7-14.1c1.9-4.6,4.5-8.7,7.9-12.4c3.4-3.7,7.4-6.6,12.1-8.8
			c4.6-2.2,9.7-3.4,15.2-3.5c5.3-0.1,10.3,0.6,14.9,2.3c4.6,1.6,8.6,4,12.1,7.1c3.4,3.1,6.1,6.8,8,11.1c1.9,4.2,2.8,8.9,2.8,14.1
			c0,5.4-1.1,10.3-3.2,14.6c-2.1,4.3-5.1,8-8.9,11.1c-3.8,3.1-8.2,5.5-13.2,7.2C471.9,138.4,466.5,139.5,460.7,139.8z M443.1,120.4
			c1.7-0.5,3.5-2,5.5-4.5c2-2.5,3.9-5.6,5.8-9.4c1.9-3.8,3.4-7.9,4.7-12.4c1.3-4.5,2-9,2.2-13.5c0-0.3,0-0.6,0-0.9
			c0-0.3,0-0.6,0-0.8c0-1.1,0-2.1,0-3c0-0.9,0-1.8-0.1-2.7c-5.2,0.6-9.9,2.5-14,5.7c-4.1,3.3-7.3,7.4-9.6,12.5
			c-2.3,5.1-3.4,10.6-3.2,16.8c0.1,5,1,8.4,2.8,10.3C438.9,120.4,440.9,121,443.1,120.4z"/>
		<path class="st2" d="M547.8,136.7c-1.4,0.5-2.6,0.4-3.6-0.1c-1-0.5-1.6-1.6-1.9-3.2c-0.1-0.9-0.7-1.9-2-3
			c-1.3-1.1-2.8-2.1-4.6-2.9c-1.3,1.3-2.3,2.4-3.1,3.4c-1,1.2-2.3,1.8-3.8,1.8c-1.5,0.1-2.8-0.6-3.9-1.9c-0.8-1-1.7-1.9-2.5-2.6
			c-0.8-0.7-1.3-1.6-1.4-2.7c-0.1-1,0.4-1.9,1.4-2.6c1.1-0.7,2.5-1.1,4.3-1.1c0.6,0,1.3,0,2,0.1c0.7,0.1,1.4,0.2,2.1,0.3
			c1.8-1.1,4-2.5,6.6-4.2c2.6-1.7,5.4-3.5,8.5-5.3c-0.1-0.6-0.1-1.3-0.1-1.8s0-1.2,0-1.7c0-2.3,0-4.5,0-6.8c0-2.3,0.1-4.4,0.1-6.6
			c-3,0.6-6,1-9,1.2c-2.3,0.1-4.3-0.3-5.9-1.3c-1.6-1-2.8-2.3-3.7-4c-0.9-1.6-1.3-3.4-1.4-5.3c0.3-0.4,0.6-0.6,1-0.7
			c0.4-0.1,0.7,0,1,0.2c0.5,1.7,1.6,2.9,3.2,3.6c1.6,0.6,3.6,0.9,5.8,0.8c1.3-0.1,2.7-0.3,4.3-0.6c1.6-0.3,3.2-0.7,4.9-1.2
			c0.1-2.6,0.3-5,0.4-7.1c0.2-2.1,0.3-3.8,0.3-4.9c0.3-1.9,0-3.2-0.7-3.9c-0.3-0.3-0.8-0.5-1.4-0.6c-0.6-0.1-1.1-0.1-1.6,0
			c-0.7-0.7-0.7-1.4-0.1-2c1.1-0.3,2.3-0.5,3.8-0.5c1.4,0,2.7,0.1,4,0.4c2.1,0.5,3.6,1.4,4.5,2.8c0.9,1.4,0.9,2.8-0.2,4.2
			c-0.6,0.7-1.2,1.9-1.5,3.6c-0.4,1.7-0.7,3.7-1.1,6c0.7-0.3,1.4-0.5,1.9-0.8c0.6-0.3,1.1-0.5,1.5-0.8c0.4-0.3,0.9-0.3,1.5-0.1
			c0.5,0.2,1.2,0.5,2.1,0.9c0.3,0.1,0.4,0.2,0.6,0.3c1.7,0.8,2.7,1.9,2.9,3.2c0.2,1.3-0.5,2.3-2.2,2.8c-1.2,0.5-2.6,0.9-4.2,1.3
			c-1.5,0.4-3.2,0.9-4.8,1.3c-0.1,2.1-0.2,4.3-0.3,6.7c-0.1,2.3-0.1,4.7-0.1,7.1v1c3.6-1.9,7.4-3.5,11.4-4.8c4-1.4,8-2,12.1-2
			c4.3,0,8,0.7,11.1,2.2c3.1,1.5,5.5,3.5,7.1,6c1.7,2.5,2.5,5.4,2.5,8.6c0,3.2-0.9,6.1-2.6,8.6c-1.7,2.5-4,4.5-6.9,5.9
			c-2.9,1.4-6.1,2.1-9.8,2.1c-4.6,0-8.2-1.5-10.8-4.4c-2.6-2.9-3.9-6.6-3.8-11.2c0.6-0.8,1.2-0.9,1.9-0.3c0.8,3,2.3,5.1,4.2,6.5
			c2,1.4,4.6,2,7.9,2c2.5,0,4.8-0.9,6.8-2.6s3-4,3-6.9c0.1-3.6-1-6.4-3-8.5c-2.1-2.1-5.1-3.1-9.1-3.1c-3.9,0-7.8,0.7-11.5,2
			c-3.7,1.3-7.2,2.9-10.5,4.9c0.3,3.9,0.6,7,1.1,9.6c0.5,2.5,0.7,4.1,0.7,4.7c0,1.6-0.4,3.2-1.3,4.6
			C551.5,134.9,550,136,547.8,136.7z M544,127.1c1.5,0.9,2.2,0.5,2.2-1.2c0-0.6,0-1.6,0-2.9c0-1.3,0-2.9,0-4.7
			c-2.9,2.1-5.3,4.1-7.3,6c1,0.5,1.9,0.9,2.8,1.4C542.5,126.1,543.3,126.6,544,127.1z M588.8,94.1c-0.4-0.1-0.7-0.3-0.9-0.6
			c-0.2-0.3-0.3-0.6-0.2-1c0.6-0.7,1.3-1.4,2-2.2c0.7-0.8,1.4-1.4,1.9-1.9c-0.4-0.8-1.1-1.5-2-2.1c-1-0.6-2.2-0.9-3.7-1
			c-3.2-0.1-5.9,0.4-8.4,1.4c-2.4,1.1-4.7,2.7-6.7,4.8c-1,0-1.4-0.4-1.4-1.4c1-1.7,2.4-3.4,4.2-5.1c1.8-1.7,3.9-3.1,6.4-4.2
			c2.4-1.1,5.1-1.6,7.9-1.5c2.7,0,5.1,0.5,7.1,1.5c2,1,3.6,2.3,4.7,3.8c1.1,1.5,1.7,3.2,1.6,4.8c-0.1,1.5-0.6,2.6-1.7,3.2
			c-1.1,0.6-2.2,0.7-3.4,0.3c-1.4-0.4-2.7-0.5-3.9-0.2C591.1,93.2,589.9,93.6,588.8,94.1z"/>
		<path class="st2" d="M667.7,147.1c-1.5,0-2.2-0.7-2.2-2v-18h-17.8c-1.2,4.7-3.4,8.4-6.6,11.1c-3.2,2.7-6.9,4.7-11.3,5.9
			c-4.4,1.3-9,2.1-13.9,2.6c-0.3-0.3-0.5-0.6-0.6-1c-0.1-0.4,0-0.7,0.2-1c5.7-1,10.7-3,14.9-6c4.2-3,7-6.9,8.4-11.6h-17.6
			c-2.8,0.1-5,0.2-6.7,0.4l-1-4c2.1,0.3,4.6,0.5,7.6,0.7h18.2c0-0.2,0-0.4,0-0.6c0-0.2,0-0.4,0-0.7c0.2-2.3,0.3-3.9,0.2-5.1
			c-0.1-1.1-0.3-2-0.6-2.6c-0.2-0.4-0.2-0.7,0-1.1c0.2-0.3,0.5-0.4,1-0.4c0.8,0.1,1.9,0.4,3.4,0.7c1.5,0.3,3.1,0.6,4.6,1
			c1.6,0.3,2.7,0.6,3.4,0.9c0.7,0.2,1,0.7,0.9,1.4c-0.1,0.6-0.5,1-1.3,1.2c-0.6,0.1-1.2,0.2-1.7,0.4c-0.5,0.2-0.8,0.7-0.8,1.5
			c-0.1,0.6-0.1,1.1-0.1,1.7c0,0.5-0.1,1.1-0.2,1.6h17.2v-1.6c0-1.7-0.1-3-0.2-4c-0.2-1-0.4-1.7-0.6-2.2c-0.2-0.4-0.2-0.7,0-1.1
			c0.2-0.3,0.5-0.4,1-0.4c0.8,0.1,1.9,0.2,3.5,0.5c1.5,0.3,3.1,0.5,4.6,0.8c1.5,0.3,2.7,0.5,3.4,0.7c0.6,0.1,1,0.6,1,1.4
			c-0.1,0.7-0.5,1.1-1.3,1.3c-0.6,0.1-1.2,0.2-1.7,0.5c-0.5,0.3-0.8,0.8-0.8,1.5v2.7h11.6c0.8,0,1.4-0.3,1.7-0.8
			c0.4-0.5,1-1.3,1.8-2.4c0.8-1.1,1.4-1.9,1.7-2.3c0.5-0.6,1.2-0.7,2-0.3c0.6,0.4,1.5,1,2.5,1.8c1,0.8,2,1.7,2.9,2.5
			c0.9,0.8,1.6,1.5,2.1,2c0.5,0.5,0.7,1,0.5,1.6c-0.2,0.5-0.5,0.8-1.1,0.8h-25.7c0,2.1,0,4.4,0.1,6.9c0.1,2.5,0.2,4.7,0.3,6.6
			c0.1,1.9,0.1,3.1,0.1,3.6c0,0.8-0.8,1.5-2.4,2.1C670.9,146.9,669.3,147.1,667.7,147.1z M641.4,80.5c-0.7,0-1.3-0.1-1.7-0.4
			c-0.4-0.3-0.6-0.7-0.6-1.4c0-0.4,0-1.3,0-2.5c0-1.2,0.1-2.5,0.1-4h-16.6c-3.3,0.1-5.9,0.3-7.8,0.6l-1-4.2c2.4,0.4,5.3,0.6,8.8,0.8
			h16.7c0-0.7,0-1.3,0-1.9c0-0.5,0-1,0-1.5c0-2.7-0.3-4.5-0.8-5.4c-0.2-0.4-0.2-0.7,0-1.1c0.2-0.3,0.5-0.4,1-0.4
			c0.8,0.1,1.9,0.2,3.4,0.4c1.5,0.2,2.9,0.5,4.4,0.8s2.6,0.5,3.3,0.7c0.7,0.2,1,0.6,0.9,1.4c-0.1,0.8-0.5,1.2-1.3,1.2
			c-0.6,0.1-1.2,0.2-1.7,0.5c-0.5,0.3-0.7,0.8-0.7,1.6v3.7h16.3v-3.4c0-2.7-0.3-4.5-0.8-5.4c-0.2-0.4-0.2-0.7,0-1.1
			c0.2-0.3,0.5-0.4,1-0.3c0.8,0.1,1.9,0.2,3.4,0.4c1.5,0.2,2.9,0.5,4.4,0.7c1.4,0.3,2.6,0.5,3.3,0.7c0.7,0.2,1,0.6,0.9,1.4
			c-0.1,0.7-0.5,1.1-1.3,1.3c-0.6,0.1-1.2,0.2-1.7,0.5c-0.5,0.3-0.7,0.8-0.7,1.5v3.7h12.7c0.7,0,1.3-0.2,1.6-0.7
			c0.3-0.3,0.6-0.7,1.2-1.4c0.5-0.6,1-1.3,1.5-1.9c0.5-0.6,0.9-1.1,1.1-1.3c0.5-0.7,1.2-0.8,2-0.4c0.6,0.3,1.5,0.9,2.6,1.7
			c1.1,0.8,2.1,1.6,3,2.4c1,0.8,1.6,1.5,2,2c0.5,0.5,0.7,1,0.5,1.6c-0.2,0.5-0.5,0.8-1,0.8h-27.2c0.1,1.4,0.1,2.5,0.1,3.6
			c0,1,0,1.6,0,1.8c0,0.7-0.7,1.3-2,1.9c-1.4,0.5-2.9,0.8-4.5,0.8c-1.5,0-2.2-0.6-2.2-1.9v-6.2h-16.3v5.7c0,0.7-0.7,1.3-2,1.8
			C644.6,80.3,643.1,80.5,641.4,80.5z M616.1,121.8c-0.8-0.4-1-1.1-0.6-1.8c3-1.3,6-2.7,9-4.3c3-1.6,5.9-3.5,8.6-5.6
			c-0.1-0.1-0.1-0.3-0.2-0.5c-0.1-0.2-0.2-0.4-0.3-0.6c-0.5-1.3-1-2.5-1.5-3.6c-0.6-1.1-1.3-2.1-2.1-2.9c-3.9,2.8-8,5.2-12.5,7.2
			c-0.4-0.1-0.7-0.4-0.9-0.7c-0.2-0.3-0.2-0.6-0.1-1c4-2.8,7.6-6.1,11-9.9c3.3-3.8,6.2-7.9,8.5-12.2c-1.2,0-2.2,0-3.2,0
			c-1,0-1.9,0-2.7,0c-1.3,0-2.3,0-3.1,0c-0.8,0-1.3,0-1.5,0c-2.8,0.1-5,0.2-6.7,0.4l-1-4c2.1,0.3,4.6,0.5,7.5,0.7h58.1
			c0.6,0,1.2-0.3,1.6-0.8c0.3-0.4,0.9-1.2,1.7-2.2c0.8-1,1.4-1.7,1.7-2.2c0.5-0.6,1.1-0.7,1.9-0.2c0.6,0.4,1.3,1,2.2,1.7
			c0.9,0.7,1.8,1.5,2.6,2.2c0.8,0.7,1.4,1.3,1.8,1.8c0.5,0.6,0.7,1.1,0.5,1.7c-0.2,0.5-0.5,0.8-1.1,0.8H670v11.3
			c2.1-0.8,4.2-1.9,6.4-3.2c2.2-1.3,4.1-2.7,5.7-4.1c0.5-0.3,0.8-0.6,1-0.9s0.4-0.6,0.6-0.8c0.3-0.4,0.6-0.7,0.9-0.7
			c0.3,0,0.5,0.1,0.9,0.4c0.5,0.4,1.2,1,2.2,1.8c0.9,0.8,1.9,1.6,2.8,2.4c0.9,0.8,1.6,1.4,2,1.8c0.5,0.4,0.5,0.9,0,1.5
			c-0.4,0.5-0.9,0.5-1.4,0.3c-0.5-0.2-0.9-0.3-1.4-0.4c-0.5-0.1-1.1,0.1-1.9,0.4c-3,0.9-6,1.7-9,2.3c-3.1,0.6-6,1.1-8.7,1.5v4.2
			c0,0.9,0.2,1.5,0.6,1.9c0.4,0.4,1.2,0.6,2.5,0.8c1.2,0.1,2.8,0.1,4.8,0.1c2,0,3.9,0,5.9-0.1c2-0.1,3.5-0.3,4.7-0.6
			c1.6-0.3,2.7-1.3,3.4-2.8c0.5-1,0.9-2.3,1.4-4c0.5-1.6,1-3.2,1.4-4.6c0.4-1.5,0.7-2.5,0.8-3c0.3-0.3,0.7-0.3,1.1-0.2
			c0.4,0.1,0.7,0.3,0.9,0.6c0,0.7,0,1.8-0.1,3.3c-0.1,1.5-0.2,2.9-0.3,4.3c-0.1,1.4-0.1,2.4-0.1,2.9c-0.1,1.1,0.4,1.8,1.3,2
			c2.1,0.8,3.2,2,3.2,3.7c0,1.1-0.4,2-1.1,2.8c-0.7,0.8-2.1,1.3-4,1.6c-1.9,0.3-4.1,0.6-6.6,0.8c-2.5,0.2-5.1,0.3-7.8,0.4
			c-2.7,0.1-5.2,0.1-7.6,0c-2.4,0-4.4-0.1-6-0.2c-2.1-0.1-3.7-0.6-4.6-1.4c-1-0.8-1.4-2.1-1.4-3.9V85.9h-16.8
			c-1.5,2.3-3.1,4.3-4.7,6.2h6.6c0.6,0,1-0.1,1.4-0.4c0.3-0.3,0.8-0.7,1.5-1.4c0.7-0.6,1.2-1.1,1.5-1.4c0.6-0.5,1.3-0.5,1.8,0
			c0.4,0.3,1.1,0.8,2,1.5c0.9,0.7,1.7,1.4,2.6,2.1c0.8,0.7,1.4,1.3,1.8,1.6c0.5,0.5,0.6,1.1,0.3,1.8c-0.4,0.5-0.9,0.8-1.4,0.8
			c-0.9-0.1-1.6,0-2,0.2c-0.5,0.2-1,0.7-1.5,1.4c-5.1,6.4-11,11.4-17.7,15C630.5,117.1,623.4,119.9,616.1,121.8z M638.6,105.3
			c1.6-1.5,3.1-3.1,4.6-4.8c1.4-1.7,2.8-3.6,4.2-5.6h-9.6c-1.9,1.9-3.8,3.6-5.7,5.1c1.6,0.5,3,1.1,4.1,1.9
			C637.3,102.8,638.1,103.9,638.6,105.3z"/>
		<path class="st2" d="M718.7,146.4c-0.7,0.3-1.3,0.2-1.6-0.4c-0.3-0.5-0.7-1.3-1.4-2.4s-1.3-2.2-2.1-3.5c-0.7-1.3-1.4-2.5-2.1-3.7
			c-0.6-1.2-1.1-2.1-1.4-2.7c-0.3-0.4-0.3-0.7-0.1-1.1c0.1-0.1,0.5-0.3,1.1-0.4c0.6,0,1.2,0,2-0.1c0.7-0.1,1.6-0.2,2.5-0.3
			c1.8-0.2,3.8-0.5,6.1-0.9c2.3-0.4,4.7-0.8,7.3-1.3v-25.2c-0.9,0-1.8,0-2.6,0c-0.8,0-1.6,0-2.4,0c-1.2,0-2.3,0-3.1,0
			c-0.8,0-1.4,0-1.7,0c-1.5,0-2.8,0-3.8,0.1c-1.1,0.1-2.1,0.2-3,0.4l-1-4.1c1.9,0.3,4.5,0.5,7.8,0.7h22.6c0.7,0,1.3-0.2,1.7-0.7
			c0.3-0.3,0.7-0.8,1.2-1.5c0.5-0.7,1.1-1.4,1.6-2c0.5-0.7,0.9-1.1,1.1-1.4c0.5-0.7,1.2-0.8,1.9-0.3c1.1,0.6,2.4,1.6,3.9,3
			c1.5,1.4,2.6,2.4,3.3,3.3c0.5,0.6,0.7,1.1,0.5,1.7c-0.2,0.5-0.6,0.8-1.2,0.8h-17.9v23.6c5-0.9,9.7-1.8,14.1-2.8
			c4.4-0.9,7.9-1.7,10.2-2.2c0.3,0.1,0.6,0.4,0.7,0.8c0.2,0.4,0.1,0.8,0,1.2c-1.6,0.6-3.7,1.5-6.4,2.6c-2.6,1.1-5.6,2.3-8.8,3.6
			c-3.2,1.3-6.5,2.6-9.8,4c-3.3,1.3-6.5,2.6-9.5,3.7c-3,1.2-5.6,2.1-7.8,2.9c-0.7,0.3-1.1,0.6-1.2,1.1c-0.1,0.4-0.1,1.1,0,1.8
			C719.8,145.5,719.5,146,718.7,146.4z M796.7,144.4c-0.8,1.2-2.6,1.7-5.2,1.5c-2.6-0.2-5.5-1.3-8.7-3.5c-3-2.1-6-4.6-8.9-7.7
			c-2.9-3.1-5.6-6.8-8-11.3c-2.4-4.5-4.5-9.9-6.1-16.3c-1.7-6.4-2.8-14-3.5-22.8c-3.5,0-6.9,0-10.2,0s-6.5,0-9.5,0
			c-4.9,0-9,0-12.3,0s-5.1,0-5.5,0c-3.3,0.1-6,0.2-7.9,0.5l-0.9-4.1c2.3,0.3,5.2,0.5,8.7,0.7h37.4c-0.1-1.9-0.1-3.7-0.2-5.6
			c-0.1-1.9-0.1-3.8-0.2-5.8c0-2.8-0.1-4.9-0.3-6.3c-0.2-1.4-0.5-2.5-0.9-3.2c-0.1-0.4-0.1-0.8,0.1-1c0.2-0.3,0.5-0.4,0.9-0.3
			c0.9,0.1,2.1,0.2,3.7,0.5c1.5,0.3,3.1,0.5,4.6,0.9c1.5,0.3,2.7,0.6,3.6,0.9c0.7,0.2,1,0.6,0.9,1.3c-0.1,0.7-0.5,1.1-1.2,1.3
			c-0.8,0.1-1.4,0.2-1.7,0.4c-0.3,0.2-0.5,0.8-0.5,1.6c-0.1,2.8-0.2,5.4-0.2,8c0,2.6,0,5.1,0.1,7.5h16.7c0.8,0,1.4-0.3,1.8-0.8
			c0.3-0.3,0.6-0.8,1.2-1.5c0.5-0.7,1-1.4,1.5-2c0.5-0.7,0.9-1.1,1.1-1.4c0.5-0.6,1.2-0.7,2.1-0.3c0.7,0.4,1.6,1,2.7,1.8
			c1.1,0.8,2.1,1.6,3.1,2.5c1,0.9,1.7,1.6,2.2,2.1c0.5,0.6,0.7,1.1,0.5,1.7c-0.2,0.5-0.5,0.8-1.1,0.8h-31.7c0.5,9.2,1.8,17,3.8,23.3
			c2,6.3,4.4,11.4,7.3,15.4c2.9,3.9,6,7,9.2,9.1c1.7,1.2,3.1,0.9,4.2-0.8c0.4-0.6,0.9-1.6,1.5-2.9c0.6-1.3,1.3-2.7,1.9-4.2
			c0.6-1.5,1.3-2.9,1.8-4.2c0.6-1.3,1-2.3,1.3-2.9c0.9-0.4,1.5-0.3,1.9,0.4c-0.2,0.7-0.4,1.8-0.7,3.2c-0.3,1.4-0.6,2.9-1,4.5
			c-0.4,1.6-0.7,3.1-1,4.5c-0.3,1.4-0.5,2.5-0.7,3.2c-0.4,2,0,3.6,1.2,4.7c1,1,1.6,2.2,1.9,3.5C797.8,142,797.6,143.3,796.7,144.4z
			 M782.3,76.6c-0.8,0.3-1.6,0.4-2.4,0.1c-0.8-0.3-1.4-0.8-1.7-1.7c-0.8-2.2-2-4.2-3.4-6.1c-1.4-1.9-3.1-3.3-5-4.4
			c-0.3-1,0-1.6,0.9-1.9c3.4,0.3,6.4,1.1,9,2.2c2.6,1.2,4.2,2.7,5,4.6c0.7,1.8,0.8,3.3,0.2,4.6C784.3,75.2,783.4,76.1,782.3,76.6z"
			/>
	</g>
</g>
</svg>
